G04 #@! TF.GenerationSoftware,KiCad,Pcbnew,(5.0.0)*
G04 #@! TF.CreationDate,2020-07-01T14:19:43-04:00*
G04 #@! TF.ProjectId,redox_rev1,7265646F785F726576312E6B69636164,1.0*
G04 #@! TF.SameCoordinates,Original*
G04 #@! TF.FileFunction,Soldermask,Bot*
G04 #@! TF.FilePolarity,Negative*
%FSLAX46Y46*%
G04 Gerber Fmt 4.6, Leading zero omitted, Abs format (unit mm)*
G04 Created by KiCad (PCBNEW (5.0.0)) date 07/01/20 14:19:43*
%MOMM*%
%LPD*%
G01*
G04 APERTURE LIST*
%ADD10C,2.200000*%
%ADD11O,1.950000X1.700000*%
%ADD12C,0.100000*%
%ADD13C,1.700000*%
%ADD14C,1.600000*%
%ADD15C,1.701800*%
%ADD16C,2.286000*%
%ADD17C,3.987800*%
%ADD18C,3.000000*%
%ADD19C,2.500000*%
%ADD20R,2.550000X2.500000*%
%ADD21R,1.752600X1.752600*%
%ADD22C,1.752600*%
%ADD23R,1.600000X1.600000*%
%ADD24R,1.600000X1.200000*%
%ADD25O,1.700000X2.000000*%
%ADD26R,1.200000X1.200000*%
%ADD27C,1.200000*%
G04 APERTURE END LIST*
D10*
G04 #@! TO.C,H4*
X102234890Y-129809620D03*
G04 #@! TD*
G04 #@! TO.C,H1*
X214318280Y-142877560D03*
G04 #@! TD*
D11*
G04 #@! TO.C,STATUS_LEDS1*
X215138000Y-115450000D03*
X215138000Y-112950000D03*
X215138000Y-110450000D03*
D12*
G36*
X215887504Y-107101204D02*
X215911773Y-107104804D01*
X215935571Y-107110765D01*
X215958671Y-107119030D01*
X215980849Y-107129520D01*
X216001893Y-107142133D01*
X216021598Y-107156747D01*
X216039777Y-107173223D01*
X216056253Y-107191402D01*
X216070867Y-107211107D01*
X216083480Y-107232151D01*
X216093970Y-107254329D01*
X216102235Y-107277429D01*
X216108196Y-107301227D01*
X216111796Y-107325496D01*
X216113000Y-107350000D01*
X216113000Y-108550000D01*
X216111796Y-108574504D01*
X216108196Y-108598773D01*
X216102235Y-108622571D01*
X216093970Y-108645671D01*
X216083480Y-108667849D01*
X216070867Y-108688893D01*
X216056253Y-108708598D01*
X216039777Y-108726777D01*
X216021598Y-108743253D01*
X216001893Y-108757867D01*
X215980849Y-108770480D01*
X215958671Y-108780970D01*
X215935571Y-108789235D01*
X215911773Y-108795196D01*
X215887504Y-108798796D01*
X215863000Y-108800000D01*
X214413000Y-108800000D01*
X214388496Y-108798796D01*
X214364227Y-108795196D01*
X214340429Y-108789235D01*
X214317329Y-108780970D01*
X214295151Y-108770480D01*
X214274107Y-108757867D01*
X214254402Y-108743253D01*
X214236223Y-108726777D01*
X214219747Y-108708598D01*
X214205133Y-108688893D01*
X214192520Y-108667849D01*
X214182030Y-108645671D01*
X214173765Y-108622571D01*
X214167804Y-108598773D01*
X214164204Y-108574504D01*
X214163000Y-108550000D01*
X214163000Y-107350000D01*
X214164204Y-107325496D01*
X214167804Y-107301227D01*
X214173765Y-107277429D01*
X214182030Y-107254329D01*
X214192520Y-107232151D01*
X214205133Y-107211107D01*
X214219747Y-107191402D01*
X214236223Y-107173223D01*
X214254402Y-107156747D01*
X214274107Y-107142133D01*
X214295151Y-107129520D01*
X214317329Y-107119030D01*
X214340429Y-107110765D01*
X214364227Y-107104804D01*
X214388496Y-107101204D01*
X214413000Y-107100000D01*
X215863000Y-107100000D01*
X215887504Y-107101204D01*
X215887504Y-107101204D01*
G37*
D13*
X215138000Y-107950000D03*
G04 #@! TD*
D14*
G04 #@! TO.C,R3*
X199136000Y-89064000D03*
X199136000Y-96864000D03*
G04 #@! TD*
D15*
G04 #@! TO.C,K46*
X212135591Y-155575000D03*
X220934409Y-160655000D03*
D16*
X214505443Y-154010295D03*
D17*
X216535000Y-158115000D03*
D16*
X221274705Y-154985591D03*
D18*
X218564557Y-162219705D03*
X211795295Y-161244409D03*
D16*
X211965443Y-158409705D03*
X216194705Y-163784409D03*
D18*
X221104557Y-157820295D03*
X216875295Y-152445591D03*
D19*
X221812152Y-164094705D03*
D12*
G36*
X220082970Y-164539737D02*
X221332970Y-162374673D01*
X223541334Y-163649673D01*
X222291334Y-165814737D01*
X220082970Y-164539737D01*
X220082970Y-164539737D01*
G37*
D19*
X208547700Y-159369409D03*
D12*
G36*
X206818518Y-159814441D02*
X208068518Y-157649377D01*
X210276882Y-158924377D01*
X209026882Y-161089441D01*
X206818518Y-159814441D01*
X206818518Y-159814441D01*
G37*
G04 #@! TD*
D15*
G04 #@! TO.C,K45*
X195625591Y-146050000D03*
X204424409Y-151130000D03*
D16*
X197995443Y-144485295D03*
D17*
X200025000Y-148590000D03*
D16*
X204764705Y-145460591D03*
D18*
X202054557Y-152694705D03*
X195285295Y-151719409D03*
D16*
X195455443Y-148884705D03*
X199684705Y-154259409D03*
D18*
X204594557Y-148295295D03*
X200365295Y-142920591D03*
D19*
X205302152Y-154569705D03*
D12*
G36*
X203572970Y-155014737D02*
X204822970Y-152849673D01*
X207031334Y-154124673D01*
X205781334Y-156289737D01*
X203572970Y-155014737D01*
X203572970Y-155014737D01*
G37*
D19*
X192037700Y-149844409D03*
D12*
G36*
X190308518Y-150289441D02*
X191558518Y-148124377D01*
X193766882Y-149399377D01*
X192516882Y-151564441D01*
X190308518Y-150289441D01*
X190308518Y-150289441D01*
G37*
G04 #@! TD*
D15*
G04 #@! TO.C,K44*
X171623097Y-140290199D03*
X181436903Y-142919801D03*
D16*
X173507223Y-138165448D03*
D17*
X176530000Y-141605000D03*
D16*
X180298252Y-137355497D03*
D18*
X179552777Y-145044552D03*
X172761748Y-145854503D03*
D16*
X172192422Y-143072351D03*
X177668651Y-147169304D03*
D18*
X180867578Y-140137649D03*
X175391349Y-136040696D03*
D19*
X183174999Y-146015124D03*
D12*
G36*
X181619920Y-146892537D02*
X182266967Y-144477722D01*
X184730078Y-145137711D01*
X184083031Y-147552526D01*
X181619920Y-146892537D01*
X181619920Y-146892537D01*
G37*
D19*
X169139526Y-144883931D03*
D12*
G36*
X167584447Y-145761344D02*
X168231494Y-143346529D01*
X170694605Y-144006518D01*
X170047558Y-146421333D01*
X167584447Y-145761344D01*
X167584447Y-145761344D01*
G37*
G04 #@! TD*
D15*
G04 #@! TO.C,K43*
X146050000Y-135890000D03*
X156210000Y-135890000D03*
D16*
X147320000Y-133350000D03*
D17*
X151130000Y-135890000D03*
D16*
X153670000Y-130810000D03*
D18*
X154940000Y-138430000D03*
X148590000Y-140970000D03*
D16*
X147320000Y-138430000D03*
X153670000Y-140970000D03*
D18*
X154940000Y-133350000D03*
X148590000Y-130810000D03*
D20*
X158690000Y-138430000D03*
X144840000Y-140970000D03*
G04 #@! TD*
D15*
G04 #@! TO.C,K42*
X127000000Y-138430000D03*
X137160000Y-138430000D03*
D16*
X128270000Y-135890000D03*
D17*
X132080000Y-138430000D03*
D16*
X134620000Y-133350000D03*
D18*
X135890000Y-140970000D03*
X129540000Y-143510000D03*
D16*
X128270000Y-140970000D03*
X134620000Y-143510000D03*
D18*
X135890000Y-135890000D03*
X129540000Y-133350000D03*
D20*
X139640000Y-140970000D03*
X125790000Y-143510000D03*
G04 #@! TD*
D15*
G04 #@! TO.C,K41*
X107950000Y-142875000D03*
X118110000Y-142875000D03*
D16*
X109220000Y-140335000D03*
D17*
X113030000Y-142875000D03*
D16*
X115570000Y-137795000D03*
D18*
X116840000Y-145415000D03*
X110490000Y-147955000D03*
D16*
X109220000Y-145415000D03*
X115570000Y-147955000D03*
D18*
X116840000Y-140335000D03*
X110490000Y-137795000D03*
D20*
X120590000Y-145415000D03*
X106740000Y-147955000D03*
G04 #@! TD*
D15*
G04 #@! TO.C,K40*
X88900000Y-142875000D03*
X99060000Y-142875000D03*
D16*
X90170000Y-140335000D03*
D17*
X93980000Y-142875000D03*
D16*
X96520000Y-137795000D03*
D18*
X97790000Y-145415000D03*
X91440000Y-147955000D03*
D16*
X90170000Y-145415000D03*
X96520000Y-147955000D03*
D18*
X97790000Y-140335000D03*
X91440000Y-137795000D03*
D20*
X101540000Y-145415000D03*
X87690000Y-147955000D03*
G04 #@! TD*
D15*
G04 #@! TO.C,K36*
X224200591Y-134620000D03*
X232999409Y-139700000D03*
D16*
X226570443Y-133055295D03*
D17*
X228600000Y-137160000D03*
D16*
X233339705Y-134030591D03*
D18*
X230629557Y-141264705D03*
X223860295Y-140289409D03*
D16*
X224030443Y-137454705D03*
X228259705Y-142829409D03*
D18*
X233169557Y-136865295D03*
X228940295Y-131490591D03*
D19*
X233877152Y-143139705D03*
D12*
G36*
X232147970Y-143584737D02*
X233397970Y-141419673D01*
X235606334Y-142694673D01*
X234356334Y-144859737D01*
X232147970Y-143584737D01*
X232147970Y-143584737D01*
G37*
D19*
X220612700Y-138414409D03*
D12*
G36*
X218883518Y-138859441D02*
X220133518Y-136694377D01*
X222341882Y-137969377D01*
X221091882Y-140134441D01*
X218883518Y-138859441D01*
X218883518Y-138859441D01*
G37*
G04 #@! TD*
D15*
G04 #@! TO.C,K35*
X184150000Y-121285000D03*
X194310000Y-121285000D03*
D16*
X185420000Y-118745000D03*
D17*
X189230000Y-121285000D03*
D16*
X191770000Y-116205000D03*
D18*
X193040000Y-123825000D03*
X186690000Y-126365000D03*
D16*
X185420000Y-123825000D03*
X191770000Y-126365000D03*
D18*
X193040000Y-118745000D03*
X186690000Y-116205000D03*
D20*
X196790000Y-123825000D03*
X182940000Y-126365000D03*
G04 #@! TD*
D15*
G04 #@! TO.C,K34*
X165100000Y-119380000D03*
X175260000Y-119380000D03*
D16*
X166370000Y-116840000D03*
D17*
X170180000Y-119380000D03*
D16*
X172720000Y-114300000D03*
D18*
X173990000Y-121920000D03*
X167640000Y-124460000D03*
D16*
X166370000Y-121920000D03*
X172720000Y-124460000D03*
D18*
X173990000Y-116840000D03*
X167640000Y-114300000D03*
D20*
X177740000Y-121920000D03*
X163890000Y-124460000D03*
G04 #@! TD*
D15*
G04 #@! TO.C,K33*
X146050000Y-116840000D03*
X156210000Y-116840000D03*
D16*
X147320000Y-114300000D03*
D17*
X151130000Y-116840000D03*
D16*
X153670000Y-111760000D03*
D18*
X154940000Y-119380000D03*
X148590000Y-121920000D03*
D16*
X147320000Y-119380000D03*
X153670000Y-121920000D03*
D18*
X154940000Y-114300000D03*
X148590000Y-111760000D03*
D20*
X158690000Y-119380000D03*
X144840000Y-121920000D03*
G04 #@! TD*
D15*
G04 #@! TO.C,K32*
X127000000Y-119380000D03*
X137160000Y-119380000D03*
D16*
X128270000Y-116840000D03*
D17*
X132080000Y-119380000D03*
D16*
X134620000Y-114300000D03*
D18*
X135890000Y-121920000D03*
X129540000Y-124460000D03*
D16*
X128270000Y-121920000D03*
X134620000Y-124460000D03*
D18*
X135890000Y-116840000D03*
X129540000Y-114300000D03*
D20*
X139640000Y-121920000D03*
X125790000Y-124460000D03*
G04 #@! TD*
D15*
G04 #@! TO.C,K31*
X107950000Y-123825000D03*
X118110000Y-123825000D03*
D16*
X109220000Y-121285000D03*
D17*
X113030000Y-123825000D03*
D16*
X115570000Y-118745000D03*
D18*
X116840000Y-126365000D03*
X110490000Y-128905000D03*
D16*
X109220000Y-126365000D03*
X115570000Y-128905000D03*
D18*
X116840000Y-121285000D03*
X110490000Y-118745000D03*
D20*
X120590000Y-126365000D03*
X106740000Y-128905000D03*
G04 #@! TD*
D15*
G04 #@! TO.C,K30*
X86360000Y-123825000D03*
X96520000Y-123825000D03*
D16*
X87630000Y-121285000D03*
D17*
X91440000Y-123825000D03*
D16*
X93980000Y-118745000D03*
D18*
X95250000Y-126365000D03*
X88900000Y-128905000D03*
D16*
X87630000Y-126365000D03*
X93980000Y-128905000D03*
D18*
X95250000Y-121285000D03*
X88900000Y-118745000D03*
D20*
X99000000Y-126365000D03*
X85150000Y-128905000D03*
G04 #@! TD*
D15*
G04 #@! TO.C,K26*
X207690591Y-125095000D03*
X216489409Y-130175000D03*
D16*
X210060443Y-123530295D03*
D17*
X212090000Y-127635000D03*
D16*
X216829705Y-124505591D03*
D18*
X214119557Y-131739705D03*
X207350295Y-130764409D03*
D16*
X207520443Y-127929705D03*
X211749705Y-133304409D03*
D18*
X216659557Y-127340295D03*
X212430295Y-121965591D03*
D19*
X217367152Y-133614705D03*
D12*
G36*
X215637970Y-134059737D02*
X216887970Y-131894673D01*
X219096334Y-133169673D01*
X217846334Y-135334737D01*
X215637970Y-134059737D01*
X215637970Y-134059737D01*
G37*
D19*
X204102700Y-128889409D03*
D12*
G36*
X202373518Y-129334441D02*
X203623518Y-127169377D01*
X205831882Y-128444377D01*
X204581882Y-130609441D01*
X202373518Y-129334441D01*
X202373518Y-129334441D01*
G37*
G04 #@! TD*
D15*
G04 #@! TO.C,K25*
X184150000Y-102235000D03*
X194310000Y-102235000D03*
D16*
X185420000Y-99695000D03*
D17*
X189230000Y-102235000D03*
D16*
X191770000Y-97155000D03*
D18*
X193040000Y-104775000D03*
X186690000Y-107315000D03*
D16*
X185420000Y-104775000D03*
X191770000Y-107315000D03*
D18*
X193040000Y-99695000D03*
X186690000Y-97155000D03*
D20*
X196790000Y-104775000D03*
X182940000Y-107315000D03*
G04 #@! TD*
D15*
G04 #@! TO.C,K24*
X165100000Y-100330000D03*
X175260000Y-100330000D03*
D16*
X166370000Y-97790000D03*
D17*
X170180000Y-100330000D03*
D16*
X172720000Y-95250000D03*
D18*
X173990000Y-102870000D03*
X167640000Y-105410000D03*
D16*
X166370000Y-102870000D03*
X172720000Y-105410000D03*
D18*
X173990000Y-97790000D03*
X167640000Y-95250000D03*
D20*
X177740000Y-102870000D03*
X163890000Y-105410000D03*
G04 #@! TD*
D15*
G04 #@! TO.C,K23*
X146050000Y-97790000D03*
X156210000Y-97790000D03*
D16*
X147320000Y-95250000D03*
D17*
X151130000Y-97790000D03*
D16*
X153670000Y-92710000D03*
D18*
X154940000Y-100330000D03*
X148590000Y-102870000D03*
D16*
X147320000Y-100330000D03*
X153670000Y-102870000D03*
D18*
X154940000Y-95250000D03*
X148590000Y-92710000D03*
D20*
X158690000Y-100330000D03*
X144840000Y-102870000D03*
G04 #@! TD*
D15*
G04 #@! TO.C,K22*
X127000000Y-100330000D03*
X137160000Y-100330000D03*
D16*
X128270000Y-97790000D03*
D17*
X132080000Y-100330000D03*
D16*
X134620000Y-95250000D03*
D18*
X135890000Y-102870000D03*
X129540000Y-105410000D03*
D16*
X128270000Y-102870000D03*
X134620000Y-105410000D03*
D18*
X135890000Y-97790000D03*
X129540000Y-95250000D03*
D20*
X139640000Y-102870000D03*
X125790000Y-105410000D03*
G04 #@! TD*
D15*
G04 #@! TO.C,K21*
X107950000Y-104775000D03*
X118110000Y-104775000D03*
D16*
X109220000Y-102235000D03*
D17*
X113030000Y-104775000D03*
D16*
X115570000Y-99695000D03*
D18*
X116840000Y-107315000D03*
X110490000Y-109855000D03*
D16*
X109220000Y-107315000D03*
X115570000Y-109855000D03*
D18*
X116840000Y-102235000D03*
X110490000Y-99695000D03*
D20*
X120590000Y-107315000D03*
X106740000Y-109855000D03*
G04 #@! TD*
D15*
G04 #@! TO.C,K20*
X86360000Y-104775000D03*
X96520000Y-104775000D03*
D16*
X87630000Y-102235000D03*
D17*
X91440000Y-104775000D03*
D16*
X93980000Y-99695000D03*
D18*
X95250000Y-107315000D03*
X88900000Y-109855000D03*
D16*
X87630000Y-107315000D03*
X93980000Y-109855000D03*
D18*
X95250000Y-102235000D03*
X88900000Y-99695000D03*
D20*
X99000000Y-107315000D03*
X85150000Y-109855000D03*
G04 #@! TD*
D15*
G04 #@! TO.C,K16*
X203200000Y-97790000D03*
X213360000Y-97790000D03*
D16*
X204470000Y-95250000D03*
D17*
X208280000Y-97790000D03*
D16*
X210820000Y-92710000D03*
D18*
X212090000Y-100330000D03*
X205740000Y-102870000D03*
D16*
X204470000Y-100330000D03*
X210820000Y-102870000D03*
D18*
X212090000Y-95250000D03*
X205740000Y-92710000D03*
D20*
X215840000Y-100330000D03*
X201990000Y-102870000D03*
G04 #@! TD*
D15*
G04 #@! TO.C,K15*
X184150000Y-83185000D03*
X194310000Y-83185000D03*
D16*
X185420000Y-80645000D03*
D17*
X189230000Y-83185000D03*
D16*
X191770000Y-78105000D03*
D18*
X193040000Y-85725000D03*
X186690000Y-88265000D03*
D16*
X185420000Y-85725000D03*
X191770000Y-88265000D03*
D18*
X193040000Y-80645000D03*
X186690000Y-78105000D03*
D20*
X196790000Y-85725000D03*
X182940000Y-88265000D03*
G04 #@! TD*
D15*
G04 #@! TO.C,K14*
X165100000Y-81280000D03*
X175260000Y-81280000D03*
D16*
X166370000Y-78740000D03*
D17*
X170180000Y-81280000D03*
D16*
X172720000Y-76200000D03*
D18*
X173990000Y-83820000D03*
X167640000Y-86360000D03*
D16*
X166370000Y-83820000D03*
X172720000Y-86360000D03*
D18*
X173990000Y-78740000D03*
X167640000Y-76200000D03*
D20*
X177740000Y-83820000D03*
X163890000Y-86360000D03*
G04 #@! TD*
D15*
G04 #@! TO.C,K13*
X146050000Y-78740000D03*
X156210000Y-78740000D03*
D16*
X147320000Y-76200000D03*
D17*
X151130000Y-78740000D03*
D16*
X153670000Y-73660000D03*
D18*
X154940000Y-81280000D03*
X148590000Y-83820000D03*
D16*
X147320000Y-81280000D03*
X153670000Y-83820000D03*
D18*
X154940000Y-76200000D03*
X148590000Y-73660000D03*
D20*
X158690000Y-81280000D03*
X144840000Y-83820000D03*
G04 #@! TD*
D15*
G04 #@! TO.C,K12*
X127000000Y-81280000D03*
X137160000Y-81280000D03*
D16*
X128270000Y-78740000D03*
D17*
X132080000Y-81280000D03*
D16*
X134620000Y-76200000D03*
D18*
X135890000Y-83820000D03*
X129540000Y-86360000D03*
D16*
X128270000Y-83820000D03*
X134620000Y-86360000D03*
D18*
X135890000Y-78740000D03*
X129540000Y-76200000D03*
D20*
X139640000Y-83820000D03*
X125790000Y-86360000D03*
G04 #@! TD*
D15*
G04 #@! TO.C,K11*
X107950000Y-85725000D03*
X118110000Y-85725000D03*
D16*
X109220000Y-83185000D03*
D17*
X113030000Y-85725000D03*
D16*
X115570000Y-80645000D03*
D18*
X116840000Y-88265000D03*
X110490000Y-90805000D03*
D16*
X109220000Y-88265000D03*
X115570000Y-90805000D03*
D18*
X116840000Y-83185000D03*
X110490000Y-80645000D03*
D20*
X120590000Y-88265000D03*
X106740000Y-90805000D03*
G04 #@! TD*
D15*
G04 #@! TO.C,K10*
X86360000Y-85725000D03*
X96520000Y-85725000D03*
D16*
X87630000Y-83185000D03*
D17*
X91440000Y-85725000D03*
D16*
X93980000Y-80645000D03*
D18*
X95250000Y-88265000D03*
X88900000Y-90805000D03*
D16*
X87630000Y-88265000D03*
X93980000Y-90805000D03*
D18*
X95250000Y-83185000D03*
X88900000Y-80645000D03*
D20*
X99000000Y-88265000D03*
X85150000Y-90805000D03*
G04 #@! TD*
D15*
G04 #@! TO.C,K6*
X203200000Y-73660000D03*
X213360000Y-73660000D03*
D16*
X204470000Y-71120000D03*
D17*
X208280000Y-73660000D03*
D16*
X210820000Y-68580000D03*
D18*
X212090000Y-76200000D03*
X205740000Y-78740000D03*
D16*
X204470000Y-76200000D03*
X210820000Y-78740000D03*
D18*
X212090000Y-71120000D03*
X205740000Y-68580000D03*
D20*
X215840000Y-76200000D03*
X201990000Y-78740000D03*
G04 #@! TD*
D15*
G04 #@! TO.C,K5*
X184150000Y-64135000D03*
X194310000Y-64135000D03*
D16*
X185420000Y-61595000D03*
D17*
X189230000Y-64135000D03*
D16*
X191770000Y-59055000D03*
D18*
X193040000Y-66675000D03*
X186690000Y-69215000D03*
D16*
X185420000Y-66675000D03*
X191770000Y-69215000D03*
D18*
X193040000Y-61595000D03*
X186690000Y-59055000D03*
D20*
X196790000Y-66675000D03*
X182940000Y-69215000D03*
G04 #@! TD*
D15*
G04 #@! TO.C,K4*
X165100000Y-62230000D03*
X175260000Y-62230000D03*
D16*
X166370000Y-59690000D03*
D17*
X170180000Y-62230000D03*
D16*
X172720000Y-57150000D03*
D18*
X173990000Y-64770000D03*
X167640000Y-67310000D03*
D16*
X166370000Y-64770000D03*
X172720000Y-67310000D03*
D18*
X173990000Y-59690000D03*
X167640000Y-57150000D03*
D20*
X177740000Y-64770000D03*
X163890000Y-67310000D03*
G04 #@! TD*
D15*
G04 #@! TO.C,K3*
X146050000Y-59690000D03*
X156210000Y-59690000D03*
D16*
X147320000Y-57150000D03*
D17*
X151130000Y-59690000D03*
D16*
X153670000Y-54610000D03*
D18*
X154940000Y-62230000D03*
X148590000Y-64770000D03*
D16*
X147320000Y-62230000D03*
X153670000Y-64770000D03*
D18*
X154940000Y-57150000D03*
X148590000Y-54610000D03*
D20*
X158690000Y-62230000D03*
X144840000Y-64770000D03*
G04 #@! TD*
D15*
G04 #@! TO.C,K2*
X127000000Y-62230000D03*
X137160000Y-62230000D03*
D16*
X128270000Y-59690000D03*
D17*
X132080000Y-62230000D03*
D16*
X134620000Y-57150000D03*
D18*
X135890000Y-64770000D03*
X129540000Y-67310000D03*
D16*
X128270000Y-64770000D03*
X134620000Y-67310000D03*
D18*
X135890000Y-59690000D03*
X129540000Y-57150000D03*
D20*
X139640000Y-64770000D03*
X125790000Y-67310000D03*
G04 #@! TD*
D15*
G04 #@! TO.C,K1*
X107950000Y-66675000D03*
X118110000Y-66675000D03*
D16*
X109220000Y-64135000D03*
D17*
X113030000Y-66675000D03*
D16*
X115570000Y-61595000D03*
D18*
X116840000Y-69215000D03*
X110490000Y-71755000D03*
D16*
X109220000Y-69215000D03*
X115570000Y-71755000D03*
D18*
X116840000Y-64135000D03*
X110490000Y-61595000D03*
D20*
X120590000Y-69215000D03*
X106740000Y-71755000D03*
G04 #@! TD*
D15*
G04 #@! TO.C,K0*
X86360000Y-66675000D03*
X96520000Y-66675000D03*
D16*
X87630000Y-64135000D03*
D17*
X91440000Y-66675000D03*
D16*
X93980000Y-61595000D03*
D18*
X95250000Y-69215000D03*
X88900000Y-71755000D03*
D16*
X87630000Y-69215000D03*
X93980000Y-71755000D03*
D18*
X95250000Y-64135000D03*
X88900000Y-61595000D03*
D20*
X99000000Y-69215000D03*
X85150000Y-71755000D03*
G04 #@! TD*
D21*
G04 #@! TO.C,U1*
X142240000Y-76835000D03*
D22*
X142240000Y-79375000D03*
X142240000Y-81915000D03*
X142240000Y-84455000D03*
X142240000Y-86995000D03*
X142240000Y-89535000D03*
X142240000Y-92075000D03*
X142240000Y-94615000D03*
X142240000Y-97155000D03*
X142240000Y-99695000D03*
X142240000Y-102235000D03*
X161290000Y-104775000D03*
X161290000Y-102235000D03*
X161290000Y-99695000D03*
X161290000Y-97155000D03*
X161290000Y-94615000D03*
X161290000Y-92075000D03*
X161290000Y-89535000D03*
X161290000Y-86995000D03*
X161290000Y-84455000D03*
X161290000Y-81915000D03*
X161290000Y-79375000D03*
X142240000Y-104775000D03*
X161290000Y-76835000D03*
G04 #@! TD*
D23*
G04 #@! TO.C,D0*
X87540000Y-74930000D03*
D14*
X95340000Y-74930000D03*
D24*
X90040000Y-74930000D03*
X92840000Y-74930000D03*
G04 #@! TD*
D10*
G04 #@! TO.C,H9*
X102234890Y-76200000D03*
G04 #@! TD*
G04 #@! TO.C,H12*
X208279620Y-85724870D03*
G04 #@! TD*
G04 #@! TO.C,H11*
X160019330Y-126364750D03*
G04 #@! TD*
G04 #@! TO.C,H10*
X160654330Y-70484680D03*
G04 #@! TD*
D11*
G04 #@! TO.C,RGB_STRIP1*
X203962000Y-114220000D03*
X203962000Y-111720000D03*
D12*
G36*
X204711504Y-108371204D02*
X204735773Y-108374804D01*
X204759571Y-108380765D01*
X204782671Y-108389030D01*
X204804849Y-108399520D01*
X204825893Y-108412133D01*
X204845598Y-108426747D01*
X204863777Y-108443223D01*
X204880253Y-108461402D01*
X204894867Y-108481107D01*
X204907480Y-108502151D01*
X204917970Y-108524329D01*
X204926235Y-108547429D01*
X204932196Y-108571227D01*
X204935796Y-108595496D01*
X204937000Y-108620000D01*
X204937000Y-109820000D01*
X204935796Y-109844504D01*
X204932196Y-109868773D01*
X204926235Y-109892571D01*
X204917970Y-109915671D01*
X204907480Y-109937849D01*
X204894867Y-109958893D01*
X204880253Y-109978598D01*
X204863777Y-109996777D01*
X204845598Y-110013253D01*
X204825893Y-110027867D01*
X204804849Y-110040480D01*
X204782671Y-110050970D01*
X204759571Y-110059235D01*
X204735773Y-110065196D01*
X204711504Y-110068796D01*
X204687000Y-110070000D01*
X203237000Y-110070000D01*
X203212496Y-110068796D01*
X203188227Y-110065196D01*
X203164429Y-110059235D01*
X203141329Y-110050970D01*
X203119151Y-110040480D01*
X203098107Y-110027867D01*
X203078402Y-110013253D01*
X203060223Y-109996777D01*
X203043747Y-109978598D01*
X203029133Y-109958893D01*
X203016520Y-109937849D01*
X203006030Y-109915671D01*
X202997765Y-109892571D01*
X202991804Y-109868773D01*
X202988204Y-109844504D01*
X202987000Y-109820000D01*
X202987000Y-108620000D01*
X202988204Y-108595496D01*
X202991804Y-108571227D01*
X202997765Y-108547429D01*
X203006030Y-108524329D01*
X203016520Y-108502151D01*
X203029133Y-108481107D01*
X203043747Y-108461402D01*
X203060223Y-108443223D01*
X203078402Y-108426747D01*
X203098107Y-108412133D01*
X203119151Y-108399520D01*
X203141329Y-108389030D01*
X203164429Y-108380765D01*
X203188227Y-108374804D01*
X203212496Y-108371204D01*
X203237000Y-108370000D01*
X204687000Y-108370000D01*
X204711504Y-108371204D01*
X204711504Y-108371204D01*
G37*
D13*
X203962000Y-109220000D03*
G04 #@! TD*
D25*
G04 #@! TO.C,RESET1*
X100497000Y-118364000D03*
D12*
G36*
X103621504Y-117365204D02*
X103645773Y-117368804D01*
X103669571Y-117374765D01*
X103692671Y-117383030D01*
X103714849Y-117393520D01*
X103735893Y-117406133D01*
X103755598Y-117420747D01*
X103773777Y-117437223D01*
X103790253Y-117455402D01*
X103804867Y-117475107D01*
X103817480Y-117496151D01*
X103827970Y-117518329D01*
X103836235Y-117541429D01*
X103842196Y-117565227D01*
X103845796Y-117589496D01*
X103847000Y-117614000D01*
X103847000Y-119114000D01*
X103845796Y-119138504D01*
X103842196Y-119162773D01*
X103836235Y-119186571D01*
X103827970Y-119209671D01*
X103817480Y-119231849D01*
X103804867Y-119252893D01*
X103790253Y-119272598D01*
X103773777Y-119290777D01*
X103755598Y-119307253D01*
X103735893Y-119321867D01*
X103714849Y-119334480D01*
X103692671Y-119344970D01*
X103669571Y-119353235D01*
X103645773Y-119359196D01*
X103621504Y-119362796D01*
X103597000Y-119364000D01*
X102397000Y-119364000D01*
X102372496Y-119362796D01*
X102348227Y-119359196D01*
X102324429Y-119353235D01*
X102301329Y-119344970D01*
X102279151Y-119334480D01*
X102258107Y-119321867D01*
X102238402Y-119307253D01*
X102220223Y-119290777D01*
X102203747Y-119272598D01*
X102189133Y-119252893D01*
X102176520Y-119231849D01*
X102166030Y-119209671D01*
X102157765Y-119186571D01*
X102151804Y-119162773D01*
X102148204Y-119138504D01*
X102147000Y-119114000D01*
X102147000Y-117614000D01*
X102148204Y-117589496D01*
X102151804Y-117565227D01*
X102157765Y-117541429D01*
X102166030Y-117518329D01*
X102176520Y-117496151D01*
X102189133Y-117475107D01*
X102203747Y-117455402D01*
X102220223Y-117437223D01*
X102238402Y-117420747D01*
X102258107Y-117406133D01*
X102279151Y-117393520D01*
X102301329Y-117383030D01*
X102324429Y-117374765D01*
X102348227Y-117368804D01*
X102372496Y-117365204D01*
X102397000Y-117364000D01*
X103597000Y-117364000D01*
X103621504Y-117365204D01*
X103621504Y-117365204D01*
G37*
D13*
X102997000Y-118364000D03*
G04 #@! TD*
D11*
G04 #@! TO.C,BOARD_COMM1*
X200406000Y-56508000D03*
X200406000Y-59008000D03*
X200406000Y-61508000D03*
D12*
G36*
X201155504Y-63159204D02*
X201179773Y-63162804D01*
X201203571Y-63168765D01*
X201226671Y-63177030D01*
X201248849Y-63187520D01*
X201269893Y-63200133D01*
X201289598Y-63214747D01*
X201307777Y-63231223D01*
X201324253Y-63249402D01*
X201338867Y-63269107D01*
X201351480Y-63290151D01*
X201361970Y-63312329D01*
X201370235Y-63335429D01*
X201376196Y-63359227D01*
X201379796Y-63383496D01*
X201381000Y-63408000D01*
X201381000Y-64608000D01*
X201379796Y-64632504D01*
X201376196Y-64656773D01*
X201370235Y-64680571D01*
X201361970Y-64703671D01*
X201351480Y-64725849D01*
X201338867Y-64746893D01*
X201324253Y-64766598D01*
X201307777Y-64784777D01*
X201289598Y-64801253D01*
X201269893Y-64815867D01*
X201248849Y-64828480D01*
X201226671Y-64838970D01*
X201203571Y-64847235D01*
X201179773Y-64853196D01*
X201155504Y-64856796D01*
X201131000Y-64858000D01*
X199681000Y-64858000D01*
X199656496Y-64856796D01*
X199632227Y-64853196D01*
X199608429Y-64847235D01*
X199585329Y-64838970D01*
X199563151Y-64828480D01*
X199542107Y-64815867D01*
X199522402Y-64801253D01*
X199504223Y-64784777D01*
X199487747Y-64766598D01*
X199473133Y-64746893D01*
X199460520Y-64725849D01*
X199450030Y-64703671D01*
X199441765Y-64680571D01*
X199435804Y-64656773D01*
X199432204Y-64632504D01*
X199431000Y-64608000D01*
X199431000Y-63408000D01*
X199432204Y-63383496D01*
X199435804Y-63359227D01*
X199441765Y-63335429D01*
X199450030Y-63312329D01*
X199460520Y-63290151D01*
X199473133Y-63269107D01*
X199487747Y-63249402D01*
X199504223Y-63231223D01*
X199522402Y-63214747D01*
X199542107Y-63200133D01*
X199563151Y-63187520D01*
X199585329Y-63177030D01*
X199608429Y-63168765D01*
X199632227Y-63162804D01*
X199656496Y-63159204D01*
X199681000Y-63158000D01*
X201131000Y-63158000D01*
X201155504Y-63159204D01*
X201155504Y-63159204D01*
G37*
D13*
X200406000Y-64008000D03*
G04 #@! TD*
D26*
G04 #@! TO.C,D1*
X114605000Y-74930000D03*
X111455000Y-74930000D03*
D14*
X116930000Y-74930000D03*
D23*
X109130000Y-74930000D03*
G04 #@! TD*
D26*
G04 #@! TO.C,D2*
X133655000Y-70485000D03*
X130505000Y-70485000D03*
D14*
X135980000Y-70485000D03*
D23*
X128180000Y-70485000D03*
G04 #@! TD*
D26*
G04 #@! TO.C,D3*
X152705000Y-67945000D03*
X149555000Y-67945000D03*
D14*
X155030000Y-67945000D03*
D23*
X147230000Y-67945000D03*
G04 #@! TD*
D26*
G04 #@! TO.C,D4*
X171755000Y-70485000D03*
X168605000Y-70485000D03*
D14*
X174080000Y-70485000D03*
D23*
X166280000Y-70485000D03*
G04 #@! TD*
D26*
G04 #@! TO.C,D5*
X190805000Y-72390000D03*
X187655000Y-72390000D03*
D14*
X193130000Y-72390000D03*
D23*
X185330000Y-72390000D03*
G04 #@! TD*
D26*
G04 #@! TO.C,D6*
X209855000Y-81915000D03*
X206705000Y-81915000D03*
D14*
X212180000Y-81915000D03*
D23*
X204380000Y-81915000D03*
G04 #@! TD*
D26*
G04 #@! TO.C,D10*
X93015000Y-93980000D03*
X89865000Y-93980000D03*
D14*
X95340000Y-93980000D03*
D23*
X87540000Y-93980000D03*
G04 #@! TD*
D26*
G04 #@! TO.C,D11*
X114605000Y-93980000D03*
X111455000Y-93980000D03*
D14*
X116930000Y-93980000D03*
D23*
X109130000Y-93980000D03*
G04 #@! TD*
D26*
G04 #@! TO.C,D12*
X133655000Y-89535000D03*
X130505000Y-89535000D03*
D14*
X135980000Y-89535000D03*
D23*
X128180000Y-89535000D03*
G04 #@! TD*
D26*
G04 #@! TO.C,D13*
X152705000Y-86995000D03*
X149555000Y-86995000D03*
D14*
X155030000Y-86995000D03*
D23*
X147230000Y-86995000D03*
G04 #@! TD*
D26*
G04 #@! TO.C,D14*
X171755000Y-89535000D03*
X168605000Y-89535000D03*
D14*
X174080000Y-89535000D03*
D23*
X166280000Y-89535000D03*
G04 #@! TD*
D26*
G04 #@! TO.C,D15*
X190805000Y-91440000D03*
X187655000Y-91440000D03*
D14*
X193130000Y-91440000D03*
D23*
X185330000Y-91440000D03*
G04 #@! TD*
D26*
G04 #@! TO.C,D16*
X209855000Y-89408000D03*
X206705000Y-89408000D03*
D14*
X212180000Y-89408000D03*
D23*
X204380000Y-89408000D03*
G04 #@! TD*
D26*
G04 #@! TO.C,D20*
X93015000Y-113030000D03*
X89865000Y-113030000D03*
D14*
X95340000Y-113030000D03*
D23*
X87540000Y-113030000D03*
G04 #@! TD*
D26*
G04 #@! TO.C,D21*
X114605000Y-113030000D03*
X111455000Y-113030000D03*
D14*
X116930000Y-113030000D03*
D23*
X109130000Y-113030000D03*
G04 #@! TD*
D26*
G04 #@! TO.C,D22*
X133655000Y-108585000D03*
X130505000Y-108585000D03*
D14*
X135980000Y-108585000D03*
D23*
X128180000Y-108585000D03*
G04 #@! TD*
D26*
G04 #@! TO.C,D23*
X152705000Y-106045000D03*
X149555000Y-106045000D03*
D14*
X155030000Y-106045000D03*
D23*
X147230000Y-106045000D03*
G04 #@! TD*
D26*
G04 #@! TO.C,D24*
X171755000Y-108585000D03*
X168605000Y-108585000D03*
D14*
X174080000Y-108585000D03*
D23*
X166280000Y-108585000D03*
G04 #@! TD*
D26*
G04 #@! TO.C,D25*
X190805000Y-110490000D03*
X187655000Y-110490000D03*
D14*
X193130000Y-110490000D03*
D23*
X185330000Y-110490000D03*
G04 #@! TD*
D27*
G04 #@! TO.C,D26*
X209008990Y-135407500D03*
D12*
G36*
X209828605Y-135187885D02*
X209228605Y-136227115D01*
X208189375Y-135627115D01*
X208789375Y-134587885D01*
X209828605Y-135187885D01*
X209828605Y-135187885D01*
G37*
D27*
X206281010Y-133832500D03*
D12*
G36*
X207100625Y-133612885D02*
X206500625Y-134652115D01*
X205461395Y-134052115D01*
X206061395Y-133012885D01*
X207100625Y-133612885D01*
X207100625Y-133612885D01*
G37*
D14*
X211022499Y-136570000D03*
X204267501Y-132670000D03*
D12*
G36*
X205360321Y-132377180D02*
X204560321Y-133762820D01*
X203174681Y-132962820D01*
X203974681Y-131577180D01*
X205360321Y-132377180D01*
X205360321Y-132377180D01*
G37*
G04 #@! TD*
D26*
G04 #@! TO.C,D30*
X93015000Y-132080000D03*
X89865000Y-132080000D03*
D14*
X95340000Y-132080000D03*
D23*
X87540000Y-132080000D03*
G04 #@! TD*
D26*
G04 #@! TO.C,D31*
X114605000Y-132080000D03*
X111455000Y-132080000D03*
D14*
X116930000Y-132080000D03*
D23*
X109130000Y-132080000D03*
G04 #@! TD*
D26*
G04 #@! TO.C,D32*
X133655000Y-127635000D03*
X130505000Y-127635000D03*
D14*
X135980000Y-127635000D03*
D23*
X128180000Y-127635000D03*
G04 #@! TD*
D26*
G04 #@! TO.C,D33*
X152705000Y-125095000D03*
X149555000Y-125095000D03*
D14*
X155030000Y-125095000D03*
D23*
X147230000Y-125095000D03*
G04 #@! TD*
D26*
G04 #@! TO.C,D34*
X171755000Y-127635000D03*
X168605000Y-127635000D03*
D14*
X174080000Y-127635000D03*
D23*
X166280000Y-127635000D03*
G04 #@! TD*
D26*
G04 #@! TO.C,D35*
X190805000Y-129540000D03*
X187655000Y-129540000D03*
D14*
X193130000Y-129540000D03*
D23*
X185330000Y-129540000D03*
G04 #@! TD*
D27*
G04 #@! TO.C,D36*
X225518990Y-144932500D03*
D12*
G36*
X226338605Y-144712885D02*
X225738605Y-145752115D01*
X224699375Y-145152115D01*
X225299375Y-144112885D01*
X226338605Y-144712885D01*
X226338605Y-144712885D01*
G37*
D27*
X222791010Y-143357500D03*
D12*
G36*
X223610625Y-143137885D02*
X223010625Y-144177115D01*
X221971395Y-143577115D01*
X222571395Y-142537885D01*
X223610625Y-143137885D01*
X223610625Y-143137885D01*
G37*
D14*
X227532499Y-146095000D03*
X220777501Y-142195000D03*
D12*
G36*
X221870321Y-141902180D02*
X221070321Y-143287820D01*
X219684681Y-142487820D01*
X220484681Y-141102180D01*
X221870321Y-141902180D01*
X221870321Y-141902180D01*
G37*
G04 #@! TD*
D26*
G04 #@! TO.C,D40*
X104140000Y-141046000D03*
X104140000Y-144196000D03*
D14*
X104140000Y-138721000D03*
D23*
X104140000Y-146521000D03*
G04 #@! TD*
D26*
G04 #@! TO.C,D41*
X123190000Y-140233000D03*
X123190000Y-143383000D03*
D14*
X123190000Y-137908000D03*
D23*
X123190000Y-145708000D03*
G04 #@! TD*
D26*
G04 #@! TO.C,D42*
X142240000Y-135712000D03*
X142240000Y-138862000D03*
D14*
X142240000Y-133387000D03*
D23*
X142240000Y-141187000D03*
G04 #@! TD*
D26*
G04 #@! TO.C,D43*
X161798000Y-134442000D03*
X161798000Y-137592000D03*
D14*
X161798000Y-132117000D03*
D23*
X161798000Y-139917000D03*
G04 #@! TD*
D27*
G04 #@! TO.C,D44*
X187732640Y-142750667D03*
D12*
G36*
X187308376Y-142015820D02*
X188467487Y-142326403D01*
X188156904Y-143485514D01*
X186997793Y-143174931D01*
X187308376Y-142015820D01*
X187308376Y-142015820D01*
G37*
D27*
X186917360Y-145793333D03*
D12*
G36*
X186493096Y-145058486D02*
X187652207Y-145369069D01*
X187341624Y-146528180D01*
X186182513Y-146217597D01*
X186493096Y-145058486D01*
X186493096Y-145058486D01*
G37*
D14*
X188334394Y-140504889D03*
X186315606Y-148039111D03*
D12*
G36*
X185749921Y-147059315D02*
X187295402Y-147473426D01*
X186881291Y-149018907D01*
X185335810Y-148604796D01*
X185749921Y-147059315D01*
X185749921Y-147059315D01*
G37*
G04 #@! TD*
D27*
G04 #@! TO.C,D45*
X196689990Y-156743500D03*
D12*
G36*
X197509605Y-156523885D02*
X196909605Y-157563115D01*
X195870375Y-156963115D01*
X196470375Y-155923885D01*
X197509605Y-156523885D01*
X197509605Y-156523885D01*
G37*
D27*
X193962010Y-155168500D03*
D12*
G36*
X194781625Y-154948885D02*
X194181625Y-155988115D01*
X193142395Y-155388115D01*
X193742395Y-154348885D01*
X194781625Y-154948885D01*
X194781625Y-154948885D01*
G37*
D14*
X198703499Y-157906000D03*
X191948501Y-154006000D03*
D12*
G36*
X193041321Y-153713180D02*
X192241321Y-155098820D01*
X190855681Y-154298820D01*
X191655681Y-152913180D01*
X193041321Y-153713180D01*
X193041321Y-153713180D01*
G37*
G04 #@! TD*
D27*
G04 #@! TO.C,D46*
X213453990Y-166395500D03*
D12*
G36*
X214273605Y-166175885D02*
X213673605Y-167215115D01*
X212634375Y-166615115D01*
X213234375Y-165575885D01*
X214273605Y-166175885D01*
X214273605Y-166175885D01*
G37*
D27*
X210726010Y-164820500D03*
D12*
G36*
X211545625Y-164600885D02*
X210945625Y-165640115D01*
X209906395Y-165040115D01*
X210506395Y-164000885D01*
X211545625Y-164600885D01*
X211545625Y-164600885D01*
G37*
D14*
X215467499Y-167558000D03*
X208712501Y-163658000D03*
D12*
G36*
X209805321Y-163365180D02*
X209005321Y-164750820D01*
X207619681Y-163950820D01*
X208419681Y-162565180D01*
X209805321Y-163365180D01*
X209805321Y-163365180D01*
G37*
G04 #@! TD*
D14*
G04 #@! TO.C,R1*
X186145000Y-54610000D03*
X178345000Y-54610000D03*
G04 #@! TD*
G04 #@! TO.C,R2*
X196940000Y-54610000D03*
X189140000Y-54610000D03*
G04 #@! TD*
M02*
