G04 #@! TF.GenerationSoftware,KiCad,Pcbnew,(5.0.0)*
G04 #@! TF.CreationDate,2020-07-01T14:19:43-04:00*
G04 #@! TF.ProjectId,redox_rev1,7265646F785F726576312E6B69636164,1.0*
G04 #@! TF.SameCoordinates,Original*
G04 #@! TF.FileFunction,Legend,Top*
G04 #@! TF.FilePolarity,Positive*
%FSLAX46Y46*%
G04 Gerber Fmt 4.6, Leading zero omitted, Abs format (unit mm)*
G04 Created by KiCad (PCBNEW (5.0.0)) date 07/01/20 14:19:43*
%MOMM*%
%LPD*%
G01*
G04 APERTURE LIST*
%ADD10C,0.150000*%
%ADD11C,0.300000*%
%ADD12C,0.120000*%
%ADD13C,0.381000*%
%ADD14C,0.100000*%
G04 APERTURE END LIST*
D10*
X199073809Y-62452380D02*
X199111904Y-62338095D01*
X199111904Y-62147619D01*
X199073809Y-62071428D01*
X199035714Y-62033333D01*
X198959523Y-61995238D01*
X198883333Y-61995238D01*
X198807142Y-62033333D01*
X198769047Y-62071428D01*
X198730952Y-62147619D01*
X198692857Y-62300000D01*
X198654761Y-62376190D01*
X198616666Y-62414285D01*
X198540476Y-62452380D01*
X198464285Y-62452380D01*
X198388095Y-62414285D01*
X198350000Y-62376190D01*
X198311904Y-62300000D01*
X198311904Y-62109523D01*
X198350000Y-61995238D01*
X199035714Y-61195238D02*
X199073809Y-61233333D01*
X199111904Y-61347619D01*
X199111904Y-61423809D01*
X199073809Y-61538095D01*
X198997619Y-61614285D01*
X198921428Y-61652380D01*
X198769047Y-61690476D01*
X198654761Y-61690476D01*
X198502380Y-61652380D01*
X198426190Y-61614285D01*
X198350000Y-61538095D01*
X198311904Y-61423809D01*
X198311904Y-61347619D01*
X198350000Y-61233333D01*
X198388095Y-61195238D01*
X199111904Y-60471428D02*
X199111904Y-60852380D01*
X198311904Y-60852380D01*
X199073809Y-59971428D02*
X199111904Y-59857142D01*
X199111904Y-59666666D01*
X199073809Y-59590476D01*
X199035714Y-59552380D01*
X198959523Y-59514285D01*
X198883333Y-59514285D01*
X198807142Y-59552380D01*
X198769047Y-59590476D01*
X198730952Y-59666666D01*
X198692857Y-59819047D01*
X198654761Y-59895238D01*
X198616666Y-59933333D01*
X198540476Y-59971428D01*
X198464285Y-59971428D01*
X198388095Y-59933333D01*
X198350000Y-59895238D01*
X198311904Y-59819047D01*
X198311904Y-59628571D01*
X198350000Y-59514285D01*
X199111904Y-59171428D02*
X198311904Y-59171428D01*
X198311904Y-58980952D01*
X198350000Y-58866666D01*
X198426190Y-58790476D01*
X198502380Y-58752380D01*
X198654761Y-58714285D01*
X198769047Y-58714285D01*
X198921428Y-58752380D01*
X198997619Y-58790476D01*
X199073809Y-58866666D01*
X199111904Y-58980952D01*
X199111904Y-59171428D01*
X198883333Y-58409523D02*
X198883333Y-58028571D01*
X199111904Y-58485714D02*
X198311904Y-58219047D01*
X199111904Y-57952380D01*
X199890476Y-54350000D02*
X199814285Y-54311904D01*
X199700000Y-54311904D01*
X199585714Y-54350000D01*
X199509523Y-54426190D01*
X199471428Y-54502380D01*
X199433333Y-54654761D01*
X199433333Y-54769047D01*
X199471428Y-54921428D01*
X199509523Y-54997619D01*
X199585714Y-55073809D01*
X199700000Y-55111904D01*
X199776190Y-55111904D01*
X199890476Y-55073809D01*
X199928571Y-55035714D01*
X199928571Y-54769047D01*
X199776190Y-54769047D01*
X200271428Y-55111904D02*
X200271428Y-54311904D01*
X200728571Y-55111904D01*
X200728571Y-54311904D01*
X201109523Y-55111904D02*
X201109523Y-54311904D01*
X201300000Y-54311904D01*
X201414285Y-54350000D01*
X201490476Y-54426190D01*
X201528571Y-54502380D01*
X201566666Y-54654761D01*
X201566666Y-54769047D01*
X201528571Y-54921428D01*
X201490476Y-54997619D01*
X201414285Y-55073809D01*
X201300000Y-55111904D01*
X201109523Y-55111904D01*
X199183333Y-65311904D02*
X199450000Y-66111904D01*
X199716666Y-65311904D01*
X200440476Y-66035714D02*
X200402380Y-66073809D01*
X200288095Y-66111904D01*
X200211904Y-66111904D01*
X200097619Y-66073809D01*
X200021428Y-65997619D01*
X199983333Y-65921428D01*
X199945238Y-65769047D01*
X199945238Y-65654761D01*
X199983333Y-65502380D01*
X200021428Y-65426190D01*
X200097619Y-65350000D01*
X200211904Y-65311904D01*
X200288095Y-65311904D01*
X200402380Y-65350000D01*
X200440476Y-65388095D01*
X201240476Y-66035714D02*
X201202380Y-66073809D01*
X201088095Y-66111904D01*
X201011904Y-66111904D01*
X200897619Y-66073809D01*
X200821428Y-65997619D01*
X200783333Y-65921428D01*
X200745238Y-65769047D01*
X200745238Y-65654761D01*
X200783333Y-65502380D01*
X200821428Y-65426190D01*
X200897619Y-65350000D01*
X201011904Y-65311904D01*
X201088095Y-65311904D01*
X201202380Y-65350000D01*
X201240476Y-65388095D01*
X216561904Y-113550000D02*
X216561904Y-113397619D01*
X216600000Y-113321428D01*
X216676190Y-113245238D01*
X216828571Y-113207142D01*
X217095238Y-113207142D01*
X217247619Y-113245238D01*
X217323809Y-113321428D01*
X217361904Y-113397619D01*
X217361904Y-113550000D01*
X217323809Y-113626190D01*
X217247619Y-113702380D01*
X217095238Y-113740476D01*
X216828571Y-113740476D01*
X216676190Y-113702380D01*
X216600000Y-113626190D01*
X216561904Y-113550000D01*
X216561904Y-112864285D02*
X217209523Y-112864285D01*
X217285714Y-112826190D01*
X217323809Y-112788095D01*
X217361904Y-112711904D01*
X217361904Y-112559523D01*
X217323809Y-112483333D01*
X217285714Y-112445238D01*
X217209523Y-112407142D01*
X216561904Y-112407142D01*
X216561904Y-112140476D02*
X216561904Y-111683333D01*
X217361904Y-111911904D02*
X216561904Y-111911904D01*
X217361904Y-110919047D02*
X216561904Y-110919047D01*
X217361904Y-110538095D02*
X216561904Y-110538095D01*
X217361904Y-110080952D01*
X216561904Y-110080952D01*
X216600000Y-115859523D02*
X216561904Y-115935714D01*
X216561904Y-116050000D01*
X216600000Y-116164285D01*
X216676190Y-116240476D01*
X216752380Y-116278571D01*
X216904761Y-116316666D01*
X217019047Y-116316666D01*
X217171428Y-116278571D01*
X217247619Y-116240476D01*
X217323809Y-116164285D01*
X217361904Y-116050000D01*
X217361904Y-115973809D01*
X217323809Y-115859523D01*
X217285714Y-115821428D01*
X217019047Y-115821428D01*
X217019047Y-115973809D01*
X217361904Y-115478571D02*
X216561904Y-115478571D01*
X217361904Y-115021428D01*
X216561904Y-115021428D01*
X217361904Y-114640476D02*
X216561904Y-114640476D01*
X216561904Y-114450000D01*
X216600000Y-114335714D01*
X216676190Y-114259523D01*
X216752380Y-114221428D01*
X216904761Y-114183333D01*
X217019047Y-114183333D01*
X217171428Y-114221428D01*
X217247619Y-114259523D01*
X217323809Y-114335714D01*
X217361904Y-114450000D01*
X217361904Y-114640476D01*
X203390476Y-115600000D02*
X203314285Y-115561904D01*
X203200000Y-115561904D01*
X203085714Y-115600000D01*
X203009523Y-115676190D01*
X202971428Y-115752380D01*
X202933333Y-115904761D01*
X202933333Y-116019047D01*
X202971428Y-116171428D01*
X203009523Y-116247619D01*
X203085714Y-116323809D01*
X203200000Y-116361904D01*
X203276190Y-116361904D01*
X203390476Y-116323809D01*
X203428571Y-116285714D01*
X203428571Y-116019047D01*
X203276190Y-116019047D01*
X203771428Y-116361904D02*
X203771428Y-115561904D01*
X204228571Y-116361904D01*
X204228571Y-115561904D01*
X204609523Y-116361904D02*
X204609523Y-115561904D01*
X204800000Y-115561904D01*
X204914285Y-115600000D01*
X204990476Y-115676190D01*
X205028571Y-115752380D01*
X205066666Y-115904761D01*
X205066666Y-116019047D01*
X205028571Y-116171428D01*
X204990476Y-116247619D01*
X204914285Y-116323809D01*
X204800000Y-116361904D01*
X204609523Y-116361904D01*
X213933333Y-105811904D02*
X214200000Y-106611904D01*
X214466666Y-105811904D01*
X215190476Y-106535714D02*
X215152380Y-106573809D01*
X215038095Y-106611904D01*
X214961904Y-106611904D01*
X214847619Y-106573809D01*
X214771428Y-106497619D01*
X214733333Y-106421428D01*
X214695238Y-106269047D01*
X214695238Y-106154761D01*
X214733333Y-106002380D01*
X214771428Y-105926190D01*
X214847619Y-105850000D01*
X214961904Y-105811904D01*
X215038095Y-105811904D01*
X215152380Y-105850000D01*
X215190476Y-105888095D01*
X215990476Y-106535714D02*
X215952380Y-106573809D01*
X215838095Y-106611904D01*
X215761904Y-106611904D01*
X215647619Y-106573809D01*
X215571428Y-106497619D01*
X215533333Y-106421428D01*
X215495238Y-106269047D01*
X215495238Y-106154761D01*
X215533333Y-106002380D01*
X215571428Y-105926190D01*
X215647619Y-105850000D01*
X215761904Y-105811904D01*
X215838095Y-105811904D01*
X215952380Y-105850000D01*
X215990476Y-105888095D01*
X202933333Y-107061904D02*
X203200000Y-107861904D01*
X203466666Y-107061904D01*
X204190476Y-107785714D02*
X204152380Y-107823809D01*
X204038095Y-107861904D01*
X203961904Y-107861904D01*
X203847619Y-107823809D01*
X203771428Y-107747619D01*
X203733333Y-107671428D01*
X203695238Y-107519047D01*
X203695238Y-107404761D01*
X203733333Y-107252380D01*
X203771428Y-107176190D01*
X203847619Y-107100000D01*
X203961904Y-107061904D01*
X204038095Y-107061904D01*
X204152380Y-107100000D01*
X204190476Y-107138095D01*
X204990476Y-107785714D02*
X204952380Y-107823809D01*
X204838095Y-107861904D01*
X204761904Y-107861904D01*
X204647619Y-107823809D01*
X204571428Y-107747619D01*
X204533333Y-107671428D01*
X204495238Y-107519047D01*
X204495238Y-107404761D01*
X204533333Y-107252380D01*
X204571428Y-107176190D01*
X204647619Y-107100000D01*
X204761904Y-107061904D01*
X204838095Y-107061904D01*
X204952380Y-107100000D01*
X204990476Y-107138095D01*
D11*
X94949285Y-58463571D02*
X94449285Y-57749285D01*
X94092142Y-58463571D02*
X94092142Y-56963571D01*
X94663571Y-56963571D01*
X94806428Y-57035000D01*
X94877857Y-57106428D01*
X94949285Y-57249285D01*
X94949285Y-57463571D01*
X94877857Y-57606428D01*
X94806428Y-57677857D01*
X94663571Y-57749285D01*
X94092142Y-57749285D01*
X96163571Y-58392142D02*
X96020714Y-58463571D01*
X95735000Y-58463571D01*
X95592142Y-58392142D01*
X95520714Y-58249285D01*
X95520714Y-57677857D01*
X95592142Y-57535000D01*
X95735000Y-57463571D01*
X96020714Y-57463571D01*
X96163571Y-57535000D01*
X96235000Y-57677857D01*
X96235000Y-57820714D01*
X95520714Y-57963571D01*
X97520714Y-58463571D02*
X97520714Y-56963571D01*
X97520714Y-58392142D02*
X97377857Y-58463571D01*
X97092142Y-58463571D01*
X96949285Y-58392142D01*
X96877857Y-58320714D01*
X96806428Y-58177857D01*
X96806428Y-57749285D01*
X96877857Y-57606428D01*
X96949285Y-57535000D01*
X97092142Y-57463571D01*
X97377857Y-57463571D01*
X97520714Y-57535000D01*
X98449285Y-58463571D02*
X98306428Y-58392142D01*
X98235000Y-58320714D01*
X98163571Y-58177857D01*
X98163571Y-57749285D01*
X98235000Y-57606428D01*
X98306428Y-57535000D01*
X98449285Y-57463571D01*
X98663571Y-57463571D01*
X98806428Y-57535000D01*
X98877857Y-57606428D01*
X98949285Y-57749285D01*
X98949285Y-58177857D01*
X98877857Y-58320714D01*
X98806428Y-58392142D01*
X98663571Y-58463571D01*
X98449285Y-58463571D01*
X99449285Y-58463571D02*
X100235000Y-57463571D01*
X99449285Y-57463571D02*
X100235000Y-58463571D01*
X101806428Y-57463571D02*
X102163571Y-58463571D01*
X102520714Y-57463571D01*
X103877857Y-58463571D02*
X103020714Y-58463571D01*
X103449285Y-58463571D02*
X103449285Y-56963571D01*
X103306428Y-57177857D01*
X103163571Y-57320714D01*
X103020714Y-57392142D01*
X104520714Y-58320714D02*
X104592142Y-58392142D01*
X104520714Y-58463571D01*
X104449285Y-58392142D01*
X104520714Y-58320714D01*
X104520714Y-58463571D01*
X106020714Y-58463571D02*
X105163571Y-58463571D01*
X105592142Y-58463571D02*
X105592142Y-56963571D01*
X105449285Y-57177857D01*
X105306428Y-57320714D01*
X105163571Y-57392142D01*
X106663571Y-57892142D02*
X107806428Y-57892142D01*
X108520714Y-58463571D02*
X108520714Y-56963571D01*
X108663571Y-57892142D02*
X109092142Y-58463571D01*
X109092142Y-57463571D02*
X108520714Y-58035000D01*
X109735000Y-58463571D02*
X109735000Y-56963571D01*
X109735000Y-57535000D02*
X109877857Y-57463571D01*
X110163571Y-57463571D01*
X110306428Y-57535000D01*
X110377857Y-57606428D01*
X110449285Y-57749285D01*
X110449285Y-58177857D01*
X110377857Y-58320714D01*
X110306428Y-58392142D01*
X110163571Y-58463571D01*
X109877857Y-58463571D01*
X109735000Y-58392142D01*
X123082857Y-125779000D02*
X123154285Y-125564714D01*
X123225714Y-125493285D01*
X123368571Y-125421857D01*
X123582857Y-125421857D01*
X123725714Y-125493285D01*
X123797142Y-125564714D01*
X123868571Y-125707571D01*
X123868571Y-126279000D01*
X122368571Y-126279000D01*
X122368571Y-125779000D01*
X122440000Y-125636142D01*
X122511428Y-125564714D01*
X122654285Y-125493285D01*
X122797142Y-125493285D01*
X122940000Y-125564714D01*
X123011428Y-125636142D01*
X123082857Y-125779000D01*
X123082857Y-126279000D01*
X123868571Y-124136142D02*
X123082857Y-124136142D01*
X122940000Y-124207571D01*
X122868571Y-124350428D01*
X122868571Y-124636142D01*
X122940000Y-124779000D01*
X123797142Y-124136142D02*
X123868571Y-124279000D01*
X123868571Y-124636142D01*
X123797142Y-124779000D01*
X123654285Y-124850428D01*
X123511428Y-124850428D01*
X123368571Y-124779000D01*
X123297142Y-124636142D01*
X123297142Y-124279000D01*
X123225714Y-124136142D01*
X123797142Y-123493285D02*
X123868571Y-123350428D01*
X123868571Y-123064714D01*
X123797142Y-122921857D01*
X123654285Y-122850428D01*
X123582857Y-122850428D01*
X123440000Y-122921857D01*
X123368571Y-123064714D01*
X123368571Y-123279000D01*
X123297142Y-123421857D01*
X123154285Y-123493285D01*
X123082857Y-123493285D01*
X122940000Y-123421857D01*
X122868571Y-123279000D01*
X122868571Y-123064714D01*
X122940000Y-122921857D01*
X123797142Y-121636142D02*
X123868571Y-121779000D01*
X123868571Y-122064714D01*
X123797142Y-122207571D01*
X123654285Y-122279000D01*
X123082857Y-122279000D01*
X122940000Y-122207571D01*
X122868571Y-122064714D01*
X122868571Y-121779000D01*
X122940000Y-121636142D01*
X123082857Y-121564714D01*
X123225714Y-121564714D01*
X123368571Y-122279000D01*
X123868571Y-120279000D02*
X122368571Y-120279000D01*
X123797142Y-120279000D02*
X123868571Y-120421857D01*
X123868571Y-120707571D01*
X123797142Y-120850428D01*
X123725714Y-120921857D01*
X123582857Y-120993285D01*
X123154285Y-120993285D01*
X123011428Y-120921857D01*
X122940000Y-120850428D01*
X122868571Y-120707571D01*
X122868571Y-120421857D01*
X122940000Y-120279000D01*
X123868571Y-118207571D02*
X123797142Y-118350428D01*
X123725714Y-118421857D01*
X123582857Y-118493285D01*
X123154285Y-118493285D01*
X123011428Y-118421857D01*
X122940000Y-118350428D01*
X122868571Y-118207571D01*
X122868571Y-117993285D01*
X122940000Y-117850428D01*
X123011428Y-117779000D01*
X123154285Y-117707571D01*
X123582857Y-117707571D01*
X123725714Y-117779000D01*
X123797142Y-117850428D01*
X123868571Y-117993285D01*
X123868571Y-118207571D01*
X122868571Y-117064714D02*
X123868571Y-117064714D01*
X123011428Y-117064714D02*
X122940000Y-116993285D01*
X122868571Y-116850428D01*
X122868571Y-116636142D01*
X122940000Y-116493285D01*
X123082857Y-116421857D01*
X123868571Y-116421857D01*
X123868571Y-113921857D02*
X123082857Y-113921857D01*
X122940000Y-113993285D01*
X122868571Y-114136142D01*
X122868571Y-114421857D01*
X122940000Y-114564714D01*
X123797142Y-113921857D02*
X123868571Y-114064714D01*
X123868571Y-114421857D01*
X123797142Y-114564714D01*
X123654285Y-114636142D01*
X123511428Y-114636142D01*
X123368571Y-114564714D01*
X123297142Y-114421857D01*
X123297142Y-114064714D01*
X123225714Y-113921857D01*
X123868571Y-111421857D02*
X122368571Y-111421857D01*
X123797142Y-111421857D02*
X123868571Y-111564714D01*
X123868571Y-111850428D01*
X123797142Y-111993285D01*
X123725714Y-112064714D01*
X123582857Y-112136142D01*
X123154285Y-112136142D01*
X123011428Y-112064714D01*
X122940000Y-111993285D01*
X122868571Y-111850428D01*
X122868571Y-111564714D01*
X122940000Y-111421857D01*
X123797142Y-110136142D02*
X123868571Y-110279000D01*
X123868571Y-110564714D01*
X123797142Y-110707571D01*
X123654285Y-110779000D01*
X123082857Y-110779000D01*
X122940000Y-110707571D01*
X122868571Y-110564714D01*
X122868571Y-110279000D01*
X122940000Y-110136142D01*
X123082857Y-110064714D01*
X123225714Y-110064714D01*
X123368571Y-110779000D01*
X123797142Y-109493285D02*
X123868571Y-109350428D01*
X123868571Y-109064714D01*
X123797142Y-108921857D01*
X123654285Y-108850428D01*
X123582857Y-108850428D01*
X123440000Y-108921857D01*
X123368571Y-109064714D01*
X123368571Y-109279000D01*
X123297142Y-109421857D01*
X123154285Y-109493285D01*
X123082857Y-109493285D01*
X122940000Y-109421857D01*
X122868571Y-109279000D01*
X122868571Y-109064714D01*
X122940000Y-108921857D01*
X123868571Y-108207571D02*
X122868571Y-108207571D01*
X122368571Y-108207571D02*
X122440000Y-108279000D01*
X122511428Y-108207571D01*
X122440000Y-108136142D01*
X122368571Y-108207571D01*
X122511428Y-108207571D01*
X122868571Y-106850428D02*
X124082857Y-106850428D01*
X124225714Y-106921857D01*
X124297142Y-106993285D01*
X124368571Y-107136142D01*
X124368571Y-107350428D01*
X124297142Y-107493285D01*
X123797142Y-106850428D02*
X123868571Y-106993285D01*
X123868571Y-107279000D01*
X123797142Y-107421857D01*
X123725714Y-107493285D01*
X123582857Y-107564714D01*
X123154285Y-107564714D01*
X123011428Y-107493285D01*
X122940000Y-107421857D01*
X122868571Y-107279000D01*
X122868571Y-106993285D01*
X122940000Y-106850428D01*
X122868571Y-106136142D02*
X123868571Y-106136142D01*
X123011428Y-106136142D02*
X122940000Y-106064714D01*
X122868571Y-105921857D01*
X122868571Y-105707571D01*
X122940000Y-105564714D01*
X123082857Y-105493285D01*
X123868571Y-105493285D01*
X123868571Y-103636142D02*
X122368571Y-103636142D01*
X122940000Y-103636142D02*
X122868571Y-103493285D01*
X122868571Y-103207571D01*
X122940000Y-103064714D01*
X123011428Y-102993285D01*
X123154285Y-102921857D01*
X123582857Y-102921857D01*
X123725714Y-102993285D01*
X123797142Y-103064714D01*
X123868571Y-103207571D01*
X123868571Y-103493285D01*
X123797142Y-103636142D01*
X122868571Y-102421857D02*
X123868571Y-102064714D01*
X122868571Y-101707571D02*
X123868571Y-102064714D01*
X124225714Y-102207571D01*
X124297142Y-102279000D01*
X124368571Y-102421857D01*
X123868571Y-99993285D02*
X122368571Y-99993285D01*
X123440000Y-99493285D01*
X122368571Y-98993285D01*
X123868571Y-98993285D01*
X123868571Y-97636142D02*
X123082857Y-97636142D01*
X122940000Y-97707571D01*
X122868571Y-97850428D01*
X122868571Y-98136142D01*
X122940000Y-98279000D01*
X123797142Y-97636142D02*
X123868571Y-97779000D01*
X123868571Y-98136142D01*
X123797142Y-98279000D01*
X123654285Y-98350428D01*
X123511428Y-98350428D01*
X123368571Y-98279000D01*
X123297142Y-98136142D01*
X123297142Y-97779000D01*
X123225714Y-97636142D01*
X122868571Y-97136142D02*
X122868571Y-96564714D01*
X122368571Y-96921857D02*
X123654285Y-96921857D01*
X123797142Y-96850428D01*
X123868571Y-96707571D01*
X123868571Y-96564714D01*
X122868571Y-96279000D02*
X122868571Y-95707571D01*
X122368571Y-96064714D02*
X123654285Y-96064714D01*
X123797142Y-95993285D01*
X123868571Y-95850428D01*
X123868571Y-95707571D01*
X123868571Y-95207571D02*
X122868571Y-95207571D01*
X122368571Y-95207571D02*
X122440000Y-95279000D01*
X122511428Y-95207571D01*
X122440000Y-95136142D01*
X122368571Y-95207571D01*
X122511428Y-95207571D01*
X123868571Y-93850428D02*
X123082857Y-93850428D01*
X122940000Y-93921857D01*
X122868571Y-94064714D01*
X122868571Y-94350428D01*
X122940000Y-94493285D01*
X123797142Y-93850428D02*
X123868571Y-93993285D01*
X123868571Y-94350428D01*
X123797142Y-94493285D01*
X123654285Y-94564714D01*
X123511428Y-94564714D01*
X123368571Y-94493285D01*
X123297142Y-94350428D01*
X123297142Y-93993285D01*
X123225714Y-93850428D01*
X123868571Y-91993285D02*
X122368571Y-91993285D01*
X122368571Y-91636142D01*
X122440000Y-91421857D01*
X122582857Y-91279000D01*
X122725714Y-91207571D01*
X123011428Y-91136142D01*
X123225714Y-91136142D01*
X123511428Y-91207571D01*
X123654285Y-91279000D01*
X123797142Y-91421857D01*
X123868571Y-91636142D01*
X123868571Y-91993285D01*
X123868571Y-89850428D02*
X123082857Y-89850428D01*
X122940000Y-89921857D01*
X122868571Y-90064714D01*
X122868571Y-90350428D01*
X122940000Y-90493285D01*
X123797142Y-89850428D02*
X123868571Y-89993285D01*
X123868571Y-90350428D01*
X123797142Y-90493285D01*
X123654285Y-90564714D01*
X123511428Y-90564714D01*
X123368571Y-90493285D01*
X123297142Y-90350428D01*
X123297142Y-89993285D01*
X123225714Y-89850428D01*
X123868571Y-88921857D02*
X123797142Y-89064714D01*
X123654285Y-89136142D01*
X122368571Y-89136142D01*
X123082857Y-86707571D02*
X123154285Y-86493285D01*
X123225714Y-86421857D01*
X123368571Y-86350428D01*
X123582857Y-86350428D01*
X123725714Y-86421857D01*
X123797142Y-86493285D01*
X123868571Y-86636142D01*
X123868571Y-87207571D01*
X122368571Y-87207571D01*
X122368571Y-86707571D01*
X122440000Y-86564714D01*
X122511428Y-86493285D01*
X122654285Y-86421857D01*
X122797142Y-86421857D01*
X122940000Y-86493285D01*
X123011428Y-86564714D01*
X123082857Y-86707571D01*
X123082857Y-87207571D01*
X123797142Y-85136142D02*
X123868571Y-85279000D01*
X123868571Y-85564714D01*
X123797142Y-85707571D01*
X123654285Y-85779000D01*
X123082857Y-85779000D01*
X122940000Y-85707571D01*
X122868571Y-85564714D01*
X122868571Y-85279000D01*
X122940000Y-85136142D01*
X123082857Y-85064714D01*
X123225714Y-85064714D01*
X123368571Y-85779000D01*
X122868571Y-84421857D02*
X123868571Y-84421857D01*
X123011428Y-84421857D02*
X122940000Y-84350428D01*
X122868571Y-84207571D01*
X122868571Y-83993285D01*
X122940000Y-83850428D01*
X123082857Y-83779000D01*
X123868571Y-83779000D01*
D12*
G04 #@! TO.C,STATUS_LEDS1*
X205828000Y-111700000D02*
X205828000Y-105390000D01*
X205828000Y-105390000D02*
X217548000Y-105390000D01*
X217548000Y-105390000D02*
X217548000Y-106810000D01*
X217548000Y-106810000D02*
X213048000Y-106810000D01*
X213048000Y-106810000D02*
X213048000Y-111700000D01*
X205828000Y-111700000D02*
X205828000Y-118010000D01*
X205828000Y-118010000D02*
X217548000Y-118010000D01*
X217548000Y-118010000D02*
X217548000Y-116590000D01*
X217548000Y-116590000D02*
X213048000Y-116590000D01*
X213048000Y-116590000D02*
X213048000Y-111700000D01*
X211938000Y-107700000D02*
X206438000Y-107700000D01*
X206438000Y-107700000D02*
X206438000Y-108200000D01*
X206438000Y-108200000D02*
X211938000Y-108200000D01*
X211938000Y-108200000D02*
X211938000Y-107700000D01*
X211938000Y-110200000D02*
X206438000Y-110200000D01*
X206438000Y-110200000D02*
X206438000Y-110700000D01*
X206438000Y-110700000D02*
X211938000Y-110700000D01*
X211938000Y-110700000D02*
X211938000Y-110200000D01*
X211938000Y-112700000D02*
X206438000Y-112700000D01*
X206438000Y-112700000D02*
X206438000Y-113200000D01*
X206438000Y-113200000D02*
X211938000Y-113200000D01*
X211938000Y-113200000D02*
X211938000Y-112700000D01*
X211938000Y-115200000D02*
X206438000Y-115200000D01*
X206438000Y-115200000D02*
X206438000Y-115700000D01*
X206438000Y-115700000D02*
X211938000Y-115700000D01*
X211938000Y-115700000D02*
X211938000Y-115200000D01*
X216638000Y-107950000D02*
X217238000Y-107650000D01*
X217238000Y-107650000D02*
X217238000Y-108250000D01*
X217238000Y-108250000D02*
X216638000Y-107950000D01*
D10*
G04 #@! TO.C,R3*
X199136000Y-90170000D02*
X199136000Y-89662000D01*
X199136000Y-96266000D02*
X199136000Y-95758000D01*
X199898000Y-95758000D02*
X198374000Y-95758000D01*
X200152000Y-95504000D02*
X199898000Y-95758000D01*
X200152000Y-95250000D02*
X200152000Y-95504000D01*
X199898000Y-94996000D02*
X200152000Y-95250000D01*
X199898000Y-90932000D02*
X199898000Y-94996000D01*
X200152000Y-90678000D02*
X199898000Y-90932000D01*
X200152000Y-90424000D02*
X200152000Y-90678000D01*
X199898000Y-90170000D02*
X200152000Y-90424000D01*
X198374000Y-90170000D02*
X199898000Y-90170000D01*
X198120000Y-90424000D02*
X198374000Y-90170000D01*
X198120000Y-90678000D02*
X198120000Y-90424000D01*
X198374000Y-90932000D02*
X198120000Y-90678000D01*
X198374000Y-94996000D02*
X198374000Y-90932000D01*
X198120000Y-95250000D02*
X198374000Y-94996000D01*
X198120000Y-95504000D02*
X198120000Y-95250000D01*
X198374000Y-95758000D02*
X198120000Y-95504000D01*
G04 #@! TO.C,K46*
X213774822Y-148895768D02*
X213972822Y-148552822D01*
X213972822Y-148552822D02*
X214838848Y-149052822D01*
X207838848Y-161177178D02*
X206972822Y-160677178D01*
X206972822Y-160677178D02*
X207472822Y-159811152D01*
X219597178Y-166811152D02*
X219097178Y-167677178D01*
X219097178Y-167677178D02*
X218231152Y-167177178D01*
X225231152Y-155052822D02*
X226097178Y-155552822D01*
X226097178Y-155552822D02*
X225597178Y-156418848D01*
X223327057Y-153970813D02*
X215628091Y-149525813D01*
X215628091Y-149525813D02*
X215437591Y-149855768D01*
X213913591Y-152495414D02*
X213723091Y-152825369D01*
X215825266Y-154772295D02*
X217805000Y-155915295D01*
X219052205Y-158835074D02*
X220482012Y-159660574D01*
X222021806Y-160549574D02*
X222351761Y-160740074D01*
X222351761Y-160740074D02*
X222542261Y-160410118D01*
X224256761Y-157440517D02*
X224066261Y-157770473D01*
X217844086Y-155847598D02*
G75*
G02X219052203Y-158835074I-1309086J-2267402D01*
G01*
X223327057Y-153970813D02*
G75*
G02X224256761Y-157440517I-1270000J-2199704D01*
G01*
G04 #@! TO.C,K45*
X197264822Y-139370768D02*
X197462822Y-139027822D01*
X197462822Y-139027822D02*
X198328848Y-139527822D01*
X191328848Y-151652178D02*
X190462822Y-151152178D01*
X190462822Y-151152178D02*
X190962822Y-150286152D01*
X203087178Y-157286152D02*
X202587178Y-158152178D01*
X202587178Y-158152178D02*
X201721152Y-157652178D01*
X208721152Y-145527822D02*
X209587178Y-146027822D01*
X209587178Y-146027822D02*
X209087178Y-146893848D01*
X206817057Y-144445813D02*
X199118091Y-140000813D01*
X199118091Y-140000813D02*
X198927591Y-140330768D01*
X197403591Y-142970414D02*
X197213091Y-143300369D01*
X199315266Y-145247295D02*
X201295000Y-146390295D01*
X202542205Y-149310074D02*
X203972012Y-150135574D01*
X205511806Y-151024574D02*
X205841761Y-151215074D01*
X205841761Y-151215074D02*
X206032261Y-150885118D01*
X207746761Y-147915517D02*
X207556261Y-148245473D01*
X201334086Y-146322598D02*
G75*
G02X202542203Y-149310074I-1309086J-2267402D01*
G01*
X206817057Y-144445813D02*
G75*
G02X207746761Y-147915517I-1270000J-2199704D01*
G01*
G04 #@! TO.C,K44*
X171477760Y-133414293D02*
X171580253Y-133031786D01*
X171580253Y-133031786D02*
X172546178Y-133290605D01*
X168922712Y-146813567D02*
X167956786Y-146554747D01*
X167956786Y-146554747D02*
X168215605Y-145588822D01*
X181738567Y-149212288D02*
X181479747Y-150178214D01*
X181479747Y-150178214D02*
X180513822Y-149919395D01*
X184137288Y-136396433D02*
X185103214Y-136655253D01*
X185103214Y-136655253D02*
X184844395Y-137621178D01*
X182018028Y-135844109D02*
X173430948Y-133543207D01*
X173430948Y-133543207D02*
X173332338Y-133911225D01*
X172543457Y-136855367D02*
X172444847Y-137223385D01*
X174979294Y-138559888D02*
X177187400Y-139151548D01*
X179147802Y-141649037D02*
X180742545Y-142076348D01*
X182459961Y-142536528D02*
X182827979Y-142635138D01*
X182827979Y-142635138D02*
X182926589Y-142267120D01*
X183814080Y-138954961D02*
X183715470Y-139322978D01*
X177207633Y-139076042D02*
G75*
G02X179147800Y-141649038I-677633J-2528958D01*
G01*
X182018029Y-135844108D02*
G75*
G02X183814080Y-138954961I-657401J-2453452D01*
G01*
G04 #@! TO.C,K43*
X144130000Y-129286000D02*
X144130000Y-128890000D01*
X144130000Y-128890000D02*
X145130000Y-128890000D01*
X145130000Y-142890000D02*
X144130000Y-142890000D01*
X144130000Y-142890000D02*
X144130000Y-141890000D01*
X158130000Y-141890000D02*
X158130000Y-142890000D01*
X158130000Y-142890000D02*
X157130000Y-142890000D01*
X157130000Y-128890000D02*
X158130000Y-128890000D01*
X158130000Y-128890000D02*
X158130000Y-129890000D01*
X154940000Y-128905000D02*
X146050000Y-128905000D01*
X146050000Y-128905000D02*
X146050000Y-129286000D01*
X146050000Y-132334000D02*
X146050000Y-132715000D01*
X148844000Y-133350000D02*
X151130000Y-133350000D01*
X153670000Y-135255000D02*
X155321000Y-135255000D01*
X157099000Y-135255000D02*
X157480000Y-135255000D01*
X157480000Y-135255000D02*
X157480000Y-134874000D01*
X157480000Y-131445000D02*
X157480000Y-131826000D01*
X151130001Y-133271829D02*
G75*
G02X153669999Y-135255001I-1J-2618171D01*
G01*
X154940000Y-128905000D02*
G75*
G02X157480000Y-131445000I0J-2540000D01*
G01*
G04 #@! TO.C,K42*
X125080000Y-131826000D02*
X125080000Y-131430000D01*
X125080000Y-131430000D02*
X126080000Y-131430000D01*
X126080000Y-145430000D02*
X125080000Y-145430000D01*
X125080000Y-145430000D02*
X125080000Y-144430000D01*
X139080000Y-144430000D02*
X139080000Y-145430000D01*
X139080000Y-145430000D02*
X138080000Y-145430000D01*
X138080000Y-131430000D02*
X139080000Y-131430000D01*
X139080000Y-131430000D02*
X139080000Y-132430000D01*
X135890000Y-131445000D02*
X127000000Y-131445000D01*
X127000000Y-131445000D02*
X127000000Y-131826000D01*
X127000000Y-134874000D02*
X127000000Y-135255000D01*
X129794000Y-135890000D02*
X132080000Y-135890000D01*
X134620000Y-137795000D02*
X136271000Y-137795000D01*
X138049000Y-137795000D02*
X138430000Y-137795000D01*
X138430000Y-137795000D02*
X138430000Y-137414000D01*
X138430000Y-133985000D02*
X138430000Y-134366000D01*
X132080001Y-135811829D02*
G75*
G02X134619999Y-137795001I-1J-2618171D01*
G01*
X135890000Y-131445000D02*
G75*
G02X138430000Y-133985000I0J-2540000D01*
G01*
G04 #@! TO.C,K41*
X106030000Y-136271000D02*
X106030000Y-135875000D01*
X106030000Y-135875000D02*
X107030000Y-135875000D01*
X107030000Y-149875000D02*
X106030000Y-149875000D01*
X106030000Y-149875000D02*
X106030000Y-148875000D01*
X120030000Y-148875000D02*
X120030000Y-149875000D01*
X120030000Y-149875000D02*
X119030000Y-149875000D01*
X119030000Y-135875000D02*
X120030000Y-135875000D01*
X120030000Y-135875000D02*
X120030000Y-136875000D01*
X116840000Y-135890000D02*
X107950000Y-135890000D01*
X107950000Y-135890000D02*
X107950000Y-136271000D01*
X107950000Y-139319000D02*
X107950000Y-139700000D01*
X110744000Y-140335000D02*
X113030000Y-140335000D01*
X115570000Y-142240000D02*
X117221000Y-142240000D01*
X118999000Y-142240000D02*
X119380000Y-142240000D01*
X119380000Y-142240000D02*
X119380000Y-141859000D01*
X119380000Y-138430000D02*
X119380000Y-138811000D01*
X113030001Y-140256829D02*
G75*
G02X115569999Y-142240001I-1J-2618171D01*
G01*
X116840000Y-135890000D02*
G75*
G02X119380000Y-138430000I0J-2540000D01*
G01*
G04 #@! TO.C,K40*
X86980000Y-136271000D02*
X86980000Y-135875000D01*
X86980000Y-135875000D02*
X87980000Y-135875000D01*
X87980000Y-149875000D02*
X86980000Y-149875000D01*
X86980000Y-149875000D02*
X86980000Y-148875000D01*
X100980000Y-148875000D02*
X100980000Y-149875000D01*
X100980000Y-149875000D02*
X99980000Y-149875000D01*
X99980000Y-135875000D02*
X100980000Y-135875000D01*
X100980000Y-135875000D02*
X100980000Y-136875000D01*
X97790000Y-135890000D02*
X88900000Y-135890000D01*
X88900000Y-135890000D02*
X88900000Y-136271000D01*
X88900000Y-139319000D02*
X88900000Y-139700000D01*
X91694000Y-140335000D02*
X93980000Y-140335000D01*
X96520000Y-142240000D02*
X98171000Y-142240000D01*
X99949000Y-142240000D02*
X100330000Y-142240000D01*
X100330000Y-142240000D02*
X100330000Y-141859000D01*
X100330000Y-138430000D02*
X100330000Y-138811000D01*
X93980001Y-140256829D02*
G75*
G02X96519999Y-142240001I-1J-2618171D01*
G01*
X97790000Y-135890000D02*
G75*
G02X100330000Y-138430000I0J-2540000D01*
G01*
G04 #@! TO.C,K36*
X225839822Y-127940768D02*
X226037822Y-127597822D01*
X226037822Y-127597822D02*
X226903848Y-128097822D01*
X219903848Y-140222178D02*
X219037822Y-139722178D01*
X219037822Y-139722178D02*
X219537822Y-138856152D01*
X231662178Y-145856152D02*
X231162178Y-146722178D01*
X231162178Y-146722178D02*
X230296152Y-146222178D01*
X237296152Y-134097822D02*
X238162178Y-134597822D01*
X238162178Y-134597822D02*
X237662178Y-135463848D01*
X235392057Y-133015813D02*
X227693091Y-128570813D01*
X227693091Y-128570813D02*
X227502591Y-128900768D01*
X225978591Y-131540414D02*
X225788091Y-131870369D01*
X227890266Y-133817295D02*
X229870000Y-134960295D01*
X231117205Y-137880074D02*
X232547012Y-138705574D01*
X234086806Y-139594574D02*
X234416761Y-139785074D01*
X234416761Y-139785074D02*
X234607261Y-139455118D01*
X236321761Y-136485517D02*
X236131261Y-136815473D01*
X229909086Y-134892598D02*
G75*
G02X231117203Y-137880074I-1309086J-2267402D01*
G01*
X235392057Y-133015813D02*
G75*
G02X236321761Y-136485517I-1270000J-2199704D01*
G01*
G04 #@! TO.C,K35*
X182230000Y-114681000D02*
X182230000Y-114285000D01*
X182230000Y-114285000D02*
X183230000Y-114285000D01*
X183230000Y-128285000D02*
X182230000Y-128285000D01*
X182230000Y-128285000D02*
X182230000Y-127285000D01*
X196230000Y-127285000D02*
X196230000Y-128285000D01*
X196230000Y-128285000D02*
X195230000Y-128285000D01*
X195230000Y-114285000D02*
X196230000Y-114285000D01*
X196230000Y-114285000D02*
X196230000Y-115285000D01*
X193040000Y-114300000D02*
X184150000Y-114300000D01*
X184150000Y-114300000D02*
X184150000Y-114681000D01*
X184150000Y-117729000D02*
X184150000Y-118110000D01*
X186944000Y-118745000D02*
X189230000Y-118745000D01*
X191770000Y-120650000D02*
X193421000Y-120650000D01*
X195199000Y-120650000D02*
X195580000Y-120650000D01*
X195580000Y-120650000D02*
X195580000Y-120269000D01*
X195580000Y-116840000D02*
X195580000Y-117221000D01*
X189230001Y-118666829D02*
G75*
G02X191769999Y-120650001I-1J-2618171D01*
G01*
X193040000Y-114300000D02*
G75*
G02X195580000Y-116840000I0J-2540000D01*
G01*
G04 #@! TO.C,K34*
X163180000Y-112776000D02*
X163180000Y-112380000D01*
X163180000Y-112380000D02*
X164180000Y-112380000D01*
X164180000Y-126380000D02*
X163180000Y-126380000D01*
X163180000Y-126380000D02*
X163180000Y-125380000D01*
X177180000Y-125380000D02*
X177180000Y-126380000D01*
X177180000Y-126380000D02*
X176180000Y-126380000D01*
X176180000Y-112380000D02*
X177180000Y-112380000D01*
X177180000Y-112380000D02*
X177180000Y-113380000D01*
X173990000Y-112395000D02*
X165100000Y-112395000D01*
X165100000Y-112395000D02*
X165100000Y-112776000D01*
X165100000Y-115824000D02*
X165100000Y-116205000D01*
X167894000Y-116840000D02*
X170180000Y-116840000D01*
X172720000Y-118745000D02*
X174371000Y-118745000D01*
X176149000Y-118745000D02*
X176530000Y-118745000D01*
X176530000Y-118745000D02*
X176530000Y-118364000D01*
X176530000Y-114935000D02*
X176530000Y-115316000D01*
X170180001Y-116761829D02*
G75*
G02X172719999Y-118745001I-1J-2618171D01*
G01*
X173990000Y-112395000D02*
G75*
G02X176530000Y-114935000I0J-2540000D01*
G01*
G04 #@! TO.C,K33*
X144130000Y-110236000D02*
X144130000Y-109840000D01*
X144130000Y-109840000D02*
X145130000Y-109840000D01*
X145130000Y-123840000D02*
X144130000Y-123840000D01*
X144130000Y-123840000D02*
X144130000Y-122840000D01*
X158130000Y-122840000D02*
X158130000Y-123840000D01*
X158130000Y-123840000D02*
X157130000Y-123840000D01*
X157130000Y-109840000D02*
X158130000Y-109840000D01*
X158130000Y-109840000D02*
X158130000Y-110840000D01*
X154940000Y-109855000D02*
X146050000Y-109855000D01*
X146050000Y-109855000D02*
X146050000Y-110236000D01*
X146050000Y-113284000D02*
X146050000Y-113665000D01*
X148844000Y-114300000D02*
X151130000Y-114300000D01*
X153670000Y-116205000D02*
X155321000Y-116205000D01*
X157099000Y-116205000D02*
X157480000Y-116205000D01*
X157480000Y-116205000D02*
X157480000Y-115824000D01*
X157480000Y-112395000D02*
X157480000Y-112776000D01*
X151130001Y-114221829D02*
G75*
G02X153669999Y-116205001I-1J-2618171D01*
G01*
X154940000Y-109855000D02*
G75*
G02X157480000Y-112395000I0J-2540000D01*
G01*
G04 #@! TO.C,K32*
X125080000Y-112776000D02*
X125080000Y-112380000D01*
X125080000Y-112380000D02*
X126080000Y-112380000D01*
X126080000Y-126380000D02*
X125080000Y-126380000D01*
X125080000Y-126380000D02*
X125080000Y-125380000D01*
X139080000Y-125380000D02*
X139080000Y-126380000D01*
X139080000Y-126380000D02*
X138080000Y-126380000D01*
X138080000Y-112380000D02*
X139080000Y-112380000D01*
X139080000Y-112380000D02*
X139080000Y-113380000D01*
X135890000Y-112395000D02*
X127000000Y-112395000D01*
X127000000Y-112395000D02*
X127000000Y-112776000D01*
X127000000Y-115824000D02*
X127000000Y-116205000D01*
X129794000Y-116840000D02*
X132080000Y-116840000D01*
X134620000Y-118745000D02*
X136271000Y-118745000D01*
X138049000Y-118745000D02*
X138430000Y-118745000D01*
X138430000Y-118745000D02*
X138430000Y-118364000D01*
X138430000Y-114935000D02*
X138430000Y-115316000D01*
X132080001Y-116761829D02*
G75*
G02X134619999Y-118745001I-1J-2618171D01*
G01*
X135890000Y-112395000D02*
G75*
G02X138430000Y-114935000I0J-2540000D01*
G01*
G04 #@! TO.C,K31*
X106030000Y-117221000D02*
X106030000Y-116825000D01*
X106030000Y-116825000D02*
X107030000Y-116825000D01*
X107030000Y-130825000D02*
X106030000Y-130825000D01*
X106030000Y-130825000D02*
X106030000Y-129825000D01*
X120030000Y-129825000D02*
X120030000Y-130825000D01*
X120030000Y-130825000D02*
X119030000Y-130825000D01*
X119030000Y-116825000D02*
X120030000Y-116825000D01*
X120030000Y-116825000D02*
X120030000Y-117825000D01*
X116840000Y-116840000D02*
X107950000Y-116840000D01*
X107950000Y-116840000D02*
X107950000Y-117221000D01*
X107950000Y-120269000D02*
X107950000Y-120650000D01*
X110744000Y-121285000D02*
X113030000Y-121285000D01*
X115570000Y-123190000D02*
X117221000Y-123190000D01*
X118999000Y-123190000D02*
X119380000Y-123190000D01*
X119380000Y-123190000D02*
X119380000Y-122809000D01*
X119380000Y-119380000D02*
X119380000Y-119761000D01*
X113030001Y-121206829D02*
G75*
G02X115569999Y-123190001I-1J-2618171D01*
G01*
X116840000Y-116840000D02*
G75*
G02X119380000Y-119380000I0J-2540000D01*
G01*
G04 #@! TO.C,K30*
X84440000Y-117221000D02*
X84440000Y-116825000D01*
X84440000Y-116825000D02*
X85440000Y-116825000D01*
X85440000Y-130825000D02*
X84440000Y-130825000D01*
X84440000Y-130825000D02*
X84440000Y-129825000D01*
X98440000Y-129825000D02*
X98440000Y-130825000D01*
X98440000Y-130825000D02*
X97440000Y-130825000D01*
X97440000Y-116825000D02*
X98440000Y-116825000D01*
X98440000Y-116825000D02*
X98440000Y-117825000D01*
X95250000Y-116840000D02*
X86360000Y-116840000D01*
X86360000Y-116840000D02*
X86360000Y-117221000D01*
X86360000Y-120269000D02*
X86360000Y-120650000D01*
X89154000Y-121285000D02*
X91440000Y-121285000D01*
X93980000Y-123190000D02*
X95631000Y-123190000D01*
X97409000Y-123190000D02*
X97790000Y-123190000D01*
X97790000Y-123190000D02*
X97790000Y-122809000D01*
X97790000Y-119380000D02*
X97790000Y-119761000D01*
X91440001Y-121206829D02*
G75*
G02X93979999Y-123190001I-1J-2618171D01*
G01*
X95250000Y-116840000D02*
G75*
G02X97790000Y-119380000I0J-2540000D01*
G01*
G04 #@! TO.C,K26*
X209329822Y-118415768D02*
X209527822Y-118072822D01*
X209527822Y-118072822D02*
X210393848Y-118572822D01*
X203393848Y-130697178D02*
X202527822Y-130197178D01*
X202527822Y-130197178D02*
X203027822Y-129331152D01*
X215152178Y-136331152D02*
X214652178Y-137197178D01*
X214652178Y-137197178D02*
X213786152Y-136697178D01*
X220786152Y-124572822D02*
X221652178Y-125072822D01*
X221652178Y-125072822D02*
X221152178Y-125938848D01*
X218882057Y-123490813D02*
X211183091Y-119045813D01*
X211183091Y-119045813D02*
X210992591Y-119375768D01*
X209468591Y-122015414D02*
X209278091Y-122345369D01*
X211380266Y-124292295D02*
X213360000Y-125435295D01*
X214607205Y-128355074D02*
X216037012Y-129180574D01*
X217576806Y-130069574D02*
X217906761Y-130260074D01*
X217906761Y-130260074D02*
X218097261Y-129930118D01*
X219811761Y-126960517D02*
X219621261Y-127290473D01*
X213399086Y-125367598D02*
G75*
G02X214607203Y-128355074I-1309086J-2267402D01*
G01*
X218882057Y-123490813D02*
G75*
G02X219811761Y-126960517I-1270000J-2199704D01*
G01*
G04 #@! TO.C,K25*
X182230000Y-95631000D02*
X182230000Y-95235000D01*
X182230000Y-95235000D02*
X183230000Y-95235000D01*
X183230000Y-109235000D02*
X182230000Y-109235000D01*
X182230000Y-109235000D02*
X182230000Y-108235000D01*
X196230000Y-108235000D02*
X196230000Y-109235000D01*
X196230000Y-109235000D02*
X195230000Y-109235000D01*
X195230000Y-95235000D02*
X196230000Y-95235000D01*
X196230000Y-95235000D02*
X196230000Y-96235000D01*
X193040000Y-95250000D02*
X184150000Y-95250000D01*
X184150000Y-95250000D02*
X184150000Y-95631000D01*
X184150000Y-98679000D02*
X184150000Y-99060000D01*
X186944000Y-99695000D02*
X189230000Y-99695000D01*
X191770000Y-101600000D02*
X193421000Y-101600000D01*
X195199000Y-101600000D02*
X195580000Y-101600000D01*
X195580000Y-101600000D02*
X195580000Y-101219000D01*
X195580000Y-97790000D02*
X195580000Y-98171000D01*
X189230001Y-99616829D02*
G75*
G02X191769999Y-101600001I-1J-2618171D01*
G01*
X193040000Y-95250000D02*
G75*
G02X195580000Y-97790000I0J-2540000D01*
G01*
G04 #@! TO.C,K24*
X163180000Y-93726000D02*
X163180000Y-93330000D01*
X163180000Y-93330000D02*
X164180000Y-93330000D01*
X164180000Y-107330000D02*
X163180000Y-107330000D01*
X163180000Y-107330000D02*
X163180000Y-106330000D01*
X177180000Y-106330000D02*
X177180000Y-107330000D01*
X177180000Y-107330000D02*
X176180000Y-107330000D01*
X176180000Y-93330000D02*
X177180000Y-93330000D01*
X177180000Y-93330000D02*
X177180000Y-94330000D01*
X173990000Y-93345000D02*
X165100000Y-93345000D01*
X165100000Y-93345000D02*
X165100000Y-93726000D01*
X165100000Y-96774000D02*
X165100000Y-97155000D01*
X167894000Y-97790000D02*
X170180000Y-97790000D01*
X172720000Y-99695000D02*
X174371000Y-99695000D01*
X176149000Y-99695000D02*
X176530000Y-99695000D01*
X176530000Y-99695000D02*
X176530000Y-99314000D01*
X176530000Y-95885000D02*
X176530000Y-96266000D01*
X170180001Y-97711829D02*
G75*
G02X172719999Y-99695001I-1J-2618171D01*
G01*
X173990000Y-93345000D02*
G75*
G02X176530000Y-95885000I0J-2540000D01*
G01*
G04 #@! TO.C,K23*
X144130000Y-91186000D02*
X144130000Y-90790000D01*
X144130000Y-90790000D02*
X145130000Y-90790000D01*
X145130000Y-104790000D02*
X144130000Y-104790000D01*
X144130000Y-104790000D02*
X144130000Y-103790000D01*
X158130000Y-103790000D02*
X158130000Y-104790000D01*
X158130000Y-104790000D02*
X157130000Y-104790000D01*
X157130000Y-90790000D02*
X158130000Y-90790000D01*
X158130000Y-90790000D02*
X158130000Y-91790000D01*
X154940000Y-90805000D02*
X146050000Y-90805000D01*
X146050000Y-90805000D02*
X146050000Y-91186000D01*
X146050000Y-94234000D02*
X146050000Y-94615000D01*
X148844000Y-95250000D02*
X151130000Y-95250000D01*
X153670000Y-97155000D02*
X155321000Y-97155000D01*
X157099000Y-97155000D02*
X157480000Y-97155000D01*
X157480000Y-97155000D02*
X157480000Y-96774000D01*
X157480000Y-93345000D02*
X157480000Y-93726000D01*
X151130001Y-95171829D02*
G75*
G02X153669999Y-97155001I-1J-2618171D01*
G01*
X154940000Y-90805000D02*
G75*
G02X157480000Y-93345000I0J-2540000D01*
G01*
G04 #@! TO.C,K22*
X125080000Y-93726000D02*
X125080000Y-93330000D01*
X125080000Y-93330000D02*
X126080000Y-93330000D01*
X126080000Y-107330000D02*
X125080000Y-107330000D01*
X125080000Y-107330000D02*
X125080000Y-106330000D01*
X139080000Y-106330000D02*
X139080000Y-107330000D01*
X139080000Y-107330000D02*
X138080000Y-107330000D01*
X138080000Y-93330000D02*
X139080000Y-93330000D01*
X139080000Y-93330000D02*
X139080000Y-94330000D01*
X135890000Y-93345000D02*
X127000000Y-93345000D01*
X127000000Y-93345000D02*
X127000000Y-93726000D01*
X127000000Y-96774000D02*
X127000000Y-97155000D01*
X129794000Y-97790000D02*
X132080000Y-97790000D01*
X134620000Y-99695000D02*
X136271000Y-99695000D01*
X138049000Y-99695000D02*
X138430000Y-99695000D01*
X138430000Y-99695000D02*
X138430000Y-99314000D01*
X138430000Y-95885000D02*
X138430000Y-96266000D01*
X132080001Y-97711829D02*
G75*
G02X134619999Y-99695001I-1J-2618171D01*
G01*
X135890000Y-93345000D02*
G75*
G02X138430000Y-95885000I0J-2540000D01*
G01*
G04 #@! TO.C,K21*
X106030000Y-98171000D02*
X106030000Y-97775000D01*
X106030000Y-97775000D02*
X107030000Y-97775000D01*
X107030000Y-111775000D02*
X106030000Y-111775000D01*
X106030000Y-111775000D02*
X106030000Y-110775000D01*
X120030000Y-110775000D02*
X120030000Y-111775000D01*
X120030000Y-111775000D02*
X119030000Y-111775000D01*
X119030000Y-97775000D02*
X120030000Y-97775000D01*
X120030000Y-97775000D02*
X120030000Y-98775000D01*
X116840000Y-97790000D02*
X107950000Y-97790000D01*
X107950000Y-97790000D02*
X107950000Y-98171000D01*
X107950000Y-101219000D02*
X107950000Y-101600000D01*
X110744000Y-102235000D02*
X113030000Y-102235000D01*
X115570000Y-104140000D02*
X117221000Y-104140000D01*
X118999000Y-104140000D02*
X119380000Y-104140000D01*
X119380000Y-104140000D02*
X119380000Y-103759000D01*
X119380000Y-100330000D02*
X119380000Y-100711000D01*
X113030001Y-102156829D02*
G75*
G02X115569999Y-104140001I-1J-2618171D01*
G01*
X116840000Y-97790000D02*
G75*
G02X119380000Y-100330000I0J-2540000D01*
G01*
G04 #@! TO.C,K20*
X84440000Y-98171000D02*
X84440000Y-97775000D01*
X84440000Y-97775000D02*
X85440000Y-97775000D01*
X85440000Y-111775000D02*
X84440000Y-111775000D01*
X84440000Y-111775000D02*
X84440000Y-110775000D01*
X98440000Y-110775000D02*
X98440000Y-111775000D01*
X98440000Y-111775000D02*
X97440000Y-111775000D01*
X97440000Y-97775000D02*
X98440000Y-97775000D01*
X98440000Y-97775000D02*
X98440000Y-98775000D01*
X95250000Y-97790000D02*
X86360000Y-97790000D01*
X86360000Y-97790000D02*
X86360000Y-98171000D01*
X86360000Y-101219000D02*
X86360000Y-101600000D01*
X89154000Y-102235000D02*
X91440000Y-102235000D01*
X93980000Y-104140000D02*
X95631000Y-104140000D01*
X97409000Y-104140000D02*
X97790000Y-104140000D01*
X97790000Y-104140000D02*
X97790000Y-103759000D01*
X97790000Y-100330000D02*
X97790000Y-100711000D01*
X91440001Y-102156829D02*
G75*
G02X93979999Y-104140001I-1J-2618171D01*
G01*
X95250000Y-97790000D02*
G75*
G02X97790000Y-100330000I0J-2540000D01*
G01*
G04 #@! TO.C,K16*
X201280000Y-91186000D02*
X201280000Y-90790000D01*
X201280000Y-90790000D02*
X202280000Y-90790000D01*
X202280000Y-104790000D02*
X201280000Y-104790000D01*
X201280000Y-104790000D02*
X201280000Y-103790000D01*
X215280000Y-103790000D02*
X215280000Y-104790000D01*
X215280000Y-104790000D02*
X214280000Y-104790000D01*
X214280000Y-90790000D02*
X215280000Y-90790000D01*
X215280000Y-90790000D02*
X215280000Y-91790000D01*
X212090000Y-90805000D02*
X203200000Y-90805000D01*
X203200000Y-90805000D02*
X203200000Y-91186000D01*
X203200000Y-94234000D02*
X203200000Y-94615000D01*
X205994000Y-95250000D02*
X208280000Y-95250000D01*
X210820000Y-97155000D02*
X212471000Y-97155000D01*
X214249000Y-97155000D02*
X214630000Y-97155000D01*
X214630000Y-97155000D02*
X214630000Y-96774000D01*
X214630000Y-93345000D02*
X214630000Y-93726000D01*
X208280001Y-95171829D02*
G75*
G02X210819999Y-97155001I-1J-2618171D01*
G01*
X212090000Y-90805000D02*
G75*
G02X214630000Y-93345000I0J-2540000D01*
G01*
G04 #@! TO.C,K15*
X182230000Y-76581000D02*
X182230000Y-76185000D01*
X182230000Y-76185000D02*
X183230000Y-76185000D01*
X183230000Y-90185000D02*
X182230000Y-90185000D01*
X182230000Y-90185000D02*
X182230000Y-89185000D01*
X196230000Y-89185000D02*
X196230000Y-90185000D01*
X196230000Y-90185000D02*
X195230000Y-90185000D01*
X195230000Y-76185000D02*
X196230000Y-76185000D01*
X196230000Y-76185000D02*
X196230000Y-77185000D01*
X193040000Y-76200000D02*
X184150000Y-76200000D01*
X184150000Y-76200000D02*
X184150000Y-76581000D01*
X184150000Y-79629000D02*
X184150000Y-80010000D01*
X186944000Y-80645000D02*
X189230000Y-80645000D01*
X191770000Y-82550000D02*
X193421000Y-82550000D01*
X195199000Y-82550000D02*
X195580000Y-82550000D01*
X195580000Y-82550000D02*
X195580000Y-82169000D01*
X195580000Y-78740000D02*
X195580000Y-79121000D01*
X189230001Y-80566829D02*
G75*
G02X191769999Y-82550001I-1J-2618171D01*
G01*
X193040000Y-76200000D02*
G75*
G02X195580000Y-78740000I0J-2540000D01*
G01*
G04 #@! TO.C,K14*
X163180000Y-74676000D02*
X163180000Y-74280000D01*
X163180000Y-74280000D02*
X164180000Y-74280000D01*
X164180000Y-88280000D02*
X163180000Y-88280000D01*
X163180000Y-88280000D02*
X163180000Y-87280000D01*
X177180000Y-87280000D02*
X177180000Y-88280000D01*
X177180000Y-88280000D02*
X176180000Y-88280000D01*
X176180000Y-74280000D02*
X177180000Y-74280000D01*
X177180000Y-74280000D02*
X177180000Y-75280000D01*
X173990000Y-74295000D02*
X165100000Y-74295000D01*
X165100000Y-74295000D02*
X165100000Y-74676000D01*
X165100000Y-77724000D02*
X165100000Y-78105000D01*
X167894000Y-78740000D02*
X170180000Y-78740000D01*
X172720000Y-80645000D02*
X174371000Y-80645000D01*
X176149000Y-80645000D02*
X176530000Y-80645000D01*
X176530000Y-80645000D02*
X176530000Y-80264000D01*
X176530000Y-76835000D02*
X176530000Y-77216000D01*
X170180001Y-78661829D02*
G75*
G02X172719999Y-80645001I-1J-2618171D01*
G01*
X173990000Y-74295000D02*
G75*
G02X176530000Y-76835000I0J-2540000D01*
G01*
G04 #@! TO.C,K13*
X144130000Y-72136000D02*
X144130000Y-71740000D01*
X144130000Y-71740000D02*
X145130000Y-71740000D01*
X145130000Y-85740000D02*
X144130000Y-85740000D01*
X144130000Y-85740000D02*
X144130000Y-84740000D01*
X158130000Y-84740000D02*
X158130000Y-85740000D01*
X158130000Y-85740000D02*
X157130000Y-85740000D01*
X157130000Y-71740000D02*
X158130000Y-71740000D01*
X158130000Y-71740000D02*
X158130000Y-72740000D01*
X154940000Y-71755000D02*
X146050000Y-71755000D01*
X146050000Y-71755000D02*
X146050000Y-72136000D01*
X146050000Y-75184000D02*
X146050000Y-75565000D01*
X148844000Y-76200000D02*
X151130000Y-76200000D01*
X153670000Y-78105000D02*
X155321000Y-78105000D01*
X157099000Y-78105000D02*
X157480000Y-78105000D01*
X157480000Y-78105000D02*
X157480000Y-77724000D01*
X157480000Y-74295000D02*
X157480000Y-74676000D01*
X151130001Y-76121829D02*
G75*
G02X153669999Y-78105001I-1J-2618171D01*
G01*
X154940000Y-71755000D02*
G75*
G02X157480000Y-74295000I0J-2540000D01*
G01*
G04 #@! TO.C,K12*
X125080000Y-74676000D02*
X125080000Y-74280000D01*
X125080000Y-74280000D02*
X126080000Y-74280000D01*
X126080000Y-88280000D02*
X125080000Y-88280000D01*
X125080000Y-88280000D02*
X125080000Y-87280000D01*
X139080000Y-87280000D02*
X139080000Y-88280000D01*
X139080000Y-88280000D02*
X138080000Y-88280000D01*
X138080000Y-74280000D02*
X139080000Y-74280000D01*
X139080000Y-74280000D02*
X139080000Y-75280000D01*
X135890000Y-74295000D02*
X127000000Y-74295000D01*
X127000000Y-74295000D02*
X127000000Y-74676000D01*
X127000000Y-77724000D02*
X127000000Y-78105000D01*
X129794000Y-78740000D02*
X132080000Y-78740000D01*
X134620000Y-80645000D02*
X136271000Y-80645000D01*
X138049000Y-80645000D02*
X138430000Y-80645000D01*
X138430000Y-80645000D02*
X138430000Y-80264000D01*
X138430000Y-76835000D02*
X138430000Y-77216000D01*
X132080001Y-78661829D02*
G75*
G02X134619999Y-80645001I-1J-2618171D01*
G01*
X135890000Y-74295000D02*
G75*
G02X138430000Y-76835000I0J-2540000D01*
G01*
G04 #@! TO.C,K11*
X106030000Y-79121000D02*
X106030000Y-78725000D01*
X106030000Y-78725000D02*
X107030000Y-78725000D01*
X107030000Y-92725000D02*
X106030000Y-92725000D01*
X106030000Y-92725000D02*
X106030000Y-91725000D01*
X120030000Y-91725000D02*
X120030000Y-92725000D01*
X120030000Y-92725000D02*
X119030000Y-92725000D01*
X119030000Y-78725000D02*
X120030000Y-78725000D01*
X120030000Y-78725000D02*
X120030000Y-79725000D01*
X116840000Y-78740000D02*
X107950000Y-78740000D01*
X107950000Y-78740000D02*
X107950000Y-79121000D01*
X107950000Y-82169000D02*
X107950000Y-82550000D01*
X110744000Y-83185000D02*
X113030000Y-83185000D01*
X115570000Y-85090000D02*
X117221000Y-85090000D01*
X118999000Y-85090000D02*
X119380000Y-85090000D01*
X119380000Y-85090000D02*
X119380000Y-84709000D01*
X119380000Y-81280000D02*
X119380000Y-81661000D01*
X113030001Y-83106829D02*
G75*
G02X115569999Y-85090001I-1J-2618171D01*
G01*
X116840000Y-78740000D02*
G75*
G02X119380000Y-81280000I0J-2540000D01*
G01*
G04 #@! TO.C,K10*
X84440000Y-79121000D02*
X84440000Y-78725000D01*
X84440000Y-78725000D02*
X85440000Y-78725000D01*
X85440000Y-92725000D02*
X84440000Y-92725000D01*
X84440000Y-92725000D02*
X84440000Y-91725000D01*
X98440000Y-91725000D02*
X98440000Y-92725000D01*
X98440000Y-92725000D02*
X97440000Y-92725000D01*
X97440000Y-78725000D02*
X98440000Y-78725000D01*
X98440000Y-78725000D02*
X98440000Y-79725000D01*
X95250000Y-78740000D02*
X86360000Y-78740000D01*
X86360000Y-78740000D02*
X86360000Y-79121000D01*
X86360000Y-82169000D02*
X86360000Y-82550000D01*
X89154000Y-83185000D02*
X91440000Y-83185000D01*
X93980000Y-85090000D02*
X95631000Y-85090000D01*
X97409000Y-85090000D02*
X97790000Y-85090000D01*
X97790000Y-85090000D02*
X97790000Y-84709000D01*
X97790000Y-81280000D02*
X97790000Y-81661000D01*
X91440001Y-83106829D02*
G75*
G02X93979999Y-85090001I-1J-2618171D01*
G01*
X95250000Y-78740000D02*
G75*
G02X97790000Y-81280000I0J-2540000D01*
G01*
G04 #@! TO.C,K6*
X201280000Y-67056000D02*
X201280000Y-66660000D01*
X201280000Y-66660000D02*
X202280000Y-66660000D01*
X202280000Y-80660000D02*
X201280000Y-80660000D01*
X201280000Y-80660000D02*
X201280000Y-79660000D01*
X215280000Y-79660000D02*
X215280000Y-80660000D01*
X215280000Y-80660000D02*
X214280000Y-80660000D01*
X214280000Y-66660000D02*
X215280000Y-66660000D01*
X215280000Y-66660000D02*
X215280000Y-67660000D01*
X212090000Y-66675000D02*
X203200000Y-66675000D01*
X203200000Y-66675000D02*
X203200000Y-67056000D01*
X203200000Y-70104000D02*
X203200000Y-70485000D01*
X205994000Y-71120000D02*
X208280000Y-71120000D01*
X210820000Y-73025000D02*
X212471000Y-73025000D01*
X214249000Y-73025000D02*
X214630000Y-73025000D01*
X214630000Y-73025000D02*
X214630000Y-72644000D01*
X214630000Y-69215000D02*
X214630000Y-69596000D01*
X208280001Y-71041829D02*
G75*
G02X210819999Y-73025001I-1J-2618171D01*
G01*
X212090000Y-66675000D02*
G75*
G02X214630000Y-69215000I0J-2540000D01*
G01*
G04 #@! TO.C,K5*
X182230000Y-57531000D02*
X182230000Y-57135000D01*
X182230000Y-57135000D02*
X183230000Y-57135000D01*
X183230000Y-71135000D02*
X182230000Y-71135000D01*
X182230000Y-71135000D02*
X182230000Y-70135000D01*
X196230000Y-70135000D02*
X196230000Y-71135000D01*
X196230000Y-71135000D02*
X195230000Y-71135000D01*
X195230000Y-57135000D02*
X196230000Y-57135000D01*
X196230000Y-57135000D02*
X196230000Y-58135000D01*
X193040000Y-57150000D02*
X184150000Y-57150000D01*
X184150000Y-57150000D02*
X184150000Y-57531000D01*
X184150000Y-60579000D02*
X184150000Y-60960000D01*
X186944000Y-61595000D02*
X189230000Y-61595000D01*
X191770000Y-63500000D02*
X193421000Y-63500000D01*
X195199000Y-63500000D02*
X195580000Y-63500000D01*
X195580000Y-63500000D02*
X195580000Y-63119000D01*
X195580000Y-59690000D02*
X195580000Y-60071000D01*
X189230001Y-61516829D02*
G75*
G02X191769999Y-63500001I-1J-2618171D01*
G01*
X193040000Y-57150000D02*
G75*
G02X195580000Y-59690000I0J-2540000D01*
G01*
G04 #@! TO.C,K4*
X163180000Y-55626000D02*
X163180000Y-55230000D01*
X163180000Y-55230000D02*
X164180000Y-55230000D01*
X164180000Y-69230000D02*
X163180000Y-69230000D01*
X163180000Y-69230000D02*
X163180000Y-68230000D01*
X177180000Y-68230000D02*
X177180000Y-69230000D01*
X177180000Y-69230000D02*
X176180000Y-69230000D01*
X176180000Y-55230000D02*
X177180000Y-55230000D01*
X177180000Y-55230000D02*
X177180000Y-56230000D01*
X173990000Y-55245000D02*
X165100000Y-55245000D01*
X165100000Y-55245000D02*
X165100000Y-55626000D01*
X165100000Y-58674000D02*
X165100000Y-59055000D01*
X167894000Y-59690000D02*
X170180000Y-59690000D01*
X172720000Y-61595000D02*
X174371000Y-61595000D01*
X176149000Y-61595000D02*
X176530000Y-61595000D01*
X176530000Y-61595000D02*
X176530000Y-61214000D01*
X176530000Y-57785000D02*
X176530000Y-58166000D01*
X170180001Y-59611829D02*
G75*
G02X172719999Y-61595001I-1J-2618171D01*
G01*
X173990000Y-55245000D02*
G75*
G02X176530000Y-57785000I0J-2540000D01*
G01*
G04 #@! TO.C,K3*
X144130000Y-53086000D02*
X144130000Y-52690000D01*
X144130000Y-52690000D02*
X145130000Y-52690000D01*
X145130000Y-66690000D02*
X144130000Y-66690000D01*
X144130000Y-66690000D02*
X144130000Y-65690000D01*
X158130000Y-65690000D02*
X158130000Y-66690000D01*
X158130000Y-66690000D02*
X157130000Y-66690000D01*
X157130000Y-52690000D02*
X158130000Y-52690000D01*
X158130000Y-52690000D02*
X158130000Y-53690000D01*
X154940000Y-52705000D02*
X146050000Y-52705000D01*
X146050000Y-52705000D02*
X146050000Y-53086000D01*
X146050000Y-56134000D02*
X146050000Y-56515000D01*
X148844000Y-57150000D02*
X151130000Y-57150000D01*
X153670000Y-59055000D02*
X155321000Y-59055000D01*
X157099000Y-59055000D02*
X157480000Y-59055000D01*
X157480000Y-59055000D02*
X157480000Y-58674000D01*
X157480000Y-55245000D02*
X157480000Y-55626000D01*
X151130001Y-57071829D02*
G75*
G02X153669999Y-59055001I-1J-2618171D01*
G01*
X154940000Y-52705000D02*
G75*
G02X157480000Y-55245000I0J-2540000D01*
G01*
G04 #@! TO.C,K2*
X125080000Y-55626000D02*
X125080000Y-55230000D01*
X125080000Y-55230000D02*
X126080000Y-55230000D01*
X126080000Y-69230000D02*
X125080000Y-69230000D01*
X125080000Y-69230000D02*
X125080000Y-68230000D01*
X139080000Y-68230000D02*
X139080000Y-69230000D01*
X139080000Y-69230000D02*
X138080000Y-69230000D01*
X138080000Y-55230000D02*
X139080000Y-55230000D01*
X139080000Y-55230000D02*
X139080000Y-56230000D01*
X135890000Y-55245000D02*
X127000000Y-55245000D01*
X127000000Y-55245000D02*
X127000000Y-55626000D01*
X127000000Y-58674000D02*
X127000000Y-59055000D01*
X129794000Y-59690000D02*
X132080000Y-59690000D01*
X134620000Y-61595000D02*
X136271000Y-61595000D01*
X138049000Y-61595000D02*
X138430000Y-61595000D01*
X138430000Y-61595000D02*
X138430000Y-61214000D01*
X138430000Y-57785000D02*
X138430000Y-58166000D01*
X132080001Y-59611829D02*
G75*
G02X134619999Y-61595001I-1J-2618171D01*
G01*
X135890000Y-55245000D02*
G75*
G02X138430000Y-57785000I0J-2540000D01*
G01*
G04 #@! TO.C,K1*
X106030000Y-60071000D02*
X106030000Y-59675000D01*
X106030000Y-59675000D02*
X107030000Y-59675000D01*
X107030000Y-73675000D02*
X106030000Y-73675000D01*
X106030000Y-73675000D02*
X106030000Y-72675000D01*
X120030000Y-72675000D02*
X120030000Y-73675000D01*
X120030000Y-73675000D02*
X119030000Y-73675000D01*
X119030000Y-59675000D02*
X120030000Y-59675000D01*
X120030000Y-59675000D02*
X120030000Y-60675000D01*
X116840000Y-59690000D02*
X107950000Y-59690000D01*
X107950000Y-59690000D02*
X107950000Y-60071000D01*
X107950000Y-63119000D02*
X107950000Y-63500000D01*
X110744000Y-64135000D02*
X113030000Y-64135000D01*
X115570000Y-66040000D02*
X117221000Y-66040000D01*
X118999000Y-66040000D02*
X119380000Y-66040000D01*
X119380000Y-66040000D02*
X119380000Y-65659000D01*
X119380000Y-62230000D02*
X119380000Y-62611000D01*
X113030001Y-64056829D02*
G75*
G02X115569999Y-66040001I-1J-2618171D01*
G01*
X116840000Y-59690000D02*
G75*
G02X119380000Y-62230000I0J-2540000D01*
G01*
G04 #@! TO.C,K0*
X84440000Y-60071000D02*
X84440000Y-59675000D01*
X84440000Y-59675000D02*
X85440000Y-59675000D01*
X85440000Y-73675000D02*
X84440000Y-73675000D01*
X84440000Y-73675000D02*
X84440000Y-72675000D01*
X98440000Y-72675000D02*
X98440000Y-73675000D01*
X98440000Y-73675000D02*
X97440000Y-73675000D01*
X97440000Y-59675000D02*
X98440000Y-59675000D01*
X98440000Y-59675000D02*
X98440000Y-60675000D01*
X95250000Y-59690000D02*
X86360000Y-59690000D01*
X86360000Y-59690000D02*
X86360000Y-60071000D01*
X86360000Y-63119000D02*
X86360000Y-63500000D01*
X89154000Y-64135000D02*
X91440000Y-64135000D01*
X93980000Y-66040000D02*
X95631000Y-66040000D01*
X97409000Y-66040000D02*
X97790000Y-66040000D01*
X97790000Y-66040000D02*
X97790000Y-65659000D01*
X97790000Y-62230000D02*
X97790000Y-62611000D01*
X91440001Y-64056829D02*
G75*
G02X93979999Y-66040001I-1J-2618171D01*
G01*
X95250000Y-59690000D02*
G75*
G02X97790000Y-62230000I0J-2540000D01*
G01*
D13*
G04 #@! TO.C,U1*
X143510000Y-78105000D02*
X140970000Y-78105000D01*
X143510000Y-75565000D02*
X143510000Y-78105000D01*
X162560000Y-106045000D02*
X162560000Y-75565000D01*
X140970000Y-106045000D02*
X162560000Y-106045000D01*
X140970000Y-75565000D02*
X140970000Y-106045000D01*
X162560000Y-75565000D02*
X140970000Y-75565000D01*
D10*
G04 #@! TO.C,D0*
X93980000Y-74168000D02*
X88900000Y-74168000D01*
X88900000Y-74168000D02*
X88900000Y-75692000D01*
X88900000Y-75692000D02*
X93980000Y-75692000D01*
X93980000Y-75692000D02*
X93980000Y-74168000D01*
X93980000Y-74168000D02*
X93472000Y-74168000D01*
X89281000Y-74168000D02*
X89281000Y-75692000D01*
X89154000Y-75692000D02*
X89154000Y-74168000D01*
X89027000Y-74168000D02*
X89027000Y-75692000D01*
X89408000Y-75692000D02*
X89408000Y-74168000D01*
X89535000Y-74168000D02*
X89535000Y-75692000D01*
X89662000Y-74168000D02*
X89662000Y-75692000D01*
D12*
G04 #@! TO.C,RGB_STRIP1*
X194652000Y-111720000D02*
X194652000Y-106660000D01*
X194652000Y-106660000D02*
X206372000Y-106660000D01*
X206372000Y-106660000D02*
X206372000Y-108080000D01*
X206372000Y-108080000D02*
X201872000Y-108080000D01*
X201872000Y-108080000D02*
X201872000Y-111720000D01*
X194652000Y-111720000D02*
X194652000Y-116780000D01*
X194652000Y-116780000D02*
X206372000Y-116780000D01*
X206372000Y-116780000D02*
X206372000Y-115360000D01*
X206372000Y-115360000D02*
X201872000Y-115360000D01*
X201872000Y-115360000D02*
X201872000Y-111720000D01*
X200762000Y-108970000D02*
X195262000Y-108970000D01*
X195262000Y-108970000D02*
X195262000Y-109470000D01*
X195262000Y-109470000D02*
X200762000Y-109470000D01*
X200762000Y-109470000D02*
X200762000Y-108970000D01*
X200762000Y-111470000D02*
X195262000Y-111470000D01*
X195262000Y-111470000D02*
X195262000Y-111970000D01*
X195262000Y-111970000D02*
X200762000Y-111970000D01*
X200762000Y-111970000D02*
X200762000Y-111470000D01*
X200762000Y-113970000D02*
X195262000Y-113970000D01*
X195262000Y-113970000D02*
X195262000Y-114470000D01*
X195262000Y-114470000D02*
X200762000Y-114470000D01*
X200762000Y-114470000D02*
X200762000Y-113970000D01*
X205462000Y-109220000D02*
X206062000Y-108920000D01*
X206062000Y-108920000D02*
X206062000Y-109520000D01*
X206062000Y-109520000D02*
X205462000Y-109220000D01*
G04 #@! TO.C,RESET1*
X101747000Y-109054000D02*
X105557000Y-109054000D01*
X105557000Y-109054000D02*
X105557000Y-120774000D01*
X105557000Y-120774000D02*
X104137000Y-120774000D01*
X104137000Y-120774000D02*
X104137000Y-116274000D01*
X104137000Y-116274000D02*
X101747000Y-116274000D01*
X101747000Y-109054000D02*
X97937000Y-109054000D01*
X97937000Y-109054000D02*
X97937000Y-120774000D01*
X97937000Y-120774000D02*
X99357000Y-120774000D01*
X99357000Y-120774000D02*
X99357000Y-116274000D01*
X99357000Y-116274000D02*
X101747000Y-116274000D01*
X103247000Y-115164000D02*
X103247000Y-109664000D01*
X103247000Y-109664000D02*
X102747000Y-109664000D01*
X102747000Y-109664000D02*
X102747000Y-115164000D01*
X102747000Y-115164000D02*
X103247000Y-115164000D01*
X100747000Y-115164000D02*
X100747000Y-109664000D01*
X100747000Y-109664000D02*
X100247000Y-109664000D01*
X100247000Y-109664000D02*
X100247000Y-115164000D01*
X100247000Y-115164000D02*
X100747000Y-115164000D01*
X102997000Y-119864000D02*
X103297000Y-120464000D01*
X103297000Y-120464000D02*
X102697000Y-120464000D01*
X102697000Y-120464000D02*
X102997000Y-119864000D01*
G04 #@! TO.C,BOARD_COMM1*
X209716001Y-60258000D02*
X209716000Y-66567999D01*
X209716000Y-66567999D02*
X197996000Y-66568000D01*
X197996000Y-66568000D02*
X197996000Y-65148000D01*
X197996000Y-65148000D02*
X202496000Y-65148000D01*
X202496000Y-65148000D02*
X202496000Y-60258000D01*
X209716001Y-60258000D02*
X209716000Y-53948000D01*
X209716000Y-53948000D02*
X197996000Y-53948000D01*
X197996000Y-53948000D02*
X197996000Y-55368000D01*
X197996000Y-55368000D02*
X202496000Y-55368000D01*
X202496000Y-55368000D02*
X202496000Y-60258000D01*
X203606000Y-64258000D02*
X209106000Y-64258000D01*
X209106000Y-64258000D02*
X209106000Y-63758000D01*
X209106000Y-63758000D02*
X203606000Y-63758000D01*
X203606000Y-63758000D02*
X203606000Y-64258000D01*
X203606000Y-61758000D02*
X209106000Y-61758000D01*
X209106000Y-61758000D02*
X209106000Y-61258000D01*
X209106000Y-61258000D02*
X203606000Y-61258000D01*
X203606000Y-61258000D02*
X203606000Y-61758000D01*
X203606000Y-59258000D02*
X209106000Y-59258000D01*
X209106000Y-59258000D02*
X209106000Y-58757999D01*
X209106000Y-58757999D02*
X203606000Y-58758000D01*
X203606000Y-58758000D02*
X203606000Y-59258000D01*
X203606000Y-56758000D02*
X209106000Y-56758000D01*
X209106000Y-56758000D02*
X209106000Y-56257999D01*
X209106000Y-56257999D02*
X203606000Y-56258000D01*
X203606000Y-56258000D02*
X203606000Y-56758000D01*
X198906000Y-64008000D02*
X198306000Y-64308000D01*
X198306000Y-64308000D02*
X198306000Y-63708000D01*
X198306000Y-63708000D02*
X198906000Y-64008000D01*
D10*
G04 #@! TO.C,D1*
X111252000Y-74168000D02*
X111252000Y-75692000D01*
X111125000Y-74168000D02*
X111125000Y-75692000D01*
X110998000Y-75692000D02*
X110998000Y-74168000D01*
X110617000Y-74168000D02*
X110617000Y-75692000D01*
X110744000Y-75692000D02*
X110744000Y-74168000D01*
X110871000Y-74168000D02*
X110871000Y-75692000D01*
X115570000Y-74168000D02*
X115062000Y-74168000D01*
X115570000Y-75692000D02*
X115570000Y-74168000D01*
X110490000Y-75692000D02*
X115570000Y-75692000D01*
X110490000Y-74168000D02*
X110490000Y-75692000D01*
X115570000Y-74168000D02*
X110490000Y-74168000D01*
G04 #@! TO.C,D2*
X130302000Y-69723000D02*
X130302000Y-71247000D01*
X130175000Y-69723000D02*
X130175000Y-71247000D01*
X130048000Y-71247000D02*
X130048000Y-69723000D01*
X129667000Y-69723000D02*
X129667000Y-71247000D01*
X129794000Y-71247000D02*
X129794000Y-69723000D01*
X129921000Y-69723000D02*
X129921000Y-71247000D01*
X134620000Y-69723000D02*
X134112000Y-69723000D01*
X134620000Y-71247000D02*
X134620000Y-69723000D01*
X129540000Y-71247000D02*
X134620000Y-71247000D01*
X129540000Y-69723000D02*
X129540000Y-71247000D01*
X134620000Y-69723000D02*
X129540000Y-69723000D01*
G04 #@! TO.C,D3*
X149352000Y-67183000D02*
X149352000Y-68707000D01*
X149225000Y-67183000D02*
X149225000Y-68707000D01*
X149098000Y-68707000D02*
X149098000Y-67183000D01*
X148717000Y-67183000D02*
X148717000Y-68707000D01*
X148844000Y-68707000D02*
X148844000Y-67183000D01*
X148971000Y-67183000D02*
X148971000Y-68707000D01*
X153670000Y-67183000D02*
X153162000Y-67183000D01*
X153670000Y-68707000D02*
X153670000Y-67183000D01*
X148590000Y-68707000D02*
X153670000Y-68707000D01*
X148590000Y-67183000D02*
X148590000Y-68707000D01*
X153670000Y-67183000D02*
X148590000Y-67183000D01*
G04 #@! TO.C,D4*
X168402000Y-69723000D02*
X168402000Y-71247000D01*
X168275000Y-69723000D02*
X168275000Y-71247000D01*
X168148000Y-71247000D02*
X168148000Y-69723000D01*
X167767000Y-69723000D02*
X167767000Y-71247000D01*
X167894000Y-71247000D02*
X167894000Y-69723000D01*
X168021000Y-69723000D02*
X168021000Y-71247000D01*
X172720000Y-69723000D02*
X172212000Y-69723000D01*
X172720000Y-71247000D02*
X172720000Y-69723000D01*
X167640000Y-71247000D02*
X172720000Y-71247000D01*
X167640000Y-69723000D02*
X167640000Y-71247000D01*
X172720000Y-69723000D02*
X167640000Y-69723000D01*
G04 #@! TO.C,D5*
X187452000Y-71628000D02*
X187452000Y-73152000D01*
X187325000Y-71628000D02*
X187325000Y-73152000D01*
X187198000Y-73152000D02*
X187198000Y-71628000D01*
X186817000Y-71628000D02*
X186817000Y-73152000D01*
X186944000Y-73152000D02*
X186944000Y-71628000D01*
X187071000Y-71628000D02*
X187071000Y-73152000D01*
X191770000Y-71628000D02*
X191262000Y-71628000D01*
X191770000Y-73152000D02*
X191770000Y-71628000D01*
X186690000Y-73152000D02*
X191770000Y-73152000D01*
X186690000Y-71628000D02*
X186690000Y-73152000D01*
X191770000Y-71628000D02*
X186690000Y-71628000D01*
G04 #@! TO.C,D6*
X206502000Y-81153000D02*
X206502000Y-82677000D01*
X206375000Y-81153000D02*
X206375000Y-82677000D01*
X206248000Y-82677000D02*
X206248000Y-81153000D01*
X205867000Y-81153000D02*
X205867000Y-82677000D01*
X205994000Y-82677000D02*
X205994000Y-81153000D01*
X206121000Y-81153000D02*
X206121000Y-82677000D01*
X210820000Y-81153000D02*
X210312000Y-81153000D01*
X210820000Y-82677000D02*
X210820000Y-81153000D01*
X205740000Y-82677000D02*
X210820000Y-82677000D01*
X205740000Y-81153000D02*
X205740000Y-82677000D01*
X210820000Y-81153000D02*
X205740000Y-81153000D01*
G04 #@! TO.C,D10*
X89662000Y-93218000D02*
X89662000Y-94742000D01*
X89535000Y-93218000D02*
X89535000Y-94742000D01*
X89408000Y-94742000D02*
X89408000Y-93218000D01*
X89027000Y-93218000D02*
X89027000Y-94742000D01*
X89154000Y-94742000D02*
X89154000Y-93218000D01*
X89281000Y-93218000D02*
X89281000Y-94742000D01*
X93980000Y-93218000D02*
X93472000Y-93218000D01*
X93980000Y-94742000D02*
X93980000Y-93218000D01*
X88900000Y-94742000D02*
X93980000Y-94742000D01*
X88900000Y-93218000D02*
X88900000Y-94742000D01*
X93980000Y-93218000D02*
X88900000Y-93218000D01*
G04 #@! TO.C,D11*
X111252000Y-93218000D02*
X111252000Y-94742000D01*
X111125000Y-93218000D02*
X111125000Y-94742000D01*
X110998000Y-94742000D02*
X110998000Y-93218000D01*
X110617000Y-93218000D02*
X110617000Y-94742000D01*
X110744000Y-94742000D02*
X110744000Y-93218000D01*
X110871000Y-93218000D02*
X110871000Y-94742000D01*
X115570000Y-93218000D02*
X115062000Y-93218000D01*
X115570000Y-94742000D02*
X115570000Y-93218000D01*
X110490000Y-94742000D02*
X115570000Y-94742000D01*
X110490000Y-93218000D02*
X110490000Y-94742000D01*
X115570000Y-93218000D02*
X110490000Y-93218000D01*
G04 #@! TO.C,D12*
X130302000Y-88773000D02*
X130302000Y-90297000D01*
X130175000Y-88773000D02*
X130175000Y-90297000D01*
X130048000Y-90297000D02*
X130048000Y-88773000D01*
X129667000Y-88773000D02*
X129667000Y-90297000D01*
X129794000Y-90297000D02*
X129794000Y-88773000D01*
X129921000Y-88773000D02*
X129921000Y-90297000D01*
X134620000Y-88773000D02*
X134112000Y-88773000D01*
X134620000Y-90297000D02*
X134620000Y-88773000D01*
X129540000Y-90297000D02*
X134620000Y-90297000D01*
X129540000Y-88773000D02*
X129540000Y-90297000D01*
X134620000Y-88773000D02*
X129540000Y-88773000D01*
G04 #@! TO.C,D13*
X149352000Y-86233000D02*
X149352000Y-87757000D01*
X149225000Y-86233000D02*
X149225000Y-87757000D01*
X149098000Y-87757000D02*
X149098000Y-86233000D01*
X148717000Y-86233000D02*
X148717000Y-87757000D01*
X148844000Y-87757000D02*
X148844000Y-86233000D01*
X148971000Y-86233000D02*
X148971000Y-87757000D01*
X153670000Y-86233000D02*
X153162000Y-86233000D01*
X153670000Y-87757000D02*
X153670000Y-86233000D01*
X148590000Y-87757000D02*
X153670000Y-87757000D01*
X148590000Y-86233000D02*
X148590000Y-87757000D01*
X153670000Y-86233000D02*
X148590000Y-86233000D01*
G04 #@! TO.C,D14*
X168402000Y-88773000D02*
X168402000Y-90297000D01*
X168275000Y-88773000D02*
X168275000Y-90297000D01*
X168148000Y-90297000D02*
X168148000Y-88773000D01*
X167767000Y-88773000D02*
X167767000Y-90297000D01*
X167894000Y-90297000D02*
X167894000Y-88773000D01*
X168021000Y-88773000D02*
X168021000Y-90297000D01*
X172720000Y-88773000D02*
X172212000Y-88773000D01*
X172720000Y-90297000D02*
X172720000Y-88773000D01*
X167640000Y-90297000D02*
X172720000Y-90297000D01*
X167640000Y-88773000D02*
X167640000Y-90297000D01*
X172720000Y-88773000D02*
X167640000Y-88773000D01*
G04 #@! TO.C,D15*
X187452000Y-90678000D02*
X187452000Y-92202000D01*
X187325000Y-90678000D02*
X187325000Y-92202000D01*
X187198000Y-92202000D02*
X187198000Y-90678000D01*
X186817000Y-90678000D02*
X186817000Y-92202000D01*
X186944000Y-92202000D02*
X186944000Y-90678000D01*
X187071000Y-90678000D02*
X187071000Y-92202000D01*
X191770000Y-90678000D02*
X191262000Y-90678000D01*
X191770000Y-92202000D02*
X191770000Y-90678000D01*
X186690000Y-92202000D02*
X191770000Y-92202000D01*
X186690000Y-90678000D02*
X186690000Y-92202000D01*
X191770000Y-90678000D02*
X186690000Y-90678000D01*
G04 #@! TO.C,D16*
X206502000Y-88646000D02*
X206502000Y-90170000D01*
X206375000Y-88646000D02*
X206375000Y-90170000D01*
X206248000Y-90170000D02*
X206248000Y-88646000D01*
X205867000Y-88646000D02*
X205867000Y-90170000D01*
X205994000Y-90170000D02*
X205994000Y-88646000D01*
X206121000Y-88646000D02*
X206121000Y-90170000D01*
X210820000Y-88646000D02*
X210312000Y-88646000D01*
X210820000Y-90170000D02*
X210820000Y-88646000D01*
X205740000Y-90170000D02*
X210820000Y-90170000D01*
X205740000Y-88646000D02*
X205740000Y-90170000D01*
X210820000Y-88646000D02*
X205740000Y-88646000D01*
G04 #@! TO.C,D20*
X89662000Y-112268000D02*
X89662000Y-113792000D01*
X89535000Y-112268000D02*
X89535000Y-113792000D01*
X89408000Y-113792000D02*
X89408000Y-112268000D01*
X89027000Y-112268000D02*
X89027000Y-113792000D01*
X89154000Y-113792000D02*
X89154000Y-112268000D01*
X89281000Y-112268000D02*
X89281000Y-113792000D01*
X93980000Y-112268000D02*
X93472000Y-112268000D01*
X93980000Y-113792000D02*
X93980000Y-112268000D01*
X88900000Y-113792000D02*
X93980000Y-113792000D01*
X88900000Y-112268000D02*
X88900000Y-113792000D01*
X93980000Y-112268000D02*
X88900000Y-112268000D01*
G04 #@! TO.C,D21*
X111252000Y-112268000D02*
X111252000Y-113792000D01*
X111125000Y-112268000D02*
X111125000Y-113792000D01*
X110998000Y-113792000D02*
X110998000Y-112268000D01*
X110617000Y-112268000D02*
X110617000Y-113792000D01*
X110744000Y-113792000D02*
X110744000Y-112268000D01*
X110871000Y-112268000D02*
X110871000Y-113792000D01*
X115570000Y-112268000D02*
X115062000Y-112268000D01*
X115570000Y-113792000D02*
X115570000Y-112268000D01*
X110490000Y-113792000D02*
X115570000Y-113792000D01*
X110490000Y-112268000D02*
X110490000Y-113792000D01*
X115570000Y-112268000D02*
X110490000Y-112268000D01*
G04 #@! TO.C,D22*
X130302000Y-107823000D02*
X130302000Y-109347000D01*
X130175000Y-107823000D02*
X130175000Y-109347000D01*
X130048000Y-109347000D02*
X130048000Y-107823000D01*
X129667000Y-107823000D02*
X129667000Y-109347000D01*
X129794000Y-109347000D02*
X129794000Y-107823000D01*
X129921000Y-107823000D02*
X129921000Y-109347000D01*
X134620000Y-107823000D02*
X134112000Y-107823000D01*
X134620000Y-109347000D02*
X134620000Y-107823000D01*
X129540000Y-109347000D02*
X134620000Y-109347000D01*
X129540000Y-107823000D02*
X129540000Y-109347000D01*
X134620000Y-107823000D02*
X129540000Y-107823000D01*
G04 #@! TO.C,D23*
X149352000Y-105283000D02*
X149352000Y-106807000D01*
X149225000Y-105283000D02*
X149225000Y-106807000D01*
X149098000Y-106807000D02*
X149098000Y-105283000D01*
X148717000Y-105283000D02*
X148717000Y-106807000D01*
X148844000Y-106807000D02*
X148844000Y-105283000D01*
X148971000Y-105283000D02*
X148971000Y-106807000D01*
X153670000Y-105283000D02*
X153162000Y-105283000D01*
X153670000Y-106807000D02*
X153670000Y-105283000D01*
X148590000Y-106807000D02*
X153670000Y-106807000D01*
X148590000Y-105283000D02*
X148590000Y-106807000D01*
X153670000Y-105283000D02*
X148590000Y-105283000D01*
G04 #@! TO.C,D24*
X168402000Y-107823000D02*
X168402000Y-109347000D01*
X168275000Y-107823000D02*
X168275000Y-109347000D01*
X168148000Y-109347000D02*
X168148000Y-107823000D01*
X167767000Y-107823000D02*
X167767000Y-109347000D01*
X167894000Y-109347000D02*
X167894000Y-107823000D01*
X168021000Y-107823000D02*
X168021000Y-109347000D01*
X172720000Y-107823000D02*
X172212000Y-107823000D01*
X172720000Y-109347000D02*
X172720000Y-107823000D01*
X167640000Y-109347000D02*
X172720000Y-109347000D01*
X167640000Y-107823000D02*
X167640000Y-109347000D01*
X172720000Y-107823000D02*
X167640000Y-107823000D01*
G04 #@! TO.C,D25*
X187452000Y-109728000D02*
X187452000Y-111252000D01*
X187325000Y-109728000D02*
X187325000Y-111252000D01*
X187198000Y-111252000D02*
X187198000Y-109728000D01*
X186817000Y-109728000D02*
X186817000Y-111252000D01*
X186944000Y-111252000D02*
X186944000Y-109728000D01*
X187071000Y-109728000D02*
X187071000Y-111252000D01*
X191770000Y-109728000D02*
X191262000Y-109728000D01*
X191770000Y-111252000D02*
X191770000Y-109728000D01*
X186690000Y-111252000D02*
X191770000Y-111252000D01*
X186690000Y-109728000D02*
X186690000Y-111252000D01*
X191770000Y-109728000D02*
X186690000Y-109728000D01*
G04 #@! TO.C,D26*
X206486207Y-133071089D02*
X205724207Y-134390911D01*
X206376222Y-133007589D02*
X205614222Y-134327411D01*
X205504236Y-134263911D02*
X206266236Y-132944089D01*
X205936281Y-132753589D02*
X205174281Y-134073411D01*
X205284266Y-134136911D02*
X206046266Y-132817089D01*
X206156251Y-132880589D02*
X205394251Y-134200411D01*
X210225705Y-135230089D02*
X209785764Y-134976089D01*
X209463705Y-136549911D02*
X210225705Y-135230089D01*
X205064295Y-134009911D02*
X209463705Y-136549911D01*
X205826295Y-132690089D02*
X205064295Y-134009911D01*
X210225705Y-135230089D02*
X205826295Y-132690089D01*
G04 #@! TO.C,D30*
X89662000Y-131318000D02*
X89662000Y-132842000D01*
X89535000Y-131318000D02*
X89535000Y-132842000D01*
X89408000Y-132842000D02*
X89408000Y-131318000D01*
X89027000Y-131318000D02*
X89027000Y-132842000D01*
X89154000Y-132842000D02*
X89154000Y-131318000D01*
X89281000Y-131318000D02*
X89281000Y-132842000D01*
X93980000Y-131318000D02*
X93472000Y-131318000D01*
X93980000Y-132842000D02*
X93980000Y-131318000D01*
X88900000Y-132842000D02*
X93980000Y-132842000D01*
X88900000Y-131318000D02*
X88900000Y-132842000D01*
X93980000Y-131318000D02*
X88900000Y-131318000D01*
G04 #@! TO.C,D31*
X111252000Y-131318000D02*
X111252000Y-132842000D01*
X111125000Y-131318000D02*
X111125000Y-132842000D01*
X110998000Y-132842000D02*
X110998000Y-131318000D01*
X110617000Y-131318000D02*
X110617000Y-132842000D01*
X110744000Y-132842000D02*
X110744000Y-131318000D01*
X110871000Y-131318000D02*
X110871000Y-132842000D01*
X115570000Y-131318000D02*
X115062000Y-131318000D01*
X115570000Y-132842000D02*
X115570000Y-131318000D01*
X110490000Y-132842000D02*
X115570000Y-132842000D01*
X110490000Y-131318000D02*
X110490000Y-132842000D01*
X115570000Y-131318000D02*
X110490000Y-131318000D01*
G04 #@! TO.C,D32*
X130302000Y-126873000D02*
X130302000Y-128397000D01*
X130175000Y-126873000D02*
X130175000Y-128397000D01*
X130048000Y-128397000D02*
X130048000Y-126873000D01*
X129667000Y-126873000D02*
X129667000Y-128397000D01*
X129794000Y-128397000D02*
X129794000Y-126873000D01*
X129921000Y-126873000D02*
X129921000Y-128397000D01*
X134620000Y-126873000D02*
X134112000Y-126873000D01*
X134620000Y-128397000D02*
X134620000Y-126873000D01*
X129540000Y-128397000D02*
X134620000Y-128397000D01*
X129540000Y-126873000D02*
X129540000Y-128397000D01*
X134620000Y-126873000D02*
X129540000Y-126873000D01*
G04 #@! TO.C,D33*
X149352000Y-124333000D02*
X149352000Y-125857000D01*
X149225000Y-124333000D02*
X149225000Y-125857000D01*
X149098000Y-125857000D02*
X149098000Y-124333000D01*
X148717000Y-124333000D02*
X148717000Y-125857000D01*
X148844000Y-125857000D02*
X148844000Y-124333000D01*
X148971000Y-124333000D02*
X148971000Y-125857000D01*
X153670000Y-124333000D02*
X153162000Y-124333000D01*
X153670000Y-125857000D02*
X153670000Y-124333000D01*
X148590000Y-125857000D02*
X153670000Y-125857000D01*
X148590000Y-124333000D02*
X148590000Y-125857000D01*
X153670000Y-124333000D02*
X148590000Y-124333000D01*
G04 #@! TO.C,D34*
X168402000Y-126873000D02*
X168402000Y-128397000D01*
X168275000Y-126873000D02*
X168275000Y-128397000D01*
X168148000Y-128397000D02*
X168148000Y-126873000D01*
X167767000Y-126873000D02*
X167767000Y-128397000D01*
X167894000Y-128397000D02*
X167894000Y-126873000D01*
X168021000Y-126873000D02*
X168021000Y-128397000D01*
X172720000Y-126873000D02*
X172212000Y-126873000D01*
X172720000Y-128397000D02*
X172720000Y-126873000D01*
X167640000Y-128397000D02*
X172720000Y-128397000D01*
X167640000Y-126873000D02*
X167640000Y-128397000D01*
X172720000Y-126873000D02*
X167640000Y-126873000D01*
G04 #@! TO.C,D35*
X187452000Y-128778000D02*
X187452000Y-130302000D01*
X187325000Y-128778000D02*
X187325000Y-130302000D01*
X187198000Y-130302000D02*
X187198000Y-128778000D01*
X186817000Y-128778000D02*
X186817000Y-130302000D01*
X186944000Y-130302000D02*
X186944000Y-128778000D01*
X187071000Y-128778000D02*
X187071000Y-130302000D01*
X191770000Y-128778000D02*
X191262000Y-128778000D01*
X191770000Y-130302000D02*
X191770000Y-128778000D01*
X186690000Y-130302000D02*
X191770000Y-130302000D01*
X186690000Y-128778000D02*
X186690000Y-130302000D01*
X191770000Y-128778000D02*
X186690000Y-128778000D01*
G04 #@! TO.C,D36*
X222996207Y-142596089D02*
X222234207Y-143915911D01*
X222886222Y-142532589D02*
X222124222Y-143852411D01*
X222014236Y-143788911D02*
X222776236Y-142469089D01*
X222446281Y-142278589D02*
X221684281Y-143598411D01*
X221794266Y-143661911D02*
X222556266Y-142342089D01*
X222666251Y-142405589D02*
X221904251Y-143725411D01*
X226735705Y-144755089D02*
X226295764Y-144501089D01*
X225973705Y-146074911D02*
X226735705Y-144755089D01*
X221574295Y-143534911D02*
X225973705Y-146074911D01*
X222336295Y-142215089D02*
X221574295Y-143534911D01*
X226735705Y-144755089D02*
X222336295Y-142215089D01*
G04 #@! TO.C,D40*
X103378000Y-144399000D02*
X104902000Y-144399000D01*
X103378000Y-144526000D02*
X104902000Y-144526000D01*
X104902000Y-144653000D02*
X103378000Y-144653000D01*
X103378000Y-145034000D02*
X104902000Y-145034000D01*
X104902000Y-144907000D02*
X103378000Y-144907000D01*
X103378000Y-144780000D02*
X104902000Y-144780000D01*
X103378000Y-140081000D02*
X103378000Y-140589000D01*
X104902000Y-140081000D02*
X103378000Y-140081000D01*
X104902000Y-145161000D02*
X104902000Y-140081000D01*
X103378000Y-145161000D02*
X104902000Y-145161000D01*
X103378000Y-140081000D02*
X103378000Y-145161000D01*
G04 #@! TO.C,D41*
X122428000Y-143586000D02*
X123952000Y-143586000D01*
X122428000Y-143713000D02*
X123952000Y-143713000D01*
X123952000Y-143840000D02*
X122428000Y-143840000D01*
X122428000Y-144221000D02*
X123952000Y-144221000D01*
X123952000Y-144094000D02*
X122428000Y-144094000D01*
X122428000Y-143967000D02*
X123952000Y-143967000D01*
X122428000Y-139268000D02*
X122428000Y-139776000D01*
X123952000Y-139268000D02*
X122428000Y-139268000D01*
X123952000Y-144348000D02*
X123952000Y-139268000D01*
X122428000Y-144348000D02*
X123952000Y-144348000D01*
X122428000Y-139268000D02*
X122428000Y-144348000D01*
G04 #@! TO.C,D42*
X141478000Y-139065000D02*
X143002000Y-139065000D01*
X141478000Y-139192000D02*
X143002000Y-139192000D01*
X143002000Y-139319000D02*
X141478000Y-139319000D01*
X141478000Y-139700000D02*
X143002000Y-139700000D01*
X143002000Y-139573000D02*
X141478000Y-139573000D01*
X141478000Y-139446000D02*
X143002000Y-139446000D01*
X141478000Y-134747000D02*
X141478000Y-135255000D01*
X143002000Y-134747000D02*
X141478000Y-134747000D01*
X143002000Y-139827000D02*
X143002000Y-134747000D01*
X141478000Y-139827000D02*
X143002000Y-139827000D01*
X141478000Y-134747000D02*
X141478000Y-139827000D01*
G04 #@! TO.C,D43*
X161036000Y-137795000D02*
X162560000Y-137795000D01*
X161036000Y-137922000D02*
X162560000Y-137922000D01*
X162560000Y-138049000D02*
X161036000Y-138049000D01*
X161036000Y-138430000D02*
X162560000Y-138430000D01*
X162560000Y-138303000D02*
X161036000Y-138303000D01*
X161036000Y-138176000D02*
X162560000Y-138176000D01*
X161036000Y-133477000D02*
X161036000Y-133985000D01*
X162560000Y-133477000D02*
X161036000Y-133477000D01*
X162560000Y-138557000D02*
X162560000Y-133477000D01*
X161036000Y-138557000D02*
X162560000Y-138557000D01*
X161036000Y-133477000D02*
X161036000Y-138557000D01*
G04 #@! TO.C,D44*
X186128784Y-145792196D02*
X187600855Y-146186636D01*
X186095914Y-145914869D02*
X187567985Y-146309309D01*
X187535115Y-146431981D02*
X186063044Y-146037541D01*
X185964434Y-146405559D02*
X187436505Y-146799999D01*
X187469375Y-146677327D02*
X185997304Y-146282886D01*
X186030174Y-146160214D02*
X187502245Y-146554654D01*
X187246365Y-141621328D02*
X187114885Y-142112019D01*
X188718436Y-142015769D02*
X187246365Y-141621328D01*
X187403635Y-146922672D02*
X188718436Y-142015769D01*
X185931564Y-146528231D02*
X187403635Y-146922672D01*
X187246365Y-141621328D02*
X185931564Y-146528231D01*
G04 #@! TO.C,D45*
X194167207Y-154407089D02*
X193405207Y-155726911D01*
X194057222Y-154343589D02*
X193295222Y-155663411D01*
X193185236Y-155599911D02*
X193947236Y-154280089D01*
X193617281Y-154089589D02*
X192855281Y-155409411D01*
X192965266Y-155472911D02*
X193727266Y-154153089D01*
X193837251Y-154216589D02*
X193075251Y-155536411D01*
X197906705Y-156566089D02*
X197466764Y-156312089D01*
X197144705Y-157885911D02*
X197906705Y-156566089D01*
X192745295Y-155345911D02*
X197144705Y-157885911D01*
X193507295Y-154026089D02*
X192745295Y-155345911D01*
X197906705Y-156566089D02*
X193507295Y-154026089D01*
G04 #@! TO.C,D46*
X210931207Y-164059089D02*
X210169207Y-165378911D01*
X210821222Y-163995589D02*
X210059222Y-165315411D01*
X209949236Y-165251911D02*
X210711236Y-163932089D01*
X210381281Y-163741589D02*
X209619281Y-165061411D01*
X209729266Y-165124911D02*
X210491266Y-163805089D01*
X210601251Y-163868589D02*
X209839251Y-165188411D01*
X214670705Y-166218089D02*
X214230764Y-165964089D01*
X213908705Y-167537911D02*
X214670705Y-166218089D01*
X209509295Y-164997911D02*
X213908705Y-167537911D01*
X210271295Y-163678089D02*
X209509295Y-164997911D01*
X214670705Y-166218089D02*
X210271295Y-163678089D01*
G04 #@! TO.C,R1*
X179451000Y-54610000D02*
X178943000Y-54610000D01*
X185547000Y-54610000D02*
X185039000Y-54610000D01*
X185039000Y-53848000D02*
X185039000Y-55372000D01*
X184785000Y-53594000D02*
X185039000Y-53848000D01*
X184531000Y-53594000D02*
X184785000Y-53594000D01*
X184277000Y-53848000D02*
X184531000Y-53594000D01*
X180213000Y-53848000D02*
X184277000Y-53848000D01*
X179959000Y-53594000D02*
X180213000Y-53848000D01*
X179705000Y-53594000D02*
X179959000Y-53594000D01*
X179451000Y-53848000D02*
X179705000Y-53594000D01*
X179451000Y-55372000D02*
X179451000Y-53848000D01*
X179705000Y-55626000D02*
X179451000Y-55372000D01*
X179959000Y-55626000D02*
X179705000Y-55626000D01*
X180213000Y-55372000D02*
X179959000Y-55626000D01*
X184277000Y-55372000D02*
X180213000Y-55372000D01*
X184531000Y-55626000D02*
X184277000Y-55372000D01*
X184785000Y-55626000D02*
X184531000Y-55626000D01*
X185039000Y-55372000D02*
X184785000Y-55626000D01*
G04 #@! TO.C,R2*
X190246000Y-54610000D02*
X189738000Y-54610000D01*
X196342000Y-54610000D02*
X195834000Y-54610000D01*
X195834000Y-53848000D02*
X195834000Y-55372000D01*
X195580000Y-53594000D02*
X195834000Y-53848000D01*
X195326000Y-53594000D02*
X195580000Y-53594000D01*
X195072000Y-53848000D02*
X195326000Y-53594000D01*
X191008000Y-53848000D02*
X195072000Y-53848000D01*
X190754000Y-53594000D02*
X191008000Y-53848000D01*
X190500000Y-53594000D02*
X190754000Y-53594000D01*
X190246000Y-53848000D02*
X190500000Y-53594000D01*
X190246000Y-55372000D02*
X190246000Y-53848000D01*
X190500000Y-55626000D02*
X190246000Y-55372000D01*
X190754000Y-55626000D02*
X190500000Y-55626000D01*
X191008000Y-55372000D02*
X190754000Y-55626000D01*
X195072000Y-55372000D02*
X191008000Y-55372000D01*
X195326000Y-55626000D02*
X195072000Y-55372000D01*
X195580000Y-55626000D02*
X195326000Y-55626000D01*
X195834000Y-55372000D02*
X195580000Y-55626000D01*
G04 #@! TD*
D14*
G04 #@! TO.C,R3*
X199886000Y-96864000D02*
G75*
G03X199886000Y-96864000I-750000J0D01*
G01*
G04 #@! TD*
G04 #@! TO.C,U1*
X141413700Y-76008700D02*
X141413700Y-77661300D01*
X143066300Y-77661300D01*
X143066300Y-76008700D01*
X141413700Y-76008700D01*
X143066300Y-79375000D02*
G75*
G03X143066300Y-79375000I-826300J0D01*
G01*
X143066300Y-81915000D02*
G75*
G03X143066300Y-81915000I-826300J0D01*
G01*
X143066300Y-84455000D02*
G75*
G03X143066300Y-84455000I-826300J0D01*
G01*
X143066300Y-86995000D02*
G75*
G03X143066300Y-86995000I-826300J0D01*
G01*
X143066300Y-89535000D02*
G75*
G03X143066300Y-89535000I-826300J0D01*
G01*
X143066300Y-92075000D02*
G75*
G03X143066300Y-92075000I-826300J0D01*
G01*
X143066300Y-94615000D02*
G75*
G03X143066300Y-94615000I-826300J0D01*
G01*
X143066300Y-97155000D02*
G75*
G03X143066300Y-97155000I-826300J0D01*
G01*
X143066300Y-99695000D02*
G75*
G03X143066300Y-99695000I-826300J0D01*
G01*
X143066300Y-102235000D02*
G75*
G03X143066300Y-102235000I-826300J0D01*
G01*
X162116300Y-104775000D02*
G75*
G03X162116300Y-104775000I-826300J0D01*
G01*
X162116300Y-102235000D02*
G75*
G03X162116300Y-102235000I-826300J0D01*
G01*
X162116300Y-99695000D02*
G75*
G03X162116300Y-99695000I-826300J0D01*
G01*
X162116300Y-97155000D02*
G75*
G03X162116300Y-97155000I-826300J0D01*
G01*
X162116300Y-94615000D02*
G75*
G03X162116300Y-94615000I-826300J0D01*
G01*
X162116300Y-92075000D02*
G75*
G03X162116300Y-92075000I-826300J0D01*
G01*
X162116300Y-89535000D02*
G75*
G03X162116300Y-89535000I-826300J0D01*
G01*
X162116300Y-86995000D02*
G75*
G03X162116300Y-86995000I-826300J0D01*
G01*
X162116300Y-84455000D02*
G75*
G03X162116300Y-84455000I-826300J0D01*
G01*
X162116300Y-81915000D02*
G75*
G03X162116300Y-81915000I-826300J0D01*
G01*
X162116300Y-79375000D02*
G75*
G03X162116300Y-79375000I-826300J0D01*
G01*
X143066300Y-104775000D02*
G75*
G03X143066300Y-104775000I-826300J0D01*
G01*
X162116300Y-76835000D02*
G75*
G03X162116300Y-76835000I-826300J0D01*
G01*
G04 #@! TD*
G04 #@! TO.C,D0*
X86790000Y-74180000D02*
X86790000Y-75680000D01*
X88290000Y-75680000D01*
X88290000Y-74180000D01*
X86790000Y-74180000D01*
X96090000Y-74930000D02*
G75*
G03X96090000Y-74930000I-750000J0D01*
G01*
G04 #@! TD*
G04 #@! TO.C,D1*
X117680000Y-74930000D02*
G75*
G03X117680000Y-74930000I-750000J0D01*
G01*
X108380000Y-74180000D02*
X108380000Y-75680000D01*
X109880000Y-75680000D01*
X109880000Y-74180000D01*
X108380000Y-74180000D01*
G04 #@! TD*
G04 #@! TO.C,D2*
X136730000Y-70485000D02*
G75*
G03X136730000Y-70485000I-750000J0D01*
G01*
X127430000Y-69735000D02*
X127430000Y-71235000D01*
X128930000Y-71235000D01*
X128930000Y-69735000D01*
X127430000Y-69735000D01*
G04 #@! TD*
G04 #@! TO.C,D3*
X155780000Y-67945000D02*
G75*
G03X155780000Y-67945000I-750000J0D01*
G01*
X146480000Y-67195000D02*
X146480000Y-68695000D01*
X147980000Y-68695000D01*
X147980000Y-67195000D01*
X146480000Y-67195000D01*
G04 #@! TD*
G04 #@! TO.C,D4*
X174830000Y-70485000D02*
G75*
G03X174830000Y-70485000I-750000J0D01*
G01*
X165530000Y-69735000D02*
X165530000Y-71235000D01*
X167030000Y-71235000D01*
X167030000Y-69735000D01*
X165530000Y-69735000D01*
G04 #@! TD*
G04 #@! TO.C,D5*
X193880000Y-72390000D02*
G75*
G03X193880000Y-72390000I-750000J0D01*
G01*
X184580000Y-71640000D02*
X184580000Y-73140000D01*
X186080000Y-73140000D01*
X186080000Y-71640000D01*
X184580000Y-71640000D01*
G04 #@! TD*
G04 #@! TO.C,D6*
X212930000Y-81915000D02*
G75*
G03X212930000Y-81915000I-750000J0D01*
G01*
X203630000Y-81165000D02*
X203630000Y-82665000D01*
X205130000Y-82665000D01*
X205130000Y-81165000D01*
X203630000Y-81165000D01*
G04 #@! TD*
G04 #@! TO.C,D10*
X96090000Y-93980000D02*
G75*
G03X96090000Y-93980000I-750000J0D01*
G01*
X86790000Y-93230000D02*
X86790000Y-94730000D01*
X88290000Y-94730000D01*
X88290000Y-93230000D01*
X86790000Y-93230000D01*
G04 #@! TD*
G04 #@! TO.C,D11*
X117680000Y-93980000D02*
G75*
G03X117680000Y-93980000I-750000J0D01*
G01*
X108380000Y-93230000D02*
X108380000Y-94730000D01*
X109880000Y-94730000D01*
X109880000Y-93230000D01*
X108380000Y-93230000D01*
G04 #@! TD*
G04 #@! TO.C,D12*
X136730000Y-89535000D02*
G75*
G03X136730000Y-89535000I-750000J0D01*
G01*
X127430000Y-88785000D02*
X127430000Y-90285000D01*
X128930000Y-90285000D01*
X128930000Y-88785000D01*
X127430000Y-88785000D01*
G04 #@! TD*
G04 #@! TO.C,D13*
X155780000Y-86995000D02*
G75*
G03X155780000Y-86995000I-750000J0D01*
G01*
X146480000Y-86245000D02*
X146480000Y-87745000D01*
X147980000Y-87745000D01*
X147980000Y-86245000D01*
X146480000Y-86245000D01*
G04 #@! TD*
G04 #@! TO.C,D14*
X174830000Y-89535000D02*
G75*
G03X174830000Y-89535000I-750000J0D01*
G01*
X165530000Y-88785000D02*
X165530000Y-90285000D01*
X167030000Y-90285000D01*
X167030000Y-88785000D01*
X165530000Y-88785000D01*
G04 #@! TD*
G04 #@! TO.C,D15*
X193880000Y-91440000D02*
G75*
G03X193880000Y-91440000I-750000J0D01*
G01*
X184580000Y-90690000D02*
X184580000Y-92190000D01*
X186080000Y-92190000D01*
X186080000Y-90690000D01*
X184580000Y-90690000D01*
G04 #@! TD*
G04 #@! TO.C,D16*
X212930000Y-89408000D02*
G75*
G03X212930000Y-89408000I-750000J0D01*
G01*
X203630000Y-88658000D02*
X203630000Y-90158000D01*
X205130000Y-90158000D01*
X205130000Y-88658000D01*
X203630000Y-88658000D01*
G04 #@! TD*
G04 #@! TO.C,D20*
X96090000Y-113030000D02*
G75*
G03X96090000Y-113030000I-750000J0D01*
G01*
X86790000Y-112280000D02*
X86790000Y-113780000D01*
X88290000Y-113780000D01*
X88290000Y-112280000D01*
X86790000Y-112280000D01*
G04 #@! TD*
G04 #@! TO.C,D21*
X117680000Y-113030000D02*
G75*
G03X117680000Y-113030000I-750000J0D01*
G01*
X108380000Y-112280000D02*
X108380000Y-113780000D01*
X109880000Y-113780000D01*
X109880000Y-112280000D01*
X108380000Y-112280000D01*
G04 #@! TD*
G04 #@! TO.C,D22*
X136730000Y-108585000D02*
G75*
G03X136730000Y-108585000I-750000J0D01*
G01*
X127430000Y-107835000D02*
X127430000Y-109335000D01*
X128930000Y-109335000D01*
X128930000Y-107835000D01*
X127430000Y-107835000D01*
G04 #@! TD*
G04 #@! TO.C,D23*
X155780000Y-106045000D02*
G75*
G03X155780000Y-106045000I-750000J0D01*
G01*
X146480000Y-105295000D02*
X146480000Y-106795000D01*
X147980000Y-106795000D01*
X147980000Y-105295000D01*
X146480000Y-105295000D01*
G04 #@! TD*
G04 #@! TO.C,D24*
X174830000Y-108585000D02*
G75*
G03X174830000Y-108585000I-750000J0D01*
G01*
X165530000Y-107835000D02*
X165530000Y-109335000D01*
X167030000Y-109335000D01*
X167030000Y-107835000D01*
X165530000Y-107835000D01*
G04 #@! TD*
G04 #@! TO.C,D25*
X193880000Y-110490000D02*
G75*
G03X193880000Y-110490000I-750000J0D01*
G01*
X184580000Y-109740000D02*
X184580000Y-111240000D01*
X186080000Y-111240000D01*
X186080000Y-109740000D01*
X184580000Y-109740000D01*
G04 #@! TD*
G04 #@! TO.C,D26*
X211772499Y-136570000D02*
G75*
G03X211772499Y-136570000I-750000J0D01*
G01*
X205360321Y-132377180D02*
X204560321Y-133762820D01*
X203174681Y-132962820D01*
X203974681Y-131577180D01*
X205360321Y-132377180D01*
G04 #@! TD*
G04 #@! TO.C,D30*
X96090000Y-132080000D02*
G75*
G03X96090000Y-132080000I-750000J0D01*
G01*
X86790000Y-131330000D02*
X86790000Y-132830000D01*
X88290000Y-132830000D01*
X88290000Y-131330000D01*
X86790000Y-131330000D01*
G04 #@! TD*
G04 #@! TO.C,D31*
X117680000Y-132080000D02*
G75*
G03X117680000Y-132080000I-750000J0D01*
G01*
X108380000Y-131330000D02*
X108380000Y-132830000D01*
X109880000Y-132830000D01*
X109880000Y-131330000D01*
X108380000Y-131330000D01*
G04 #@! TD*
G04 #@! TO.C,D32*
X136730000Y-127635000D02*
G75*
G03X136730000Y-127635000I-750000J0D01*
G01*
X127430000Y-126885000D02*
X127430000Y-128385000D01*
X128930000Y-128385000D01*
X128930000Y-126885000D01*
X127430000Y-126885000D01*
G04 #@! TD*
G04 #@! TO.C,D33*
X155780000Y-125095000D02*
G75*
G03X155780000Y-125095000I-750000J0D01*
G01*
X146480000Y-124345000D02*
X146480000Y-125845000D01*
X147980000Y-125845000D01*
X147980000Y-124345000D01*
X146480000Y-124345000D01*
G04 #@! TD*
G04 #@! TO.C,D34*
X174830000Y-127635000D02*
G75*
G03X174830000Y-127635000I-750000J0D01*
G01*
X165530000Y-126885000D02*
X165530000Y-128385000D01*
X167030000Y-128385000D01*
X167030000Y-126885000D01*
X165530000Y-126885000D01*
G04 #@! TD*
G04 #@! TO.C,D35*
X193880000Y-129540000D02*
G75*
G03X193880000Y-129540000I-750000J0D01*
G01*
X184580000Y-128790000D02*
X184580000Y-130290000D01*
X186080000Y-130290000D01*
X186080000Y-128790000D01*
X184580000Y-128790000D01*
G04 #@! TD*
G04 #@! TO.C,D36*
X228282499Y-146095000D02*
G75*
G03X228282499Y-146095000I-750000J0D01*
G01*
X221870321Y-141902180D02*
X221070321Y-143287820D01*
X219684681Y-142487820D01*
X220484681Y-141102180D01*
X221870321Y-141902180D01*
G04 #@! TD*
G04 #@! TO.C,D40*
X104890000Y-138721000D02*
G75*
G03X104890000Y-138721000I-750000J0D01*
G01*
X103390000Y-145771000D02*
X103390000Y-147271000D01*
X104890000Y-147271000D01*
X104890000Y-145771000D01*
X103390000Y-145771000D01*
G04 #@! TD*
G04 #@! TO.C,D41*
X123940000Y-137908000D02*
G75*
G03X123940000Y-137908000I-750000J0D01*
G01*
X122440000Y-144958000D02*
X122440000Y-146458000D01*
X123940000Y-146458000D01*
X123940000Y-144958000D01*
X122440000Y-144958000D01*
G04 #@! TD*
G04 #@! TO.C,D42*
X142990000Y-133387000D02*
G75*
G03X142990000Y-133387000I-750000J0D01*
G01*
X141490000Y-140437000D02*
X141490000Y-141937000D01*
X142990000Y-141937000D01*
X142990000Y-140437000D01*
X141490000Y-140437000D01*
G04 #@! TD*
G04 #@! TO.C,D43*
X162548000Y-132117000D02*
G75*
G03X162548000Y-132117000I-750000J0D01*
G01*
X161048000Y-139167000D02*
X161048000Y-140667000D01*
X162548000Y-140667000D01*
X162548000Y-139167000D01*
X161048000Y-139167000D01*
G04 #@! TD*
G04 #@! TO.C,D44*
X189084394Y-140504889D02*
G75*
G03X189084394Y-140504889I-750000J0D01*
G01*
X185749921Y-147059315D02*
X187295402Y-147473426D01*
X186881291Y-149018907D01*
X185335810Y-148604796D01*
X185749921Y-147059315D01*
G04 #@! TD*
G04 #@! TO.C,D45*
X199453499Y-157906000D02*
G75*
G03X199453499Y-157906000I-750000J0D01*
G01*
X193041321Y-153713180D02*
X192241321Y-155098820D01*
X190855681Y-154298820D01*
X191655681Y-152913180D01*
X193041321Y-153713180D01*
G04 #@! TD*
G04 #@! TO.C,D46*
X216217499Y-167558000D02*
G75*
G03X216217499Y-167558000I-750000J0D01*
G01*
X209805321Y-163365180D02*
X209005321Y-164750820D01*
X207619681Y-163950820D01*
X208419681Y-162565180D01*
X209805321Y-163365180D01*
G04 #@! TD*
G04 #@! TO.C,R1*
X186895000Y-54610000D02*
G75*
G03X186895000Y-54610000I-750000J0D01*
G01*
G04 #@! TD*
G04 #@! TO.C,R2*
X197690000Y-54610000D02*
G75*
G03X197690000Y-54610000I-750000J0D01*
G01*
G04 #@! TD*
G04 #@! TO.C,STATUS_LEDS1*
D10*
X207304333Y-117752761D02*
X207447190Y-117800380D01*
X207685285Y-117800380D01*
X207780523Y-117752761D01*
X207828142Y-117705142D01*
X207875761Y-117609904D01*
X207875761Y-117514666D01*
X207828142Y-117419428D01*
X207780523Y-117371809D01*
X207685285Y-117324190D01*
X207494809Y-117276571D01*
X207399571Y-117228952D01*
X207351952Y-117181333D01*
X207304333Y-117086095D01*
X207304333Y-116990857D01*
X207351952Y-116895619D01*
X207399571Y-116848000D01*
X207494809Y-116800380D01*
X207732904Y-116800380D01*
X207875761Y-116848000D01*
X208161476Y-116800380D02*
X208732904Y-116800380D01*
X208447190Y-117800380D02*
X208447190Y-116800380D01*
X209018619Y-117514666D02*
X209494809Y-117514666D01*
X208923380Y-117800380D02*
X209256714Y-116800380D01*
X209590047Y-117800380D01*
X209780523Y-116800380D02*
X210351952Y-116800380D01*
X210066238Y-117800380D02*
X210066238Y-116800380D01*
X210685285Y-116800380D02*
X210685285Y-117609904D01*
X210732904Y-117705142D01*
X210780523Y-117752761D01*
X210875761Y-117800380D01*
X211066238Y-117800380D01*
X211161476Y-117752761D01*
X211209095Y-117705142D01*
X211256714Y-117609904D01*
X211256714Y-116800380D01*
X211685285Y-117752761D02*
X211828142Y-117800380D01*
X212066238Y-117800380D01*
X212161476Y-117752761D01*
X212209095Y-117705142D01*
X212256714Y-117609904D01*
X212256714Y-117514666D01*
X212209095Y-117419428D01*
X212161476Y-117371809D01*
X212066238Y-117324190D01*
X211875761Y-117276571D01*
X211780523Y-117228952D01*
X211732904Y-117181333D01*
X211685285Y-117086095D01*
X211685285Y-116990857D01*
X211732904Y-116895619D01*
X211780523Y-116848000D01*
X211875761Y-116800380D01*
X212113857Y-116800380D01*
X212256714Y-116848000D01*
X212447190Y-117895619D02*
X213209095Y-117895619D01*
X213923380Y-117800380D02*
X213447190Y-117800380D01*
X213447190Y-116800380D01*
X214256714Y-117276571D02*
X214590047Y-117276571D01*
X214732904Y-117800380D02*
X214256714Y-117800380D01*
X214256714Y-116800380D01*
X214732904Y-116800380D01*
X215161476Y-117800380D02*
X215161476Y-116800380D01*
X215399571Y-116800380D01*
X215542428Y-116848000D01*
X215637666Y-116943238D01*
X215685285Y-117038476D01*
X215732904Y-117228952D01*
X215732904Y-117371809D01*
X215685285Y-117562285D01*
X215637666Y-117657523D01*
X215542428Y-117752761D01*
X215399571Y-117800380D01*
X215161476Y-117800380D01*
X216113857Y-117752761D02*
X216256714Y-117800380D01*
X216494809Y-117800380D01*
X216590047Y-117752761D01*
X216637666Y-117705142D01*
X216685285Y-117609904D01*
X216685285Y-117514666D01*
X216637666Y-117419428D01*
X216590047Y-117371809D01*
X216494809Y-117324190D01*
X216304333Y-117276571D01*
X216209095Y-117228952D01*
X216161476Y-117181333D01*
X216113857Y-117086095D01*
X216113857Y-116990857D01*
X216161476Y-116895619D01*
X216209095Y-116848000D01*
X216304333Y-116800380D01*
X216542428Y-116800380D01*
X216685285Y-116848000D01*
X217637666Y-117800380D02*
X217066238Y-117800380D01*
X217351952Y-117800380D02*
X217351952Y-116800380D01*
X217256714Y-116943238D01*
X217161476Y-117038476D01*
X217066238Y-117086095D01*
G04 #@! TO.C,K46*
X219384707Y-150750590D02*
X219884707Y-149884565D01*
X219879578Y-151036304D02*
X219794139Y-150327147D01*
X220379578Y-150170279D02*
X219598992Y-150379436D01*
X220955219Y-150887525D02*
X220621886Y-151464876D01*
X220939499Y-150438563D02*
X220376160Y-150938105D01*
X220912270Y-151247629D01*
X221946672Y-151075041D02*
X221781715Y-150979803D01*
X221675427Y-150973423D01*
X221610378Y-150990853D01*
X221456471Y-151066952D01*
X221319993Y-151208099D01*
X221129517Y-151538014D01*
X221123137Y-151644302D01*
X221140567Y-151709351D01*
X221199236Y-151798209D01*
X221364193Y-151893447D01*
X221470482Y-151899827D01*
X221535530Y-151882397D01*
X221624389Y-151823728D01*
X221743436Y-151617532D01*
X221749816Y-151511243D01*
X221732386Y-151446195D01*
X221673717Y-151357336D01*
X221508760Y-151262098D01*
X221402472Y-151255718D01*
X221337423Y-151273148D01*
X221248565Y-151331817D01*
G04 #@! TO.C,K45*
X202874707Y-141225590D02*
X203374707Y-140359565D01*
X203369578Y-141511304D02*
X203284139Y-140802147D01*
X203869578Y-140645279D02*
X203088992Y-140854436D01*
X204445219Y-141362525D02*
X204111886Y-141939876D01*
X204429499Y-140913563D02*
X203866160Y-141413105D01*
X204402270Y-141722629D01*
X205477911Y-141573850D02*
X205065518Y-141335755D01*
X204786184Y-141724339D01*
X204851233Y-141706909D01*
X204957521Y-141713289D01*
X205163717Y-141832336D01*
X205222386Y-141921195D01*
X205239816Y-141986243D01*
X205233436Y-142092532D01*
X205114389Y-142298728D01*
X205025530Y-142357397D01*
X204960482Y-142374827D01*
X204854193Y-142368447D01*
X204647997Y-142249400D01*
X204589328Y-142160541D01*
X204571898Y-142095492D01*
G04 #@! TO.C,K44*
X177376556Y-133753968D02*
X177635375Y-132788042D01*
X177928513Y-133901864D02*
X177662442Y-133238984D01*
X178187332Y-132935938D02*
X177487478Y-133339999D01*
X178928996Y-133479759D02*
X178756450Y-134123709D01*
X178797611Y-133050163D02*
X178382758Y-133678487D01*
X178980712Y-133838708D01*
X179848925Y-133726253D02*
X179676379Y-134370203D01*
X179717541Y-133296658D02*
X179302687Y-133924981D01*
X179900642Y-134085202D01*
G04 #@! TO.C,K43*
X149915714Y-128087380D02*
X149915714Y-127087380D01*
X150487142Y-128087380D02*
X150058571Y-127515952D01*
X150487142Y-127087380D02*
X149915714Y-127658809D01*
X151344285Y-127420714D02*
X151344285Y-128087380D01*
X151106190Y-127039761D02*
X150868095Y-127754047D01*
X151487142Y-127754047D01*
X151772857Y-127087380D02*
X152391904Y-127087380D01*
X152058571Y-127468333D01*
X152201428Y-127468333D01*
X152296666Y-127515952D01*
X152344285Y-127563571D01*
X152391904Y-127658809D01*
X152391904Y-127896904D01*
X152344285Y-127992142D01*
X152296666Y-128039761D01*
X152201428Y-128087380D01*
X151915714Y-128087380D01*
X151820476Y-128039761D01*
X151772857Y-127992142D01*
G04 #@! TO.C,K42*
X130865714Y-130627380D02*
X130865714Y-129627380D01*
X131437142Y-130627380D02*
X131008571Y-130055952D01*
X131437142Y-129627380D02*
X130865714Y-130198809D01*
X132294285Y-129960714D02*
X132294285Y-130627380D01*
X132056190Y-129579761D02*
X131818095Y-130294047D01*
X132437142Y-130294047D01*
X132770476Y-129722619D02*
X132818095Y-129675000D01*
X132913333Y-129627380D01*
X133151428Y-129627380D01*
X133246666Y-129675000D01*
X133294285Y-129722619D01*
X133341904Y-129817857D01*
X133341904Y-129913095D01*
X133294285Y-130055952D01*
X132722857Y-130627380D01*
X133341904Y-130627380D01*
G04 #@! TO.C,K41*
X111815714Y-135072380D02*
X111815714Y-134072380D01*
X112387142Y-135072380D02*
X111958571Y-134500952D01*
X112387142Y-134072380D02*
X111815714Y-134643809D01*
X113244285Y-134405714D02*
X113244285Y-135072380D01*
X113006190Y-134024761D02*
X112768095Y-134739047D01*
X113387142Y-134739047D01*
X114291904Y-135072380D02*
X113720476Y-135072380D01*
X114006190Y-135072380D02*
X114006190Y-134072380D01*
X113910952Y-134215238D01*
X113815714Y-134310476D01*
X113720476Y-134358095D01*
G04 #@! TO.C,K40*
X92765714Y-135072380D02*
X92765714Y-134072380D01*
X93337142Y-135072380D02*
X92908571Y-134500952D01*
X93337142Y-134072380D02*
X92765714Y-134643809D01*
X94194285Y-134405714D02*
X94194285Y-135072380D01*
X93956190Y-134024761D02*
X93718095Y-134739047D01*
X94337142Y-134739047D01*
X94908571Y-134072380D02*
X95003809Y-134072380D01*
X95099047Y-134120000D01*
X95146666Y-134167619D01*
X95194285Y-134262857D01*
X95241904Y-134453333D01*
X95241904Y-134691428D01*
X95194285Y-134881904D01*
X95146666Y-134977142D01*
X95099047Y-135024761D01*
X95003809Y-135072380D01*
X94908571Y-135072380D01*
X94813333Y-135024761D01*
X94765714Y-134977142D01*
X94718095Y-134881904D01*
X94670476Y-134691428D01*
X94670476Y-134453333D01*
X94718095Y-134262857D01*
X94765714Y-134167619D01*
X94813333Y-134120000D01*
X94908571Y-134072380D01*
G04 #@! TO.C,K36*
X231449707Y-129795590D02*
X231949707Y-128929565D01*
X231944578Y-130081304D02*
X231859139Y-129372147D01*
X232444578Y-129215279D02*
X231663992Y-129424436D01*
X232733254Y-129381946D02*
X233269365Y-129691469D01*
X232790213Y-129854717D01*
X232913931Y-129926146D01*
X232972600Y-130015004D01*
X232990030Y-130080053D01*
X232983650Y-130186341D01*
X232864603Y-130392538D01*
X232775744Y-130451207D01*
X232710695Y-130468636D01*
X232604407Y-130462257D01*
X232356971Y-130319400D01*
X232298302Y-130230541D01*
X232280873Y-130165492D01*
X234011672Y-130120041D02*
X233846715Y-130024803D01*
X233740427Y-130018423D01*
X233675378Y-130035853D01*
X233521471Y-130111952D01*
X233384993Y-130253099D01*
X233194517Y-130583014D01*
X233188137Y-130689302D01*
X233205567Y-130754351D01*
X233264236Y-130843209D01*
X233429193Y-130938447D01*
X233535482Y-130944827D01*
X233600530Y-130927397D01*
X233689389Y-130868728D01*
X233808436Y-130662532D01*
X233814816Y-130556243D01*
X233797386Y-130491195D01*
X233738717Y-130402336D01*
X233573760Y-130307098D01*
X233467472Y-130300718D01*
X233402423Y-130318148D01*
X233313565Y-130376817D01*
G04 #@! TO.C,K35*
X188015714Y-113482380D02*
X188015714Y-112482380D01*
X188587142Y-113482380D02*
X188158571Y-112910952D01*
X188587142Y-112482380D02*
X188015714Y-113053809D01*
X188920476Y-112482380D02*
X189539523Y-112482380D01*
X189206190Y-112863333D01*
X189349047Y-112863333D01*
X189444285Y-112910952D01*
X189491904Y-112958571D01*
X189539523Y-113053809D01*
X189539523Y-113291904D01*
X189491904Y-113387142D01*
X189444285Y-113434761D01*
X189349047Y-113482380D01*
X189063333Y-113482380D01*
X188968095Y-113434761D01*
X188920476Y-113387142D01*
X190444285Y-112482380D02*
X189968095Y-112482380D01*
X189920476Y-112958571D01*
X189968095Y-112910952D01*
X190063333Y-112863333D01*
X190301428Y-112863333D01*
X190396666Y-112910952D01*
X190444285Y-112958571D01*
X190491904Y-113053809D01*
X190491904Y-113291904D01*
X190444285Y-113387142D01*
X190396666Y-113434761D01*
X190301428Y-113482380D01*
X190063333Y-113482380D01*
X189968095Y-113434761D01*
X189920476Y-113387142D01*
G04 #@! TO.C,K34*
X168965714Y-111577380D02*
X168965714Y-110577380D01*
X169537142Y-111577380D02*
X169108571Y-111005952D01*
X169537142Y-110577380D02*
X168965714Y-111148809D01*
X169870476Y-110577380D02*
X170489523Y-110577380D01*
X170156190Y-110958333D01*
X170299047Y-110958333D01*
X170394285Y-111005952D01*
X170441904Y-111053571D01*
X170489523Y-111148809D01*
X170489523Y-111386904D01*
X170441904Y-111482142D01*
X170394285Y-111529761D01*
X170299047Y-111577380D01*
X170013333Y-111577380D01*
X169918095Y-111529761D01*
X169870476Y-111482142D01*
X171346666Y-110910714D02*
X171346666Y-111577380D01*
X171108571Y-110529761D02*
X170870476Y-111244047D01*
X171489523Y-111244047D01*
G04 #@! TO.C,K33*
X149915714Y-109037380D02*
X149915714Y-108037380D01*
X150487142Y-109037380D02*
X150058571Y-108465952D01*
X150487142Y-108037380D02*
X149915714Y-108608809D01*
X150820476Y-108037380D02*
X151439523Y-108037380D01*
X151106190Y-108418333D01*
X151249047Y-108418333D01*
X151344285Y-108465952D01*
X151391904Y-108513571D01*
X151439523Y-108608809D01*
X151439523Y-108846904D01*
X151391904Y-108942142D01*
X151344285Y-108989761D01*
X151249047Y-109037380D01*
X150963333Y-109037380D01*
X150868095Y-108989761D01*
X150820476Y-108942142D01*
X151772857Y-108037380D02*
X152391904Y-108037380D01*
X152058571Y-108418333D01*
X152201428Y-108418333D01*
X152296666Y-108465952D01*
X152344285Y-108513571D01*
X152391904Y-108608809D01*
X152391904Y-108846904D01*
X152344285Y-108942142D01*
X152296666Y-108989761D01*
X152201428Y-109037380D01*
X151915714Y-109037380D01*
X151820476Y-108989761D01*
X151772857Y-108942142D01*
G04 #@! TO.C,K32*
X130865714Y-111577380D02*
X130865714Y-110577380D01*
X131437142Y-111577380D02*
X131008571Y-111005952D01*
X131437142Y-110577380D02*
X130865714Y-111148809D01*
X131770476Y-110577380D02*
X132389523Y-110577380D01*
X132056190Y-110958333D01*
X132199047Y-110958333D01*
X132294285Y-111005952D01*
X132341904Y-111053571D01*
X132389523Y-111148809D01*
X132389523Y-111386904D01*
X132341904Y-111482142D01*
X132294285Y-111529761D01*
X132199047Y-111577380D01*
X131913333Y-111577380D01*
X131818095Y-111529761D01*
X131770476Y-111482142D01*
X132770476Y-110672619D02*
X132818095Y-110625000D01*
X132913333Y-110577380D01*
X133151428Y-110577380D01*
X133246666Y-110625000D01*
X133294285Y-110672619D01*
X133341904Y-110767857D01*
X133341904Y-110863095D01*
X133294285Y-111005952D01*
X132722857Y-111577380D01*
X133341904Y-111577380D01*
G04 #@! TO.C,K31*
X111815714Y-116022380D02*
X111815714Y-115022380D01*
X112387142Y-116022380D02*
X111958571Y-115450952D01*
X112387142Y-115022380D02*
X111815714Y-115593809D01*
X112720476Y-115022380D02*
X113339523Y-115022380D01*
X113006190Y-115403333D01*
X113149047Y-115403333D01*
X113244285Y-115450952D01*
X113291904Y-115498571D01*
X113339523Y-115593809D01*
X113339523Y-115831904D01*
X113291904Y-115927142D01*
X113244285Y-115974761D01*
X113149047Y-116022380D01*
X112863333Y-116022380D01*
X112768095Y-115974761D01*
X112720476Y-115927142D01*
X114291904Y-116022380D02*
X113720476Y-116022380D01*
X114006190Y-116022380D02*
X114006190Y-115022380D01*
X113910952Y-115165238D01*
X113815714Y-115260476D01*
X113720476Y-115308095D01*
G04 #@! TO.C,K30*
X90225714Y-116022380D02*
X90225714Y-115022380D01*
X90797142Y-116022380D02*
X90368571Y-115450952D01*
X90797142Y-115022380D02*
X90225714Y-115593809D01*
X91130476Y-115022380D02*
X91749523Y-115022380D01*
X91416190Y-115403333D01*
X91559047Y-115403333D01*
X91654285Y-115450952D01*
X91701904Y-115498571D01*
X91749523Y-115593809D01*
X91749523Y-115831904D01*
X91701904Y-115927142D01*
X91654285Y-115974761D01*
X91559047Y-116022380D01*
X91273333Y-116022380D01*
X91178095Y-115974761D01*
X91130476Y-115927142D01*
X92368571Y-115022380D02*
X92463809Y-115022380D01*
X92559047Y-115070000D01*
X92606666Y-115117619D01*
X92654285Y-115212857D01*
X92701904Y-115403333D01*
X92701904Y-115641428D01*
X92654285Y-115831904D01*
X92606666Y-115927142D01*
X92559047Y-115974761D01*
X92463809Y-116022380D01*
X92368571Y-116022380D01*
X92273333Y-115974761D01*
X92225714Y-115927142D01*
X92178095Y-115831904D01*
X92130476Y-115641428D01*
X92130476Y-115403333D01*
X92178095Y-115212857D01*
X92225714Y-115117619D01*
X92273333Y-115070000D01*
X92368571Y-115022380D01*
G04 #@! TO.C,K26*
X214939707Y-120270590D02*
X215439707Y-119404565D01*
X215434578Y-120556304D02*
X215349139Y-119847147D01*
X215934578Y-119690279D02*
X215153992Y-119899436D01*
X216216874Y-119963234D02*
X216281923Y-119945804D01*
X216388211Y-119952184D01*
X216594407Y-120071231D01*
X216653076Y-120160090D01*
X216670506Y-120225138D01*
X216664126Y-120331427D01*
X216616507Y-120413905D01*
X216503839Y-120513814D01*
X215723254Y-120722971D01*
X216259365Y-121032495D01*
X217501672Y-120595041D02*
X217336715Y-120499803D01*
X217230427Y-120493423D01*
X217165378Y-120510853D01*
X217011471Y-120586952D01*
X216874993Y-120728099D01*
X216684517Y-121058014D01*
X216678137Y-121164302D01*
X216695567Y-121229351D01*
X216754236Y-121318209D01*
X216919193Y-121413447D01*
X217025482Y-121419827D01*
X217090530Y-121402397D01*
X217179389Y-121343728D01*
X217298436Y-121137532D01*
X217304816Y-121031243D01*
X217287386Y-120966195D01*
X217228717Y-120877336D01*
X217063760Y-120782098D01*
X216957472Y-120775718D01*
X216892423Y-120793148D01*
X216803565Y-120851817D01*
G04 #@! TO.C,K25*
X188015714Y-94432380D02*
X188015714Y-93432380D01*
X188587142Y-94432380D02*
X188158571Y-93860952D01*
X188587142Y-93432380D02*
X188015714Y-94003809D01*
X188968095Y-93527619D02*
X189015714Y-93480000D01*
X189110952Y-93432380D01*
X189349047Y-93432380D01*
X189444285Y-93480000D01*
X189491904Y-93527619D01*
X189539523Y-93622857D01*
X189539523Y-93718095D01*
X189491904Y-93860952D01*
X188920476Y-94432380D01*
X189539523Y-94432380D01*
X190444285Y-93432380D02*
X189968095Y-93432380D01*
X189920476Y-93908571D01*
X189968095Y-93860952D01*
X190063333Y-93813333D01*
X190301428Y-93813333D01*
X190396666Y-93860952D01*
X190444285Y-93908571D01*
X190491904Y-94003809D01*
X190491904Y-94241904D01*
X190444285Y-94337142D01*
X190396666Y-94384761D01*
X190301428Y-94432380D01*
X190063333Y-94432380D01*
X189968095Y-94384761D01*
X189920476Y-94337142D01*
G04 #@! TO.C,K24*
X168965714Y-92527380D02*
X168965714Y-91527380D01*
X169537142Y-92527380D02*
X169108571Y-91955952D01*
X169537142Y-91527380D02*
X168965714Y-92098809D01*
X169918095Y-91622619D02*
X169965714Y-91575000D01*
X170060952Y-91527380D01*
X170299047Y-91527380D01*
X170394285Y-91575000D01*
X170441904Y-91622619D01*
X170489523Y-91717857D01*
X170489523Y-91813095D01*
X170441904Y-91955952D01*
X169870476Y-92527380D01*
X170489523Y-92527380D01*
X171346666Y-91860714D02*
X171346666Y-92527380D01*
X171108571Y-91479761D02*
X170870476Y-92194047D01*
X171489523Y-92194047D01*
G04 #@! TO.C,K23*
X149915714Y-89987380D02*
X149915714Y-88987380D01*
X150487142Y-89987380D02*
X150058571Y-89415952D01*
X150487142Y-88987380D02*
X149915714Y-89558809D01*
X150868095Y-89082619D02*
X150915714Y-89035000D01*
X151010952Y-88987380D01*
X151249047Y-88987380D01*
X151344285Y-89035000D01*
X151391904Y-89082619D01*
X151439523Y-89177857D01*
X151439523Y-89273095D01*
X151391904Y-89415952D01*
X150820476Y-89987380D01*
X151439523Y-89987380D01*
X151772857Y-88987380D02*
X152391904Y-88987380D01*
X152058571Y-89368333D01*
X152201428Y-89368333D01*
X152296666Y-89415952D01*
X152344285Y-89463571D01*
X152391904Y-89558809D01*
X152391904Y-89796904D01*
X152344285Y-89892142D01*
X152296666Y-89939761D01*
X152201428Y-89987380D01*
X151915714Y-89987380D01*
X151820476Y-89939761D01*
X151772857Y-89892142D01*
G04 #@! TO.C,K22*
X130865714Y-92527380D02*
X130865714Y-91527380D01*
X131437142Y-92527380D02*
X131008571Y-91955952D01*
X131437142Y-91527380D02*
X130865714Y-92098809D01*
X131818095Y-91622619D02*
X131865714Y-91575000D01*
X131960952Y-91527380D01*
X132199047Y-91527380D01*
X132294285Y-91575000D01*
X132341904Y-91622619D01*
X132389523Y-91717857D01*
X132389523Y-91813095D01*
X132341904Y-91955952D01*
X131770476Y-92527380D01*
X132389523Y-92527380D01*
X132770476Y-91622619D02*
X132818095Y-91575000D01*
X132913333Y-91527380D01*
X133151428Y-91527380D01*
X133246666Y-91575000D01*
X133294285Y-91622619D01*
X133341904Y-91717857D01*
X133341904Y-91813095D01*
X133294285Y-91955952D01*
X132722857Y-92527380D01*
X133341904Y-92527380D01*
G04 #@! TO.C,K21*
X111815714Y-96972380D02*
X111815714Y-95972380D01*
X112387142Y-96972380D02*
X111958571Y-96400952D01*
X112387142Y-95972380D02*
X111815714Y-96543809D01*
X112768095Y-96067619D02*
X112815714Y-96020000D01*
X112910952Y-95972380D01*
X113149047Y-95972380D01*
X113244285Y-96020000D01*
X113291904Y-96067619D01*
X113339523Y-96162857D01*
X113339523Y-96258095D01*
X113291904Y-96400952D01*
X112720476Y-96972380D01*
X113339523Y-96972380D01*
X114291904Y-96972380D02*
X113720476Y-96972380D01*
X114006190Y-96972380D02*
X114006190Y-95972380D01*
X113910952Y-96115238D01*
X113815714Y-96210476D01*
X113720476Y-96258095D01*
G04 #@! TO.C,K20*
X90225714Y-96972380D02*
X90225714Y-95972380D01*
X90797142Y-96972380D02*
X90368571Y-96400952D01*
X90797142Y-95972380D02*
X90225714Y-96543809D01*
X91178095Y-96067619D02*
X91225714Y-96020000D01*
X91320952Y-95972380D01*
X91559047Y-95972380D01*
X91654285Y-96020000D01*
X91701904Y-96067619D01*
X91749523Y-96162857D01*
X91749523Y-96258095D01*
X91701904Y-96400952D01*
X91130476Y-96972380D01*
X91749523Y-96972380D01*
X92368571Y-95972380D02*
X92463809Y-95972380D01*
X92559047Y-96020000D01*
X92606666Y-96067619D01*
X92654285Y-96162857D01*
X92701904Y-96353333D01*
X92701904Y-96591428D01*
X92654285Y-96781904D01*
X92606666Y-96877142D01*
X92559047Y-96924761D01*
X92463809Y-96972380D01*
X92368571Y-96972380D01*
X92273333Y-96924761D01*
X92225714Y-96877142D01*
X92178095Y-96781904D01*
X92130476Y-96591428D01*
X92130476Y-96353333D01*
X92178095Y-96162857D01*
X92225714Y-96067619D01*
X92273333Y-96020000D01*
X92368571Y-95972380D01*
G04 #@! TO.C,K16*
X213785714Y-90202380D02*
X213785714Y-89202380D01*
X214357142Y-90202380D02*
X213928571Y-89630952D01*
X214357142Y-89202380D02*
X213785714Y-89773809D01*
X215309523Y-90202380D02*
X214738095Y-90202380D01*
X215023809Y-90202380D02*
X215023809Y-89202380D01*
X214928571Y-89345238D01*
X214833333Y-89440476D01*
X214738095Y-89488095D01*
X216166666Y-89202380D02*
X215976190Y-89202380D01*
X215880952Y-89250000D01*
X215833333Y-89297619D01*
X215738095Y-89440476D01*
X215690476Y-89630952D01*
X215690476Y-90011904D01*
X215738095Y-90107142D01*
X215785714Y-90154761D01*
X215880952Y-90202380D01*
X216071428Y-90202380D01*
X216166666Y-90154761D01*
X216214285Y-90107142D01*
X216261904Y-90011904D01*
X216261904Y-89773809D01*
X216214285Y-89678571D01*
X216166666Y-89630952D01*
X216071428Y-89583333D01*
X215880952Y-89583333D01*
X215785714Y-89630952D01*
X215738095Y-89678571D01*
X215690476Y-89773809D01*
G04 #@! TO.C,K15*
X188015714Y-75382380D02*
X188015714Y-74382380D01*
X188587142Y-75382380D02*
X188158571Y-74810952D01*
X188587142Y-74382380D02*
X188015714Y-74953809D01*
X189539523Y-75382380D02*
X188968095Y-75382380D01*
X189253809Y-75382380D02*
X189253809Y-74382380D01*
X189158571Y-74525238D01*
X189063333Y-74620476D01*
X188968095Y-74668095D01*
X190444285Y-74382380D02*
X189968095Y-74382380D01*
X189920476Y-74858571D01*
X189968095Y-74810952D01*
X190063333Y-74763333D01*
X190301428Y-74763333D01*
X190396666Y-74810952D01*
X190444285Y-74858571D01*
X190491904Y-74953809D01*
X190491904Y-75191904D01*
X190444285Y-75287142D01*
X190396666Y-75334761D01*
X190301428Y-75382380D01*
X190063333Y-75382380D01*
X189968095Y-75334761D01*
X189920476Y-75287142D01*
G04 #@! TO.C,K14*
X168965714Y-73477380D02*
X168965714Y-72477380D01*
X169537142Y-73477380D02*
X169108571Y-72905952D01*
X169537142Y-72477380D02*
X168965714Y-73048809D01*
X170489523Y-73477380D02*
X169918095Y-73477380D01*
X170203809Y-73477380D02*
X170203809Y-72477380D01*
X170108571Y-72620238D01*
X170013333Y-72715476D01*
X169918095Y-72763095D01*
X171346666Y-72810714D02*
X171346666Y-73477380D01*
X171108571Y-72429761D02*
X170870476Y-73144047D01*
X171489523Y-73144047D01*
G04 #@! TO.C,K13*
X149915714Y-70937380D02*
X149915714Y-69937380D01*
X150487142Y-70937380D02*
X150058571Y-70365952D01*
X150487142Y-69937380D02*
X149915714Y-70508809D01*
X151439523Y-70937380D02*
X150868095Y-70937380D01*
X151153809Y-70937380D02*
X151153809Y-69937380D01*
X151058571Y-70080238D01*
X150963333Y-70175476D01*
X150868095Y-70223095D01*
X151772857Y-69937380D02*
X152391904Y-69937380D01*
X152058571Y-70318333D01*
X152201428Y-70318333D01*
X152296666Y-70365952D01*
X152344285Y-70413571D01*
X152391904Y-70508809D01*
X152391904Y-70746904D01*
X152344285Y-70842142D01*
X152296666Y-70889761D01*
X152201428Y-70937380D01*
X151915714Y-70937380D01*
X151820476Y-70889761D01*
X151772857Y-70842142D01*
G04 #@! TO.C,K12*
X130865714Y-73477380D02*
X130865714Y-72477380D01*
X131437142Y-73477380D02*
X131008571Y-72905952D01*
X131437142Y-72477380D02*
X130865714Y-73048809D01*
X132389523Y-73477380D02*
X131818095Y-73477380D01*
X132103809Y-73477380D02*
X132103809Y-72477380D01*
X132008571Y-72620238D01*
X131913333Y-72715476D01*
X131818095Y-72763095D01*
X132770476Y-72572619D02*
X132818095Y-72525000D01*
X132913333Y-72477380D01*
X133151428Y-72477380D01*
X133246666Y-72525000D01*
X133294285Y-72572619D01*
X133341904Y-72667857D01*
X133341904Y-72763095D01*
X133294285Y-72905952D01*
X132722857Y-73477380D01*
X133341904Y-73477380D01*
G04 #@! TO.C,K11*
X111815714Y-77922380D02*
X111815714Y-76922380D01*
X112387142Y-77922380D02*
X111958571Y-77350952D01*
X112387142Y-76922380D02*
X111815714Y-77493809D01*
X113339523Y-77922380D02*
X112768095Y-77922380D01*
X113053809Y-77922380D02*
X113053809Y-76922380D01*
X112958571Y-77065238D01*
X112863333Y-77160476D01*
X112768095Y-77208095D01*
X114291904Y-77922380D02*
X113720476Y-77922380D01*
X114006190Y-77922380D02*
X114006190Y-76922380D01*
X113910952Y-77065238D01*
X113815714Y-77160476D01*
X113720476Y-77208095D01*
G04 #@! TO.C,K10*
X90225714Y-77922380D02*
X90225714Y-76922380D01*
X90797142Y-77922380D02*
X90368571Y-77350952D01*
X90797142Y-76922380D02*
X90225714Y-77493809D01*
X91749523Y-77922380D02*
X91178095Y-77922380D01*
X91463809Y-77922380D02*
X91463809Y-76922380D01*
X91368571Y-77065238D01*
X91273333Y-77160476D01*
X91178095Y-77208095D01*
X92368571Y-76922380D02*
X92463809Y-76922380D01*
X92559047Y-76970000D01*
X92606666Y-77017619D01*
X92654285Y-77112857D01*
X92701904Y-77303333D01*
X92701904Y-77541428D01*
X92654285Y-77731904D01*
X92606666Y-77827142D01*
X92559047Y-77874761D01*
X92463809Y-77922380D01*
X92368571Y-77922380D01*
X92273333Y-77874761D01*
X92225714Y-77827142D01*
X92178095Y-77731904D01*
X92130476Y-77541428D01*
X92130476Y-77303333D01*
X92178095Y-77112857D01*
X92225714Y-77017619D01*
X92273333Y-76970000D01*
X92368571Y-76922380D01*
G04 #@! TO.C,K6*
X215011904Y-68952380D02*
X215011904Y-67952380D01*
X215583333Y-68952380D02*
X215154761Y-68380952D01*
X215583333Y-67952380D02*
X215011904Y-68523809D01*
X216440476Y-67952380D02*
X216250000Y-67952380D01*
X216154761Y-68000000D01*
X216107142Y-68047619D01*
X216011904Y-68190476D01*
X215964285Y-68380952D01*
X215964285Y-68761904D01*
X216011904Y-68857142D01*
X216059523Y-68904761D01*
X216154761Y-68952380D01*
X216345238Y-68952380D01*
X216440476Y-68904761D01*
X216488095Y-68857142D01*
X216535714Y-68761904D01*
X216535714Y-68523809D01*
X216488095Y-68428571D01*
X216440476Y-68380952D01*
X216345238Y-68333333D01*
X216154761Y-68333333D01*
X216059523Y-68380952D01*
X216011904Y-68428571D01*
X215964285Y-68523809D01*
G04 #@! TO.C,K5*
X188491904Y-56702380D02*
X188491904Y-55702380D01*
X189063333Y-56702380D02*
X188634761Y-56130952D01*
X189063333Y-55702380D02*
X188491904Y-56273809D01*
X189968095Y-55702380D02*
X189491904Y-55702380D01*
X189444285Y-56178571D01*
X189491904Y-56130952D01*
X189587142Y-56083333D01*
X189825238Y-56083333D01*
X189920476Y-56130952D01*
X189968095Y-56178571D01*
X190015714Y-56273809D01*
X190015714Y-56511904D01*
X189968095Y-56607142D01*
X189920476Y-56654761D01*
X189825238Y-56702380D01*
X189587142Y-56702380D01*
X189491904Y-56654761D01*
X189444285Y-56607142D01*
G04 #@! TO.C,K4*
X169441904Y-54427380D02*
X169441904Y-53427380D01*
X170013333Y-54427380D02*
X169584761Y-53855952D01*
X170013333Y-53427380D02*
X169441904Y-53998809D01*
X170870476Y-53760714D02*
X170870476Y-54427380D01*
X170632380Y-53379761D02*
X170394285Y-54094047D01*
X171013333Y-54094047D01*
G04 #@! TO.C,K3*
X158461904Y-54302380D02*
X158461904Y-53302380D01*
X159033333Y-54302380D02*
X158604761Y-53730952D01*
X159033333Y-53302380D02*
X158461904Y-53873809D01*
X159366666Y-53302380D02*
X159985714Y-53302380D01*
X159652380Y-53683333D01*
X159795238Y-53683333D01*
X159890476Y-53730952D01*
X159938095Y-53778571D01*
X159985714Y-53873809D01*
X159985714Y-54111904D01*
X159938095Y-54207142D01*
X159890476Y-54254761D01*
X159795238Y-54302380D01*
X159509523Y-54302380D01*
X159414285Y-54254761D01*
X159366666Y-54207142D01*
G04 #@! TO.C,K2*
X139469904Y-56713380D02*
X139469904Y-55713380D01*
X140041333Y-56713380D02*
X139612761Y-56141952D01*
X140041333Y-55713380D02*
X139469904Y-56284809D01*
X140422285Y-55808619D02*
X140469904Y-55761000D01*
X140565142Y-55713380D01*
X140803238Y-55713380D01*
X140898476Y-55761000D01*
X140946095Y-55808619D01*
X140993714Y-55903857D01*
X140993714Y-55999095D01*
X140946095Y-56141952D01*
X140374666Y-56713380D01*
X140993714Y-56713380D01*
G04 #@! TO.C,K1*
X112291904Y-58872380D02*
X112291904Y-57872380D01*
X112863333Y-58872380D02*
X112434761Y-58300952D01*
X112863333Y-57872380D02*
X112291904Y-58443809D01*
X113815714Y-58872380D02*
X113244285Y-58872380D01*
X113530000Y-58872380D02*
X113530000Y-57872380D01*
X113434761Y-58015238D01*
X113339523Y-58110476D01*
X113244285Y-58158095D01*
G04 #@! TO.C,K0*
X90701904Y-58872380D02*
X90701904Y-57872380D01*
X91273333Y-58872380D02*
X90844761Y-58300952D01*
X91273333Y-57872380D02*
X90701904Y-58443809D01*
X91892380Y-57872380D02*
X91987619Y-57872380D01*
X92082857Y-57920000D01*
X92130476Y-57967619D01*
X92178095Y-58062857D01*
X92225714Y-58253333D01*
X92225714Y-58491428D01*
X92178095Y-58681904D01*
X92130476Y-58777142D01*
X92082857Y-58824761D01*
X91987619Y-58872380D01*
X91892380Y-58872380D01*
X91797142Y-58824761D01*
X91749523Y-58777142D01*
X91701904Y-58681904D01*
X91654285Y-58491428D01*
X91654285Y-58253333D01*
X91701904Y-58062857D01*
X91749523Y-57967619D01*
X91797142Y-57920000D01*
X91892380Y-57872380D01*
G04 #@! TO.C,U1*
X158807190Y-102177857D02*
X158921476Y-102215952D01*
X158959571Y-102254047D01*
X158997666Y-102330238D01*
X158997666Y-102444523D01*
X158959571Y-102520714D01*
X158921476Y-102558809D01*
X158845285Y-102596904D01*
X158540523Y-102596904D01*
X158540523Y-101796904D01*
X158807190Y-101796904D01*
X158883380Y-101835000D01*
X158921476Y-101873095D01*
X158959571Y-101949285D01*
X158959571Y-102025476D01*
X158921476Y-102101666D01*
X158883380Y-102139761D01*
X158807190Y-102177857D01*
X158540523Y-102177857D01*
X159302428Y-101873095D02*
X159340523Y-101835000D01*
X159416714Y-101796904D01*
X159607190Y-101796904D01*
X159683380Y-101835000D01*
X159721476Y-101873095D01*
X159759571Y-101949285D01*
X159759571Y-102025476D01*
X159721476Y-102139761D01*
X159264333Y-102596904D01*
X159759571Y-102596904D01*
X158864333Y-93442857D02*
X158597666Y-93442857D01*
X158597666Y-93861904D02*
X158597666Y-93061904D01*
X158978619Y-93061904D01*
X159207190Y-93061904D02*
X159740523Y-93061904D01*
X159397666Y-93861904D01*
X158864333Y-92017857D02*
X158597666Y-92017857D01*
X158597666Y-92436904D02*
X158597666Y-91636904D01*
X158978619Y-91636904D01*
X159626238Y-91636904D02*
X159473857Y-91636904D01*
X159397666Y-91675000D01*
X159359571Y-91713095D01*
X159283380Y-91827380D01*
X159245285Y-91979761D01*
X159245285Y-92284523D01*
X159283380Y-92360714D01*
X159321476Y-92398809D01*
X159397666Y-92436904D01*
X159550047Y-92436904D01*
X159626238Y-92398809D01*
X159664333Y-92360714D01*
X159702428Y-92284523D01*
X159702428Y-92094047D01*
X159664333Y-92017857D01*
X159626238Y-91979761D01*
X159550047Y-91941666D01*
X159397666Y-91941666D01*
X159321476Y-91979761D01*
X159283380Y-92017857D01*
X159245285Y-92094047D01*
X158864333Y-90192857D02*
X158597666Y-90192857D01*
X158597666Y-90611904D02*
X158597666Y-89811904D01*
X158978619Y-89811904D01*
X159664333Y-89811904D02*
X159283380Y-89811904D01*
X159245285Y-90192857D01*
X159283380Y-90154761D01*
X159359571Y-90116666D01*
X159550047Y-90116666D01*
X159626238Y-90154761D01*
X159664333Y-90192857D01*
X159702428Y-90269047D01*
X159702428Y-90459523D01*
X159664333Y-90535714D01*
X159626238Y-90573809D01*
X159550047Y-90611904D01*
X159359571Y-90611904D01*
X159283380Y-90573809D01*
X159245285Y-90535714D01*
X158697619Y-78361904D02*
X158430952Y-77980952D01*
X158240476Y-78361904D02*
X158240476Y-77561904D01*
X158545238Y-77561904D01*
X158621428Y-77600000D01*
X158659523Y-77638095D01*
X158697619Y-77714285D01*
X158697619Y-77828571D01*
X158659523Y-77904761D01*
X158621428Y-77942857D01*
X158545238Y-77980952D01*
X158240476Y-77980952D01*
X159002380Y-78133333D02*
X159383333Y-78133333D01*
X158926190Y-78361904D02*
X159192857Y-77561904D01*
X159459523Y-78361904D01*
X159650000Y-77561904D02*
X159840476Y-78361904D01*
X159992857Y-77790476D01*
X160145238Y-78361904D01*
X160335714Y-77561904D01*
X158521476Y-78975000D02*
X158445285Y-78936904D01*
X158331000Y-78936904D01*
X158216714Y-78975000D01*
X158140523Y-79051190D01*
X158102428Y-79127380D01*
X158064333Y-79279761D01*
X158064333Y-79394047D01*
X158102428Y-79546428D01*
X158140523Y-79622619D01*
X158216714Y-79698809D01*
X158331000Y-79736904D01*
X158407190Y-79736904D01*
X158521476Y-79698809D01*
X158559571Y-79660714D01*
X158559571Y-79394047D01*
X158407190Y-79394047D01*
X158902428Y-79736904D02*
X158902428Y-78936904D01*
X159359571Y-79736904D01*
X159359571Y-78936904D01*
X159740523Y-79736904D02*
X159740523Y-78936904D01*
X159931000Y-78936904D01*
X160045285Y-78975000D01*
X160121476Y-79051190D01*
X160159571Y-79127380D01*
X160197666Y-79279761D01*
X160197666Y-79394047D01*
X160159571Y-79546428D01*
X160121476Y-79622619D01*
X160045285Y-79698809D01*
X159931000Y-79736904D01*
X159740523Y-79736904D01*
X158692904Y-82276904D02*
X158426238Y-81895952D01*
X158235761Y-82276904D02*
X158235761Y-81476904D01*
X158540523Y-81476904D01*
X158616714Y-81515000D01*
X158654809Y-81553095D01*
X158692904Y-81629285D01*
X158692904Y-81743571D01*
X158654809Y-81819761D01*
X158616714Y-81857857D01*
X158540523Y-81895952D01*
X158235761Y-81895952D01*
X158997666Y-82238809D02*
X159111952Y-82276904D01*
X159302428Y-82276904D01*
X159378619Y-82238809D01*
X159416714Y-82200714D01*
X159454809Y-82124523D01*
X159454809Y-82048333D01*
X159416714Y-81972142D01*
X159378619Y-81934047D01*
X159302428Y-81895952D01*
X159150047Y-81857857D01*
X159073857Y-81819761D01*
X159035761Y-81781666D01*
X158997666Y-81705476D01*
X158997666Y-81629285D01*
X159035761Y-81553095D01*
X159073857Y-81515000D01*
X159150047Y-81476904D01*
X159340523Y-81476904D01*
X159454809Y-81515000D01*
X159683380Y-81476904D02*
X160140523Y-81476904D01*
X159911952Y-82276904D02*
X159911952Y-81476904D01*
X158064333Y-84016904D02*
X158331000Y-84816904D01*
X158597666Y-84016904D01*
X159321476Y-84740714D02*
X159283380Y-84778809D01*
X159169095Y-84816904D01*
X159092904Y-84816904D01*
X158978619Y-84778809D01*
X158902428Y-84702619D01*
X158864333Y-84626428D01*
X158826238Y-84474047D01*
X158826238Y-84359761D01*
X158864333Y-84207380D01*
X158902428Y-84131190D01*
X158978619Y-84055000D01*
X159092904Y-84016904D01*
X159169095Y-84016904D01*
X159283380Y-84055000D01*
X159321476Y-84093095D01*
X160121476Y-84740714D02*
X160083380Y-84778809D01*
X159969095Y-84816904D01*
X159892904Y-84816904D01*
X159778619Y-84778809D01*
X159702428Y-84702619D01*
X159664333Y-84626428D01*
X159626238Y-84474047D01*
X159626238Y-84359761D01*
X159664333Y-84207380D01*
X159702428Y-84131190D01*
X159778619Y-84055000D01*
X159892904Y-84016904D01*
X159969095Y-84016904D01*
X160083380Y-84055000D01*
X160121476Y-84093095D01*
X158864333Y-86937857D02*
X158597666Y-86937857D01*
X158597666Y-87356904D02*
X158597666Y-86556904D01*
X158978619Y-86556904D01*
X159626238Y-86823571D02*
X159626238Y-87356904D01*
X159435761Y-86518809D02*
X159245285Y-87090238D01*
X159740523Y-87090238D01*
X158807190Y-97097857D02*
X158921476Y-97135952D01*
X158959571Y-97174047D01*
X158997666Y-97250238D01*
X158997666Y-97364523D01*
X158959571Y-97440714D01*
X158921476Y-97478809D01*
X158845285Y-97516904D01*
X158540523Y-97516904D01*
X158540523Y-96716904D01*
X158807190Y-96716904D01*
X158883380Y-96755000D01*
X158921476Y-96793095D01*
X158959571Y-96869285D01*
X158959571Y-96945476D01*
X158921476Y-97021666D01*
X158883380Y-97059761D01*
X158807190Y-97097857D01*
X158540523Y-97097857D01*
X159759571Y-97516904D02*
X159302428Y-97516904D01*
X159531000Y-97516904D02*
X159531000Y-96716904D01*
X159454809Y-96831190D01*
X159378619Y-96907380D01*
X159302428Y-96945476D01*
X158807190Y-99637857D02*
X158921476Y-99675952D01*
X158959571Y-99714047D01*
X158997666Y-99790238D01*
X158997666Y-99904523D01*
X158959571Y-99980714D01*
X158921476Y-100018809D01*
X158845285Y-100056904D01*
X158540523Y-100056904D01*
X158540523Y-99256904D01*
X158807190Y-99256904D01*
X158883380Y-99295000D01*
X158921476Y-99333095D01*
X158959571Y-99409285D01*
X158959571Y-99485476D01*
X158921476Y-99561666D01*
X158883380Y-99599761D01*
X158807190Y-99637857D01*
X158540523Y-99637857D01*
X159264333Y-99256904D02*
X159759571Y-99256904D01*
X159492904Y-99561666D01*
X159607190Y-99561666D01*
X159683380Y-99599761D01*
X159721476Y-99637857D01*
X159759571Y-99714047D01*
X159759571Y-99904523D01*
X159721476Y-99980714D01*
X159683380Y-100018809D01*
X159607190Y-100056904D01*
X159378619Y-100056904D01*
X159302428Y-100018809D01*
X159264333Y-99980714D01*
X158807190Y-104717857D02*
X158921476Y-104755952D01*
X158959571Y-104794047D01*
X158997666Y-104870238D01*
X158997666Y-104984523D01*
X158959571Y-105060714D01*
X158921476Y-105098809D01*
X158845285Y-105136904D01*
X158540523Y-105136904D01*
X158540523Y-104336904D01*
X158807190Y-104336904D01*
X158883380Y-104375000D01*
X158921476Y-104413095D01*
X158959571Y-104489285D01*
X158959571Y-104565476D01*
X158921476Y-104641666D01*
X158883380Y-104679761D01*
X158807190Y-104717857D01*
X158540523Y-104717857D01*
X159683380Y-104336904D02*
X159531000Y-104336904D01*
X159454809Y-104375000D01*
X159416714Y-104413095D01*
X159340523Y-104527380D01*
X159302428Y-104679761D01*
X159302428Y-104984523D01*
X159340523Y-105060714D01*
X159378619Y-105098809D01*
X159454809Y-105136904D01*
X159607190Y-105136904D01*
X159683380Y-105098809D01*
X159721476Y-105060714D01*
X159759571Y-104984523D01*
X159759571Y-104794047D01*
X159721476Y-104717857D01*
X159683380Y-104679761D01*
X159607190Y-104641666D01*
X159454809Y-104641666D01*
X159378619Y-104679761D01*
X159340523Y-104717857D01*
X159302428Y-104794047D01*
X144075190Y-104717857D02*
X144189476Y-104755952D01*
X144227571Y-104794047D01*
X144265666Y-104870238D01*
X144265666Y-104984523D01*
X144227571Y-105060714D01*
X144189476Y-105098809D01*
X144113285Y-105136904D01*
X143808523Y-105136904D01*
X143808523Y-104336904D01*
X144075190Y-104336904D01*
X144151380Y-104375000D01*
X144189476Y-104413095D01*
X144227571Y-104489285D01*
X144227571Y-104565476D01*
X144189476Y-104641666D01*
X144151380Y-104679761D01*
X144075190Y-104717857D01*
X143808523Y-104717857D01*
X144989476Y-104336904D02*
X144608523Y-104336904D01*
X144570428Y-104717857D01*
X144608523Y-104679761D01*
X144684714Y-104641666D01*
X144875190Y-104641666D01*
X144951380Y-104679761D01*
X144989476Y-104717857D01*
X145027571Y-104794047D01*
X145027571Y-104984523D01*
X144989476Y-105060714D01*
X144951380Y-105098809D01*
X144875190Y-105136904D01*
X144684714Y-105136904D01*
X144608523Y-105098809D01*
X144570428Y-105060714D01*
X144075190Y-102177857D02*
X144189476Y-102215952D01*
X144227571Y-102254047D01*
X144265666Y-102330238D01*
X144265666Y-102444523D01*
X144227571Y-102520714D01*
X144189476Y-102558809D01*
X144113285Y-102596904D01*
X143808523Y-102596904D01*
X143808523Y-101796904D01*
X144075190Y-101796904D01*
X144151380Y-101835000D01*
X144189476Y-101873095D01*
X144227571Y-101949285D01*
X144227571Y-102025476D01*
X144189476Y-102101666D01*
X144151380Y-102139761D01*
X144075190Y-102177857D01*
X143808523Y-102177857D01*
X144951380Y-102063571D02*
X144951380Y-102596904D01*
X144760904Y-101758809D02*
X144570428Y-102330238D01*
X145065666Y-102330238D01*
X143846619Y-99637857D02*
X144113285Y-99637857D01*
X144227571Y-100056904D02*
X143846619Y-100056904D01*
X143846619Y-99256904D01*
X144227571Y-99256904D01*
X144913285Y-99256904D02*
X144760904Y-99256904D01*
X144684714Y-99295000D01*
X144646619Y-99333095D01*
X144570428Y-99447380D01*
X144532333Y-99599761D01*
X144532333Y-99904523D01*
X144570428Y-99980714D01*
X144608523Y-100018809D01*
X144684714Y-100056904D01*
X144837095Y-100056904D01*
X144913285Y-100018809D01*
X144951380Y-99980714D01*
X144989476Y-99904523D01*
X144989476Y-99714047D01*
X144951380Y-99637857D01*
X144913285Y-99599761D01*
X144837095Y-99561666D01*
X144684714Y-99561666D01*
X144608523Y-99599761D01*
X144570428Y-99637857D01*
X144532333Y-99714047D01*
X143808523Y-97516904D02*
X143808523Y-96716904D01*
X143999000Y-96716904D01*
X144113285Y-96755000D01*
X144189476Y-96831190D01*
X144227571Y-96907380D01*
X144265666Y-97059761D01*
X144265666Y-97174047D01*
X144227571Y-97326428D01*
X144189476Y-97402619D01*
X144113285Y-97478809D01*
X143999000Y-97516904D01*
X143808523Y-97516904D01*
X144532333Y-96716904D02*
X145065666Y-96716904D01*
X144722809Y-97516904D01*
X144265666Y-94900714D02*
X144227571Y-94938809D01*
X144113285Y-94976904D01*
X144037095Y-94976904D01*
X143922809Y-94938809D01*
X143846619Y-94862619D01*
X143808523Y-94786428D01*
X143770428Y-94634047D01*
X143770428Y-94519761D01*
X143808523Y-94367380D01*
X143846619Y-94291190D01*
X143922809Y-94215000D01*
X144037095Y-94176904D01*
X144113285Y-94176904D01*
X144227571Y-94215000D01*
X144265666Y-94253095D01*
X144951380Y-94176904D02*
X144799000Y-94176904D01*
X144722809Y-94215000D01*
X144684714Y-94253095D01*
X144608523Y-94367380D01*
X144570428Y-94519761D01*
X144570428Y-94824523D01*
X144608523Y-94900714D01*
X144646619Y-94938809D01*
X144722809Y-94976904D01*
X144875190Y-94976904D01*
X144951380Y-94938809D01*
X144989476Y-94900714D01*
X145027571Y-94824523D01*
X145027571Y-94634047D01*
X144989476Y-94557857D01*
X144951380Y-94519761D01*
X144875190Y-94481666D01*
X144722809Y-94481666D01*
X144646619Y-94519761D01*
X144608523Y-94557857D01*
X144570428Y-94634047D01*
X143808523Y-91111904D02*
X143808523Y-90311904D01*
X143999000Y-90311904D01*
X144113285Y-90350000D01*
X144189476Y-90426190D01*
X144227571Y-90502380D01*
X144265666Y-90654761D01*
X144265666Y-90769047D01*
X144227571Y-90921428D01*
X144189476Y-90997619D01*
X144113285Y-91073809D01*
X143999000Y-91111904D01*
X143808523Y-91111904D01*
X144951380Y-90578571D02*
X144951380Y-91111904D01*
X144760904Y-90273809D02*
X144570428Y-90845238D01*
X145065666Y-90845238D01*
X143789476Y-81515000D02*
X143713285Y-81476904D01*
X143599000Y-81476904D01*
X143484714Y-81515000D01*
X143408523Y-81591190D01*
X143370428Y-81667380D01*
X143332333Y-81819761D01*
X143332333Y-81934047D01*
X143370428Y-82086428D01*
X143408523Y-82162619D01*
X143484714Y-82238809D01*
X143599000Y-82276904D01*
X143675190Y-82276904D01*
X143789476Y-82238809D01*
X143827571Y-82200714D01*
X143827571Y-81934047D01*
X143675190Y-81934047D01*
X144170428Y-82276904D02*
X144170428Y-81476904D01*
X144627571Y-82276904D01*
X144627571Y-81476904D01*
X145008523Y-82276904D02*
X145008523Y-81476904D01*
X145199000Y-81476904D01*
X145313285Y-81515000D01*
X145389476Y-81591190D01*
X145427571Y-81667380D01*
X145465666Y-81819761D01*
X145465666Y-81934047D01*
X145427571Y-82086428D01*
X145389476Y-82162619D01*
X145313285Y-82238809D01*
X145199000Y-82276904D01*
X145008523Y-82276904D01*
X143789476Y-84055000D02*
X143713285Y-84016904D01*
X143599000Y-84016904D01*
X143484714Y-84055000D01*
X143408523Y-84131190D01*
X143370428Y-84207380D01*
X143332333Y-84359761D01*
X143332333Y-84474047D01*
X143370428Y-84626428D01*
X143408523Y-84702619D01*
X143484714Y-84778809D01*
X143599000Y-84816904D01*
X143675190Y-84816904D01*
X143789476Y-84778809D01*
X143827571Y-84740714D01*
X143827571Y-84474047D01*
X143675190Y-84474047D01*
X144170428Y-84816904D02*
X144170428Y-84016904D01*
X144627571Y-84816904D01*
X144627571Y-84016904D01*
X145008523Y-84816904D02*
X145008523Y-84016904D01*
X145199000Y-84016904D01*
X145313285Y-84055000D01*
X145389476Y-84131190D01*
X145427571Y-84207380D01*
X145465666Y-84359761D01*
X145465666Y-84474047D01*
X145427571Y-84626428D01*
X145389476Y-84702619D01*
X145313285Y-84778809D01*
X145199000Y-84816904D01*
X145008523Y-84816904D01*
X143808523Y-87356904D02*
X143808523Y-86556904D01*
X143999000Y-86556904D01*
X144113285Y-86595000D01*
X144189476Y-86671190D01*
X144227571Y-86747380D01*
X144265666Y-86899761D01*
X144265666Y-87014047D01*
X144227571Y-87166428D01*
X144189476Y-87242619D01*
X144113285Y-87318809D01*
X143999000Y-87356904D01*
X143808523Y-87356904D01*
X145027571Y-87356904D02*
X144570428Y-87356904D01*
X144799000Y-87356904D02*
X144799000Y-86556904D01*
X144722809Y-86671190D01*
X144646619Y-86747380D01*
X144570428Y-86785476D01*
X143808523Y-89896904D02*
X143808523Y-89096904D01*
X143999000Y-89096904D01*
X144113285Y-89135000D01*
X144189476Y-89211190D01*
X144227571Y-89287380D01*
X144265666Y-89439761D01*
X144265666Y-89554047D01*
X144227571Y-89706428D01*
X144189476Y-89782619D01*
X144113285Y-89858809D01*
X143999000Y-89896904D01*
X143808523Y-89896904D01*
X144760904Y-89096904D02*
X144837095Y-89096904D01*
X144913285Y-89135000D01*
X144951380Y-89173095D01*
X144989476Y-89249285D01*
X145027571Y-89401666D01*
X145027571Y-89592142D01*
X144989476Y-89744523D01*
X144951380Y-89820714D01*
X144913285Y-89858809D01*
X144837095Y-89896904D01*
X144760904Y-89896904D01*
X144684714Y-89858809D01*
X144646619Y-89820714D01*
X144608523Y-89744523D01*
X144570428Y-89592142D01*
X144570428Y-89401666D01*
X144608523Y-89249285D01*
X144646619Y-89173095D01*
X144684714Y-89135000D01*
X144760904Y-89096904D01*
X143808523Y-79736904D02*
X143808523Y-78936904D01*
X143999000Y-78936904D01*
X144113285Y-78975000D01*
X144189476Y-79051190D01*
X144227571Y-79127380D01*
X144265666Y-79279761D01*
X144265666Y-79394047D01*
X144227571Y-79546428D01*
X144189476Y-79622619D01*
X144113285Y-79698809D01*
X143999000Y-79736904D01*
X143808523Y-79736904D01*
X144570428Y-79013095D02*
X144608523Y-78975000D01*
X144684714Y-78936904D01*
X144875190Y-78936904D01*
X144951380Y-78975000D01*
X144989476Y-79013095D01*
X145027571Y-79089285D01*
X145027571Y-79165476D01*
X144989476Y-79279761D01*
X144532333Y-79736904D01*
X145027571Y-79736904D01*
X144170523Y-76396904D02*
X144627666Y-76396904D01*
X144399095Y-77196904D02*
X144399095Y-76396904D01*
X144818142Y-76396904D02*
X145351476Y-77196904D01*
X145351476Y-76396904D02*
X144818142Y-77196904D01*
X145808619Y-76396904D02*
X145884809Y-76396904D01*
X145961000Y-76435000D01*
X145999095Y-76473095D01*
X146037190Y-76549285D01*
X146075285Y-76701666D01*
X146075285Y-76892142D01*
X146037190Y-77044523D01*
X145999095Y-77120714D01*
X145961000Y-77158809D01*
X145884809Y-77196904D01*
X145808619Y-77196904D01*
X145732428Y-77158809D01*
X145694333Y-77120714D01*
X145656238Y-77044523D01*
X145618142Y-76892142D01*
X145618142Y-76701666D01*
X145656238Y-76549285D01*
X145694333Y-76473095D01*
X145732428Y-76435000D01*
X145808619Y-76396904D01*
G04 #@! TO.C,D0*
X90874923Y-73891904D02*
X90874923Y-73091904D01*
X91065400Y-73091904D01*
X91179685Y-73130000D01*
X91255876Y-73206190D01*
X91293971Y-73282380D01*
X91332066Y-73434761D01*
X91332066Y-73549047D01*
X91293971Y-73701428D01*
X91255876Y-73777619D01*
X91179685Y-73853809D01*
X91065400Y-73891904D01*
X90874923Y-73891904D01*
X91827304Y-73091904D02*
X91903495Y-73091904D01*
X91979685Y-73130000D01*
X92017780Y-73168095D01*
X92055876Y-73244285D01*
X92093971Y-73396666D01*
X92093971Y-73587142D01*
X92055876Y-73739523D01*
X92017780Y-73815714D01*
X91979685Y-73853809D01*
X91903495Y-73891904D01*
X91827304Y-73891904D01*
X91751114Y-73853809D01*
X91713019Y-73815714D01*
X91674923Y-73739523D01*
X91636828Y-73587142D01*
X91636828Y-73396666D01*
X91674923Y-73244285D01*
X91713019Y-73168095D01*
X91751114Y-73130000D01*
X91827304Y-73091904D01*
G04 #@! TO.C,RGB_STRIP1*
X199176142Y-118181380D02*
X198842809Y-117705190D01*
X198604714Y-118181380D02*
X198604714Y-117181380D01*
X198985666Y-117181380D01*
X199080904Y-117229000D01*
X199128523Y-117276619D01*
X199176142Y-117371857D01*
X199176142Y-117514714D01*
X199128523Y-117609952D01*
X199080904Y-117657571D01*
X198985666Y-117705190D01*
X198604714Y-117705190D01*
X200128523Y-117229000D02*
X200033285Y-117181380D01*
X199890428Y-117181380D01*
X199747571Y-117229000D01*
X199652333Y-117324238D01*
X199604714Y-117419476D01*
X199557095Y-117609952D01*
X199557095Y-117752809D01*
X199604714Y-117943285D01*
X199652333Y-118038523D01*
X199747571Y-118133761D01*
X199890428Y-118181380D01*
X199985666Y-118181380D01*
X200128523Y-118133761D01*
X200176142Y-118086142D01*
X200176142Y-117752809D01*
X199985666Y-117752809D01*
X200938047Y-117657571D02*
X201080904Y-117705190D01*
X201128523Y-117752809D01*
X201176142Y-117848047D01*
X201176142Y-117990904D01*
X201128523Y-118086142D01*
X201080904Y-118133761D01*
X200985666Y-118181380D01*
X200604714Y-118181380D01*
X200604714Y-117181380D01*
X200938047Y-117181380D01*
X201033285Y-117229000D01*
X201080904Y-117276619D01*
X201128523Y-117371857D01*
X201128523Y-117467095D01*
X201080904Y-117562333D01*
X201033285Y-117609952D01*
X200938047Y-117657571D01*
X200604714Y-117657571D01*
X201366619Y-118276619D02*
X202128523Y-118276619D01*
X202319000Y-118133761D02*
X202461857Y-118181380D01*
X202699952Y-118181380D01*
X202795190Y-118133761D01*
X202842809Y-118086142D01*
X202890428Y-117990904D01*
X202890428Y-117895666D01*
X202842809Y-117800428D01*
X202795190Y-117752809D01*
X202699952Y-117705190D01*
X202509476Y-117657571D01*
X202414238Y-117609952D01*
X202366619Y-117562333D01*
X202319000Y-117467095D01*
X202319000Y-117371857D01*
X202366619Y-117276619D01*
X202414238Y-117229000D01*
X202509476Y-117181380D01*
X202747571Y-117181380D01*
X202890428Y-117229000D01*
X203176142Y-117181380D02*
X203747571Y-117181380D01*
X203461857Y-118181380D02*
X203461857Y-117181380D01*
X204652333Y-118181380D02*
X204319000Y-117705190D01*
X204080904Y-118181380D02*
X204080904Y-117181380D01*
X204461857Y-117181380D01*
X204557095Y-117229000D01*
X204604714Y-117276619D01*
X204652333Y-117371857D01*
X204652333Y-117514714D01*
X204604714Y-117609952D01*
X204557095Y-117657571D01*
X204461857Y-117705190D01*
X204080904Y-117705190D01*
X205080904Y-118181380D02*
X205080904Y-117181380D01*
X205557095Y-118181380D02*
X205557095Y-117181380D01*
X205938047Y-117181380D01*
X206033285Y-117229000D01*
X206080904Y-117276619D01*
X206128523Y-117371857D01*
X206128523Y-117514714D01*
X206080904Y-117609952D01*
X206033285Y-117657571D01*
X205938047Y-117705190D01*
X205557095Y-117705190D01*
X207080904Y-118181380D02*
X206509476Y-118181380D01*
X206795190Y-118181380D02*
X206795190Y-117181380D01*
X206699952Y-117324238D01*
X206604714Y-117419476D01*
X206509476Y-117467095D01*
G04 #@! TO.C,RESET1*
X101421428Y-122252380D02*
X101088095Y-121776190D01*
X100850000Y-122252380D02*
X100850000Y-121252380D01*
X101230952Y-121252380D01*
X101326190Y-121300000D01*
X101373809Y-121347619D01*
X101421428Y-121442857D01*
X101421428Y-121585714D01*
X101373809Y-121680952D01*
X101326190Y-121728571D01*
X101230952Y-121776190D01*
X100850000Y-121776190D01*
X101850000Y-121728571D02*
X102183333Y-121728571D01*
X102326190Y-122252380D02*
X101850000Y-122252380D01*
X101850000Y-121252380D01*
X102326190Y-121252380D01*
X102707142Y-122204761D02*
X102850000Y-122252380D01*
X103088095Y-122252380D01*
X103183333Y-122204761D01*
X103230952Y-122157142D01*
X103278571Y-122061904D01*
X103278571Y-121966666D01*
X103230952Y-121871428D01*
X103183333Y-121823809D01*
X103088095Y-121776190D01*
X102897619Y-121728571D01*
X102802380Y-121680952D01*
X102754761Y-121633333D01*
X102707142Y-121538095D01*
X102707142Y-121442857D01*
X102754761Y-121347619D01*
X102802380Y-121300000D01*
X102897619Y-121252380D01*
X103135714Y-121252380D01*
X103278571Y-121300000D01*
X103707142Y-121728571D02*
X104040476Y-121728571D01*
X104183333Y-122252380D02*
X103707142Y-122252380D01*
X103707142Y-121252380D01*
X104183333Y-121252380D01*
X104469047Y-121252380D02*
X105040476Y-121252380D01*
X104754761Y-122252380D02*
X104754761Y-121252380D01*
X105897619Y-122252380D02*
X105326190Y-122252380D01*
X105611904Y-122252380D02*
X105611904Y-121252380D01*
X105516666Y-121395238D01*
X105421428Y-121490476D01*
X105326190Y-121538095D01*
G04 #@! TO.C,BOARD_COMM1*
X211129571Y-65610761D02*
X211177190Y-65467904D01*
X211224809Y-65420285D01*
X211320047Y-65372666D01*
X211462904Y-65372666D01*
X211558142Y-65420285D01*
X211605761Y-65467904D01*
X211653380Y-65563142D01*
X211653380Y-65944095D01*
X210653380Y-65944095D01*
X210653380Y-65610761D01*
X210701000Y-65515523D01*
X210748619Y-65467904D01*
X210843857Y-65420285D01*
X210939095Y-65420285D01*
X211034333Y-65467904D01*
X211081952Y-65515523D01*
X211129571Y-65610761D01*
X211129571Y-65944095D01*
X210653380Y-64753619D02*
X210653380Y-64563142D01*
X210701000Y-64467904D01*
X210796238Y-64372666D01*
X210986714Y-64325047D01*
X211320047Y-64325047D01*
X211510523Y-64372666D01*
X211605761Y-64467904D01*
X211653380Y-64563142D01*
X211653380Y-64753619D01*
X211605761Y-64848857D01*
X211510523Y-64944095D01*
X211320047Y-64991714D01*
X210986714Y-64991714D01*
X210796238Y-64944095D01*
X210701000Y-64848857D01*
X210653380Y-64753619D01*
X211367666Y-63944095D02*
X211367666Y-63467904D01*
X211653380Y-64039333D02*
X210653380Y-63706000D01*
X211653380Y-63372666D01*
X211653380Y-62467904D02*
X211177190Y-62801238D01*
X211653380Y-63039333D02*
X210653380Y-63039333D01*
X210653380Y-62658380D01*
X210701000Y-62563142D01*
X210748619Y-62515523D01*
X210843857Y-62467904D01*
X210986714Y-62467904D01*
X211081952Y-62515523D01*
X211129571Y-62563142D01*
X211177190Y-62658380D01*
X211177190Y-63039333D01*
X211653380Y-62039333D02*
X210653380Y-62039333D01*
X210653380Y-61801238D01*
X210701000Y-61658380D01*
X210796238Y-61563142D01*
X210891476Y-61515523D01*
X211081952Y-61467904D01*
X211224809Y-61467904D01*
X211415285Y-61515523D01*
X211510523Y-61563142D01*
X211605761Y-61658380D01*
X211653380Y-61801238D01*
X211653380Y-62039333D01*
X211748619Y-61277428D02*
X211748619Y-60515523D01*
X211558142Y-59706000D02*
X211605761Y-59753619D01*
X211653380Y-59896476D01*
X211653380Y-59991714D01*
X211605761Y-60134571D01*
X211510523Y-60229809D01*
X211415285Y-60277428D01*
X211224809Y-60325047D01*
X211081952Y-60325047D01*
X210891476Y-60277428D01*
X210796238Y-60229809D01*
X210701000Y-60134571D01*
X210653380Y-59991714D01*
X210653380Y-59896476D01*
X210701000Y-59753619D01*
X210748619Y-59706000D01*
X210653380Y-59086952D02*
X210653380Y-58896476D01*
X210701000Y-58801238D01*
X210796238Y-58706000D01*
X210986714Y-58658380D01*
X211320047Y-58658380D01*
X211510523Y-58706000D01*
X211605761Y-58801238D01*
X211653380Y-58896476D01*
X211653380Y-59086952D01*
X211605761Y-59182190D01*
X211510523Y-59277428D01*
X211320047Y-59325047D01*
X210986714Y-59325047D01*
X210796238Y-59277428D01*
X210701000Y-59182190D01*
X210653380Y-59086952D01*
X211653380Y-58229809D02*
X210653380Y-58229809D01*
X211367666Y-57896476D01*
X210653380Y-57563142D01*
X211653380Y-57563142D01*
X211653380Y-57086952D02*
X210653380Y-57086952D01*
X211367666Y-56753619D01*
X210653380Y-56420285D01*
X211653380Y-56420285D01*
X211653380Y-55420285D02*
X211653380Y-55991714D01*
X211653380Y-55706000D02*
X210653380Y-55706000D01*
X210796238Y-55801238D01*
X210891476Y-55896476D01*
X210939095Y-55991714D01*
G04 #@! TO.C,D1*
X112464923Y-73891904D02*
X112464923Y-73091904D01*
X112655400Y-73091904D01*
X112769685Y-73130000D01*
X112845876Y-73206190D01*
X112883971Y-73282380D01*
X112922066Y-73434761D01*
X112922066Y-73549047D01*
X112883971Y-73701428D01*
X112845876Y-73777619D01*
X112769685Y-73853809D01*
X112655400Y-73891904D01*
X112464923Y-73891904D01*
X113683971Y-73891904D02*
X113226828Y-73891904D01*
X113455400Y-73891904D02*
X113455400Y-73091904D01*
X113379209Y-73206190D01*
X113303019Y-73282380D01*
X113226828Y-73320476D01*
G04 #@! TO.C,D2*
X131514923Y-69446904D02*
X131514923Y-68646904D01*
X131705400Y-68646904D01*
X131819685Y-68685000D01*
X131895876Y-68761190D01*
X131933971Y-68837380D01*
X131972066Y-68989761D01*
X131972066Y-69104047D01*
X131933971Y-69256428D01*
X131895876Y-69332619D01*
X131819685Y-69408809D01*
X131705400Y-69446904D01*
X131514923Y-69446904D01*
X132276828Y-68723095D02*
X132314923Y-68685000D01*
X132391114Y-68646904D01*
X132581590Y-68646904D01*
X132657780Y-68685000D01*
X132695876Y-68723095D01*
X132733971Y-68799285D01*
X132733971Y-68875476D01*
X132695876Y-68989761D01*
X132238733Y-69446904D01*
X132733971Y-69446904D01*
G04 #@! TO.C,D3*
X150564923Y-66906904D02*
X150564923Y-66106904D01*
X150755400Y-66106904D01*
X150869685Y-66145000D01*
X150945876Y-66221190D01*
X150983971Y-66297380D01*
X151022066Y-66449761D01*
X151022066Y-66564047D01*
X150983971Y-66716428D01*
X150945876Y-66792619D01*
X150869685Y-66868809D01*
X150755400Y-66906904D01*
X150564923Y-66906904D01*
X151288733Y-66106904D02*
X151783971Y-66106904D01*
X151517304Y-66411666D01*
X151631590Y-66411666D01*
X151707780Y-66449761D01*
X151745876Y-66487857D01*
X151783971Y-66564047D01*
X151783971Y-66754523D01*
X151745876Y-66830714D01*
X151707780Y-66868809D01*
X151631590Y-66906904D01*
X151403019Y-66906904D01*
X151326828Y-66868809D01*
X151288733Y-66830714D01*
G04 #@! TO.C,D4*
X169614923Y-69446904D02*
X169614923Y-68646904D01*
X169805400Y-68646904D01*
X169919685Y-68685000D01*
X169995876Y-68761190D01*
X170033971Y-68837380D01*
X170072066Y-68989761D01*
X170072066Y-69104047D01*
X170033971Y-69256428D01*
X169995876Y-69332619D01*
X169919685Y-69408809D01*
X169805400Y-69446904D01*
X169614923Y-69446904D01*
X170757780Y-68913571D02*
X170757780Y-69446904D01*
X170567304Y-68608809D02*
X170376828Y-69180238D01*
X170872066Y-69180238D01*
G04 #@! TO.C,D5*
X188664923Y-71351904D02*
X188664923Y-70551904D01*
X188855400Y-70551904D01*
X188969685Y-70590000D01*
X189045876Y-70666190D01*
X189083971Y-70742380D01*
X189122066Y-70894761D01*
X189122066Y-71009047D01*
X189083971Y-71161428D01*
X189045876Y-71237619D01*
X188969685Y-71313809D01*
X188855400Y-71351904D01*
X188664923Y-71351904D01*
X189845876Y-70551904D02*
X189464923Y-70551904D01*
X189426828Y-70932857D01*
X189464923Y-70894761D01*
X189541114Y-70856666D01*
X189731590Y-70856666D01*
X189807780Y-70894761D01*
X189845876Y-70932857D01*
X189883971Y-71009047D01*
X189883971Y-71199523D01*
X189845876Y-71275714D01*
X189807780Y-71313809D01*
X189731590Y-71351904D01*
X189541114Y-71351904D01*
X189464923Y-71313809D01*
X189426828Y-71275714D01*
G04 #@! TO.C,D6*
X207714923Y-80876904D02*
X207714923Y-80076904D01*
X207905400Y-80076904D01*
X208019685Y-80115000D01*
X208095876Y-80191190D01*
X208133971Y-80267380D01*
X208172066Y-80419761D01*
X208172066Y-80534047D01*
X208133971Y-80686428D01*
X208095876Y-80762619D01*
X208019685Y-80838809D01*
X207905400Y-80876904D01*
X207714923Y-80876904D01*
X208857780Y-80076904D02*
X208705400Y-80076904D01*
X208629209Y-80115000D01*
X208591114Y-80153095D01*
X208514923Y-80267380D01*
X208476828Y-80419761D01*
X208476828Y-80724523D01*
X208514923Y-80800714D01*
X208553019Y-80838809D01*
X208629209Y-80876904D01*
X208781590Y-80876904D01*
X208857780Y-80838809D01*
X208895876Y-80800714D01*
X208933971Y-80724523D01*
X208933971Y-80534047D01*
X208895876Y-80457857D01*
X208857780Y-80419761D01*
X208781590Y-80381666D01*
X208629209Y-80381666D01*
X208553019Y-80419761D01*
X208514923Y-80457857D01*
X208476828Y-80534047D01*
G04 #@! TO.C,D10*
X90493971Y-92941904D02*
X90493971Y-92141904D01*
X90684447Y-92141904D01*
X90798733Y-92180000D01*
X90874923Y-92256190D01*
X90913019Y-92332380D01*
X90951114Y-92484761D01*
X90951114Y-92599047D01*
X90913019Y-92751428D01*
X90874923Y-92827619D01*
X90798733Y-92903809D01*
X90684447Y-92941904D01*
X90493971Y-92941904D01*
X91713019Y-92941904D02*
X91255876Y-92941904D01*
X91484447Y-92941904D02*
X91484447Y-92141904D01*
X91408257Y-92256190D01*
X91332066Y-92332380D01*
X91255876Y-92370476D01*
X92208257Y-92141904D02*
X92284447Y-92141904D01*
X92360638Y-92180000D01*
X92398733Y-92218095D01*
X92436828Y-92294285D01*
X92474923Y-92446666D01*
X92474923Y-92637142D01*
X92436828Y-92789523D01*
X92398733Y-92865714D01*
X92360638Y-92903809D01*
X92284447Y-92941904D01*
X92208257Y-92941904D01*
X92132066Y-92903809D01*
X92093971Y-92865714D01*
X92055876Y-92789523D01*
X92017780Y-92637142D01*
X92017780Y-92446666D01*
X92055876Y-92294285D01*
X92093971Y-92218095D01*
X92132066Y-92180000D01*
X92208257Y-92141904D01*
G04 #@! TO.C,D11*
X112083971Y-92941904D02*
X112083971Y-92141904D01*
X112274447Y-92141904D01*
X112388733Y-92180000D01*
X112464923Y-92256190D01*
X112503019Y-92332380D01*
X112541114Y-92484761D01*
X112541114Y-92599047D01*
X112503019Y-92751428D01*
X112464923Y-92827619D01*
X112388733Y-92903809D01*
X112274447Y-92941904D01*
X112083971Y-92941904D01*
X113303019Y-92941904D02*
X112845876Y-92941904D01*
X113074447Y-92941904D02*
X113074447Y-92141904D01*
X112998257Y-92256190D01*
X112922066Y-92332380D01*
X112845876Y-92370476D01*
X114064923Y-92941904D02*
X113607780Y-92941904D01*
X113836352Y-92941904D02*
X113836352Y-92141904D01*
X113760161Y-92256190D01*
X113683971Y-92332380D01*
X113607780Y-92370476D01*
G04 #@! TO.C,D12*
X131133971Y-88496904D02*
X131133971Y-87696904D01*
X131324447Y-87696904D01*
X131438733Y-87735000D01*
X131514923Y-87811190D01*
X131553019Y-87887380D01*
X131591114Y-88039761D01*
X131591114Y-88154047D01*
X131553019Y-88306428D01*
X131514923Y-88382619D01*
X131438733Y-88458809D01*
X131324447Y-88496904D01*
X131133971Y-88496904D01*
X132353019Y-88496904D02*
X131895876Y-88496904D01*
X132124447Y-88496904D02*
X132124447Y-87696904D01*
X132048257Y-87811190D01*
X131972066Y-87887380D01*
X131895876Y-87925476D01*
X132657780Y-87773095D02*
X132695876Y-87735000D01*
X132772066Y-87696904D01*
X132962542Y-87696904D01*
X133038733Y-87735000D01*
X133076828Y-87773095D01*
X133114923Y-87849285D01*
X133114923Y-87925476D01*
X133076828Y-88039761D01*
X132619685Y-88496904D01*
X133114923Y-88496904D01*
G04 #@! TO.C,D13*
X150183971Y-85956904D02*
X150183971Y-85156904D01*
X150374447Y-85156904D01*
X150488733Y-85195000D01*
X150564923Y-85271190D01*
X150603019Y-85347380D01*
X150641114Y-85499761D01*
X150641114Y-85614047D01*
X150603019Y-85766428D01*
X150564923Y-85842619D01*
X150488733Y-85918809D01*
X150374447Y-85956904D01*
X150183971Y-85956904D01*
X151403019Y-85956904D02*
X150945876Y-85956904D01*
X151174447Y-85956904D02*
X151174447Y-85156904D01*
X151098257Y-85271190D01*
X151022066Y-85347380D01*
X150945876Y-85385476D01*
X151669685Y-85156904D02*
X152164923Y-85156904D01*
X151898257Y-85461666D01*
X152012542Y-85461666D01*
X152088733Y-85499761D01*
X152126828Y-85537857D01*
X152164923Y-85614047D01*
X152164923Y-85804523D01*
X152126828Y-85880714D01*
X152088733Y-85918809D01*
X152012542Y-85956904D01*
X151783971Y-85956904D01*
X151707780Y-85918809D01*
X151669685Y-85880714D01*
G04 #@! TO.C,D14*
X169233971Y-88496904D02*
X169233971Y-87696904D01*
X169424447Y-87696904D01*
X169538733Y-87735000D01*
X169614923Y-87811190D01*
X169653019Y-87887380D01*
X169691114Y-88039761D01*
X169691114Y-88154047D01*
X169653019Y-88306428D01*
X169614923Y-88382619D01*
X169538733Y-88458809D01*
X169424447Y-88496904D01*
X169233971Y-88496904D01*
X170453019Y-88496904D02*
X169995876Y-88496904D01*
X170224447Y-88496904D02*
X170224447Y-87696904D01*
X170148257Y-87811190D01*
X170072066Y-87887380D01*
X169995876Y-87925476D01*
X171138733Y-87963571D02*
X171138733Y-88496904D01*
X170948257Y-87658809D02*
X170757780Y-88230238D01*
X171253019Y-88230238D01*
G04 #@! TO.C,D15*
X188283971Y-90401904D02*
X188283971Y-89601904D01*
X188474447Y-89601904D01*
X188588733Y-89640000D01*
X188664923Y-89716190D01*
X188703019Y-89792380D01*
X188741114Y-89944761D01*
X188741114Y-90059047D01*
X188703019Y-90211428D01*
X188664923Y-90287619D01*
X188588733Y-90363809D01*
X188474447Y-90401904D01*
X188283971Y-90401904D01*
X189503019Y-90401904D02*
X189045876Y-90401904D01*
X189274447Y-90401904D02*
X189274447Y-89601904D01*
X189198257Y-89716190D01*
X189122066Y-89792380D01*
X189045876Y-89830476D01*
X190226828Y-89601904D02*
X189845876Y-89601904D01*
X189807780Y-89982857D01*
X189845876Y-89944761D01*
X189922066Y-89906666D01*
X190112542Y-89906666D01*
X190188733Y-89944761D01*
X190226828Y-89982857D01*
X190264923Y-90059047D01*
X190264923Y-90249523D01*
X190226828Y-90325714D01*
X190188733Y-90363809D01*
X190112542Y-90401904D01*
X189922066Y-90401904D01*
X189845876Y-90363809D01*
X189807780Y-90325714D01*
G04 #@! TO.C,D16*
X207333971Y-88369904D02*
X207333971Y-87569904D01*
X207524447Y-87569904D01*
X207638733Y-87608000D01*
X207714923Y-87684190D01*
X207753019Y-87760380D01*
X207791114Y-87912761D01*
X207791114Y-88027047D01*
X207753019Y-88179428D01*
X207714923Y-88255619D01*
X207638733Y-88331809D01*
X207524447Y-88369904D01*
X207333971Y-88369904D01*
X208553019Y-88369904D02*
X208095876Y-88369904D01*
X208324447Y-88369904D02*
X208324447Y-87569904D01*
X208248257Y-87684190D01*
X208172066Y-87760380D01*
X208095876Y-87798476D01*
X209238733Y-87569904D02*
X209086352Y-87569904D01*
X209010161Y-87608000D01*
X208972066Y-87646095D01*
X208895876Y-87760380D01*
X208857780Y-87912761D01*
X208857780Y-88217523D01*
X208895876Y-88293714D01*
X208933971Y-88331809D01*
X209010161Y-88369904D01*
X209162542Y-88369904D01*
X209238733Y-88331809D01*
X209276828Y-88293714D01*
X209314923Y-88217523D01*
X209314923Y-88027047D01*
X209276828Y-87950857D01*
X209238733Y-87912761D01*
X209162542Y-87874666D01*
X209010161Y-87874666D01*
X208933971Y-87912761D01*
X208895876Y-87950857D01*
X208857780Y-88027047D01*
G04 #@! TO.C,D20*
X90493971Y-111991904D02*
X90493971Y-111191904D01*
X90684447Y-111191904D01*
X90798733Y-111230000D01*
X90874923Y-111306190D01*
X90913019Y-111382380D01*
X90951114Y-111534761D01*
X90951114Y-111649047D01*
X90913019Y-111801428D01*
X90874923Y-111877619D01*
X90798733Y-111953809D01*
X90684447Y-111991904D01*
X90493971Y-111991904D01*
X91255876Y-111268095D02*
X91293971Y-111230000D01*
X91370161Y-111191904D01*
X91560638Y-111191904D01*
X91636828Y-111230000D01*
X91674923Y-111268095D01*
X91713019Y-111344285D01*
X91713019Y-111420476D01*
X91674923Y-111534761D01*
X91217780Y-111991904D01*
X91713019Y-111991904D01*
X92208257Y-111191904D02*
X92284447Y-111191904D01*
X92360638Y-111230000D01*
X92398733Y-111268095D01*
X92436828Y-111344285D01*
X92474923Y-111496666D01*
X92474923Y-111687142D01*
X92436828Y-111839523D01*
X92398733Y-111915714D01*
X92360638Y-111953809D01*
X92284447Y-111991904D01*
X92208257Y-111991904D01*
X92132066Y-111953809D01*
X92093971Y-111915714D01*
X92055876Y-111839523D01*
X92017780Y-111687142D01*
X92017780Y-111496666D01*
X92055876Y-111344285D01*
X92093971Y-111268095D01*
X92132066Y-111230000D01*
X92208257Y-111191904D01*
G04 #@! TO.C,D21*
X112083971Y-111991904D02*
X112083971Y-111191904D01*
X112274447Y-111191904D01*
X112388733Y-111230000D01*
X112464923Y-111306190D01*
X112503019Y-111382380D01*
X112541114Y-111534761D01*
X112541114Y-111649047D01*
X112503019Y-111801428D01*
X112464923Y-111877619D01*
X112388733Y-111953809D01*
X112274447Y-111991904D01*
X112083971Y-111991904D01*
X112845876Y-111268095D02*
X112883971Y-111230000D01*
X112960161Y-111191904D01*
X113150638Y-111191904D01*
X113226828Y-111230000D01*
X113264923Y-111268095D01*
X113303019Y-111344285D01*
X113303019Y-111420476D01*
X113264923Y-111534761D01*
X112807780Y-111991904D01*
X113303019Y-111991904D01*
X114064923Y-111991904D02*
X113607780Y-111991904D01*
X113836352Y-111991904D02*
X113836352Y-111191904D01*
X113760161Y-111306190D01*
X113683971Y-111382380D01*
X113607780Y-111420476D01*
G04 #@! TO.C,D22*
X131133971Y-107546904D02*
X131133971Y-106746904D01*
X131324447Y-106746904D01*
X131438733Y-106785000D01*
X131514923Y-106861190D01*
X131553019Y-106937380D01*
X131591114Y-107089761D01*
X131591114Y-107204047D01*
X131553019Y-107356428D01*
X131514923Y-107432619D01*
X131438733Y-107508809D01*
X131324447Y-107546904D01*
X131133971Y-107546904D01*
X131895876Y-106823095D02*
X131933971Y-106785000D01*
X132010161Y-106746904D01*
X132200638Y-106746904D01*
X132276828Y-106785000D01*
X132314923Y-106823095D01*
X132353019Y-106899285D01*
X132353019Y-106975476D01*
X132314923Y-107089761D01*
X131857780Y-107546904D01*
X132353019Y-107546904D01*
X132657780Y-106823095D02*
X132695876Y-106785000D01*
X132772066Y-106746904D01*
X132962542Y-106746904D01*
X133038733Y-106785000D01*
X133076828Y-106823095D01*
X133114923Y-106899285D01*
X133114923Y-106975476D01*
X133076828Y-107089761D01*
X132619685Y-107546904D01*
X133114923Y-107546904D01*
G04 #@! TO.C,D23*
X150183971Y-105006904D02*
X150183971Y-104206904D01*
X150374447Y-104206904D01*
X150488733Y-104245000D01*
X150564923Y-104321190D01*
X150603019Y-104397380D01*
X150641114Y-104549761D01*
X150641114Y-104664047D01*
X150603019Y-104816428D01*
X150564923Y-104892619D01*
X150488733Y-104968809D01*
X150374447Y-105006904D01*
X150183971Y-105006904D01*
X150945876Y-104283095D02*
X150983971Y-104245000D01*
X151060161Y-104206904D01*
X151250638Y-104206904D01*
X151326828Y-104245000D01*
X151364923Y-104283095D01*
X151403019Y-104359285D01*
X151403019Y-104435476D01*
X151364923Y-104549761D01*
X150907780Y-105006904D01*
X151403019Y-105006904D01*
X151669685Y-104206904D02*
X152164923Y-104206904D01*
X151898257Y-104511666D01*
X152012542Y-104511666D01*
X152088733Y-104549761D01*
X152126828Y-104587857D01*
X152164923Y-104664047D01*
X152164923Y-104854523D01*
X152126828Y-104930714D01*
X152088733Y-104968809D01*
X152012542Y-105006904D01*
X151783971Y-105006904D01*
X151707780Y-104968809D01*
X151669685Y-104930714D01*
G04 #@! TO.C,D24*
X169233971Y-107546904D02*
X169233971Y-106746904D01*
X169424447Y-106746904D01*
X169538733Y-106785000D01*
X169614923Y-106861190D01*
X169653019Y-106937380D01*
X169691114Y-107089761D01*
X169691114Y-107204047D01*
X169653019Y-107356428D01*
X169614923Y-107432619D01*
X169538733Y-107508809D01*
X169424447Y-107546904D01*
X169233971Y-107546904D01*
X169995876Y-106823095D02*
X170033971Y-106785000D01*
X170110161Y-106746904D01*
X170300638Y-106746904D01*
X170376828Y-106785000D01*
X170414923Y-106823095D01*
X170453019Y-106899285D01*
X170453019Y-106975476D01*
X170414923Y-107089761D01*
X169957780Y-107546904D01*
X170453019Y-107546904D01*
X171138733Y-107013571D02*
X171138733Y-107546904D01*
X170948257Y-106708809D02*
X170757780Y-107280238D01*
X171253019Y-107280238D01*
G04 #@! TO.C,D25*
X188283971Y-109451904D02*
X188283971Y-108651904D01*
X188474447Y-108651904D01*
X188588733Y-108690000D01*
X188664923Y-108766190D01*
X188703019Y-108842380D01*
X188741114Y-108994761D01*
X188741114Y-109109047D01*
X188703019Y-109261428D01*
X188664923Y-109337619D01*
X188588733Y-109413809D01*
X188474447Y-109451904D01*
X188283971Y-109451904D01*
X189045876Y-108728095D02*
X189083971Y-108690000D01*
X189160161Y-108651904D01*
X189350638Y-108651904D01*
X189426828Y-108690000D01*
X189464923Y-108728095D01*
X189503019Y-108804285D01*
X189503019Y-108880476D01*
X189464923Y-108994761D01*
X189007780Y-109451904D01*
X189503019Y-109451904D01*
X190226828Y-108651904D02*
X189845876Y-108651904D01*
X189807780Y-109032857D01*
X189845876Y-108994761D01*
X189922066Y-108956666D01*
X190112542Y-108956666D01*
X190188733Y-108994761D01*
X190226828Y-109032857D01*
X190264923Y-109109047D01*
X190264923Y-109299523D01*
X190226828Y-109375714D01*
X190188733Y-109413809D01*
X190112542Y-109451904D01*
X189922066Y-109451904D01*
X189845876Y-109413809D01*
X189807780Y-109375714D01*
G04 #@! TO.C,D26*
X207344762Y-133247968D02*
X207744762Y-132555148D01*
X207909720Y-132650386D01*
X207989646Y-132740520D01*
X208017534Y-132844598D01*
X208012430Y-132929629D01*
X207969231Y-133080642D01*
X207912088Y-133179616D01*
X207802906Y-133292535D01*
X207731820Y-133339470D01*
X207627741Y-133367357D01*
X207509720Y-133343206D01*
X207344762Y-133247968D01*
X208366496Y-133002083D02*
X208418535Y-132988139D01*
X208503566Y-132993243D01*
X208668523Y-133088481D01*
X208715458Y-133159568D01*
X208729402Y-133211607D01*
X208724298Y-133296637D01*
X208686203Y-133362620D01*
X208596068Y-133442547D01*
X207971600Y-133609873D01*
X208400489Y-133857492D01*
X209394334Y-133507529D02*
X209262369Y-133431338D01*
X209177338Y-133426234D01*
X209125299Y-133440178D01*
X209002173Y-133501057D01*
X208892991Y-133613975D01*
X208740611Y-133877907D01*
X208735507Y-133962937D01*
X208749451Y-134014976D01*
X208796386Y-134086063D01*
X208928352Y-134162254D01*
X209013382Y-134167357D01*
X209065421Y-134153414D01*
X209136508Y-134106478D01*
X209231746Y-133941521D01*
X209236850Y-133856491D01*
X209222906Y-133804452D01*
X209175971Y-133733365D01*
X209044005Y-133657174D01*
X208958974Y-133652071D01*
X208906935Y-133666014D01*
X208835849Y-133712950D01*
G04 #@! TO.C,D30*
X90493971Y-131041904D02*
X90493971Y-130241904D01*
X90684447Y-130241904D01*
X90798733Y-130280000D01*
X90874923Y-130356190D01*
X90913019Y-130432380D01*
X90951114Y-130584761D01*
X90951114Y-130699047D01*
X90913019Y-130851428D01*
X90874923Y-130927619D01*
X90798733Y-131003809D01*
X90684447Y-131041904D01*
X90493971Y-131041904D01*
X91217780Y-130241904D02*
X91713019Y-130241904D01*
X91446352Y-130546666D01*
X91560638Y-130546666D01*
X91636828Y-130584761D01*
X91674923Y-130622857D01*
X91713019Y-130699047D01*
X91713019Y-130889523D01*
X91674923Y-130965714D01*
X91636828Y-131003809D01*
X91560638Y-131041904D01*
X91332066Y-131041904D01*
X91255876Y-131003809D01*
X91217780Y-130965714D01*
X92208257Y-130241904D02*
X92284447Y-130241904D01*
X92360638Y-130280000D01*
X92398733Y-130318095D01*
X92436828Y-130394285D01*
X92474923Y-130546666D01*
X92474923Y-130737142D01*
X92436828Y-130889523D01*
X92398733Y-130965714D01*
X92360638Y-131003809D01*
X92284447Y-131041904D01*
X92208257Y-131041904D01*
X92132066Y-131003809D01*
X92093971Y-130965714D01*
X92055876Y-130889523D01*
X92017780Y-130737142D01*
X92017780Y-130546666D01*
X92055876Y-130394285D01*
X92093971Y-130318095D01*
X92132066Y-130280000D01*
X92208257Y-130241904D01*
G04 #@! TO.C,D31*
X112083971Y-131041904D02*
X112083971Y-130241904D01*
X112274447Y-130241904D01*
X112388733Y-130280000D01*
X112464923Y-130356190D01*
X112503019Y-130432380D01*
X112541114Y-130584761D01*
X112541114Y-130699047D01*
X112503019Y-130851428D01*
X112464923Y-130927619D01*
X112388733Y-131003809D01*
X112274447Y-131041904D01*
X112083971Y-131041904D01*
X112807780Y-130241904D02*
X113303019Y-130241904D01*
X113036352Y-130546666D01*
X113150638Y-130546666D01*
X113226828Y-130584761D01*
X113264923Y-130622857D01*
X113303019Y-130699047D01*
X113303019Y-130889523D01*
X113264923Y-130965714D01*
X113226828Y-131003809D01*
X113150638Y-131041904D01*
X112922066Y-131041904D01*
X112845876Y-131003809D01*
X112807780Y-130965714D01*
X114064923Y-131041904D02*
X113607780Y-131041904D01*
X113836352Y-131041904D02*
X113836352Y-130241904D01*
X113760161Y-130356190D01*
X113683971Y-130432380D01*
X113607780Y-130470476D01*
G04 #@! TO.C,D32*
X131133971Y-126596904D02*
X131133971Y-125796904D01*
X131324447Y-125796904D01*
X131438733Y-125835000D01*
X131514923Y-125911190D01*
X131553019Y-125987380D01*
X131591114Y-126139761D01*
X131591114Y-126254047D01*
X131553019Y-126406428D01*
X131514923Y-126482619D01*
X131438733Y-126558809D01*
X131324447Y-126596904D01*
X131133971Y-126596904D01*
X131857780Y-125796904D02*
X132353019Y-125796904D01*
X132086352Y-126101666D01*
X132200638Y-126101666D01*
X132276828Y-126139761D01*
X132314923Y-126177857D01*
X132353019Y-126254047D01*
X132353019Y-126444523D01*
X132314923Y-126520714D01*
X132276828Y-126558809D01*
X132200638Y-126596904D01*
X131972066Y-126596904D01*
X131895876Y-126558809D01*
X131857780Y-126520714D01*
X132657780Y-125873095D02*
X132695876Y-125835000D01*
X132772066Y-125796904D01*
X132962542Y-125796904D01*
X133038733Y-125835000D01*
X133076828Y-125873095D01*
X133114923Y-125949285D01*
X133114923Y-126025476D01*
X133076828Y-126139761D01*
X132619685Y-126596904D01*
X133114923Y-126596904D01*
G04 #@! TO.C,D33*
X150183971Y-124056904D02*
X150183971Y-123256904D01*
X150374447Y-123256904D01*
X150488733Y-123295000D01*
X150564923Y-123371190D01*
X150603019Y-123447380D01*
X150641114Y-123599761D01*
X150641114Y-123714047D01*
X150603019Y-123866428D01*
X150564923Y-123942619D01*
X150488733Y-124018809D01*
X150374447Y-124056904D01*
X150183971Y-124056904D01*
X150907780Y-123256904D02*
X151403019Y-123256904D01*
X151136352Y-123561666D01*
X151250638Y-123561666D01*
X151326828Y-123599761D01*
X151364923Y-123637857D01*
X151403019Y-123714047D01*
X151403019Y-123904523D01*
X151364923Y-123980714D01*
X151326828Y-124018809D01*
X151250638Y-124056904D01*
X151022066Y-124056904D01*
X150945876Y-124018809D01*
X150907780Y-123980714D01*
X151669685Y-123256904D02*
X152164923Y-123256904D01*
X151898257Y-123561666D01*
X152012542Y-123561666D01*
X152088733Y-123599761D01*
X152126828Y-123637857D01*
X152164923Y-123714047D01*
X152164923Y-123904523D01*
X152126828Y-123980714D01*
X152088733Y-124018809D01*
X152012542Y-124056904D01*
X151783971Y-124056904D01*
X151707780Y-124018809D01*
X151669685Y-123980714D01*
G04 #@! TO.C,D34*
X169233971Y-126596904D02*
X169233971Y-125796904D01*
X169424447Y-125796904D01*
X169538733Y-125835000D01*
X169614923Y-125911190D01*
X169653019Y-125987380D01*
X169691114Y-126139761D01*
X169691114Y-126254047D01*
X169653019Y-126406428D01*
X169614923Y-126482619D01*
X169538733Y-126558809D01*
X169424447Y-126596904D01*
X169233971Y-126596904D01*
X169957780Y-125796904D02*
X170453019Y-125796904D01*
X170186352Y-126101666D01*
X170300638Y-126101666D01*
X170376828Y-126139761D01*
X170414923Y-126177857D01*
X170453019Y-126254047D01*
X170453019Y-126444523D01*
X170414923Y-126520714D01*
X170376828Y-126558809D01*
X170300638Y-126596904D01*
X170072066Y-126596904D01*
X169995876Y-126558809D01*
X169957780Y-126520714D01*
X171138733Y-126063571D02*
X171138733Y-126596904D01*
X170948257Y-125758809D02*
X170757780Y-126330238D01*
X171253019Y-126330238D01*
G04 #@! TO.C,D35*
X188283971Y-128501904D02*
X188283971Y-127701904D01*
X188474447Y-127701904D01*
X188588733Y-127740000D01*
X188664923Y-127816190D01*
X188703019Y-127892380D01*
X188741114Y-128044761D01*
X188741114Y-128159047D01*
X188703019Y-128311428D01*
X188664923Y-128387619D01*
X188588733Y-128463809D01*
X188474447Y-128501904D01*
X188283971Y-128501904D01*
X189007780Y-127701904D02*
X189503019Y-127701904D01*
X189236352Y-128006666D01*
X189350638Y-128006666D01*
X189426828Y-128044761D01*
X189464923Y-128082857D01*
X189503019Y-128159047D01*
X189503019Y-128349523D01*
X189464923Y-128425714D01*
X189426828Y-128463809D01*
X189350638Y-128501904D01*
X189122066Y-128501904D01*
X189045876Y-128463809D01*
X189007780Y-128425714D01*
X190226828Y-127701904D02*
X189845876Y-127701904D01*
X189807780Y-128082857D01*
X189845876Y-128044761D01*
X189922066Y-128006666D01*
X190112542Y-128006666D01*
X190188733Y-128044761D01*
X190226828Y-128082857D01*
X190264923Y-128159047D01*
X190264923Y-128349523D01*
X190226828Y-128425714D01*
X190188733Y-128463809D01*
X190112542Y-128501904D01*
X189922066Y-128501904D01*
X189845876Y-128463809D01*
X189807780Y-128425714D01*
G04 #@! TO.C,D36*
X223854762Y-142772968D02*
X224254762Y-142080148D01*
X224419720Y-142175386D01*
X224499646Y-142265520D01*
X224527534Y-142369598D01*
X224522430Y-142454629D01*
X224479231Y-142605642D01*
X224422088Y-142704616D01*
X224312906Y-142817535D01*
X224241820Y-142864470D01*
X224137741Y-142892357D01*
X224019720Y-142868206D01*
X223854762Y-142772968D01*
X224881600Y-142442052D02*
X225310489Y-142689671D01*
X224927167Y-142820270D01*
X225026142Y-142877412D01*
X225073077Y-142948499D01*
X225087021Y-143000538D01*
X225081917Y-143085569D01*
X224986679Y-143250526D01*
X224915592Y-143297461D01*
X224863553Y-143311405D01*
X224778523Y-143306301D01*
X224580574Y-143192016D01*
X224533639Y-143120929D01*
X224519695Y-143068890D01*
X225904334Y-143032529D02*
X225772369Y-142956338D01*
X225687338Y-142951234D01*
X225635299Y-142965178D01*
X225512173Y-143026057D01*
X225402991Y-143138975D01*
X225250611Y-143402907D01*
X225245507Y-143487937D01*
X225259451Y-143539976D01*
X225306386Y-143611063D01*
X225438352Y-143687254D01*
X225523382Y-143692357D01*
X225575421Y-143678414D01*
X225646508Y-143631478D01*
X225741746Y-143466521D01*
X225746850Y-143381491D01*
X225732906Y-143329452D01*
X225685971Y-143258365D01*
X225554005Y-143182174D01*
X225468974Y-143177071D01*
X225416935Y-143191014D01*
X225345849Y-143237950D01*
G04 #@! TO.C,D40*
X103101904Y-143771428D02*
X102301904Y-143771428D01*
X102301904Y-143580952D01*
X102340000Y-143466666D01*
X102416190Y-143390476D01*
X102492380Y-143352380D01*
X102644761Y-143314285D01*
X102759047Y-143314285D01*
X102911428Y-143352380D01*
X102987619Y-143390476D01*
X103063809Y-143466666D01*
X103101904Y-143580952D01*
X103101904Y-143771428D01*
X102568571Y-142628571D02*
X103101904Y-142628571D01*
X102263809Y-142819047D02*
X102835238Y-143009523D01*
X102835238Y-142514285D01*
X102301904Y-142057142D02*
X102301904Y-141980952D01*
X102340000Y-141904761D01*
X102378095Y-141866666D01*
X102454285Y-141828571D01*
X102606666Y-141790476D01*
X102797142Y-141790476D01*
X102949523Y-141828571D01*
X103025714Y-141866666D01*
X103063809Y-141904761D01*
X103101904Y-141980952D01*
X103101904Y-142057142D01*
X103063809Y-142133333D01*
X103025714Y-142171428D01*
X102949523Y-142209523D01*
X102797142Y-142247619D01*
X102606666Y-142247619D01*
X102454285Y-142209523D01*
X102378095Y-142171428D01*
X102340000Y-142133333D01*
X102301904Y-142057142D01*
G04 #@! TO.C,D41*
X122061904Y-143721428D02*
X121261904Y-143721428D01*
X121261904Y-143530952D01*
X121300000Y-143416666D01*
X121376190Y-143340476D01*
X121452380Y-143302380D01*
X121604761Y-143264285D01*
X121719047Y-143264285D01*
X121871428Y-143302380D01*
X121947619Y-143340476D01*
X122023809Y-143416666D01*
X122061904Y-143530952D01*
X122061904Y-143721428D01*
X121528571Y-142578571D02*
X122061904Y-142578571D01*
X121223809Y-142769047D02*
X121795238Y-142959523D01*
X121795238Y-142464285D01*
X122061904Y-141740476D02*
X122061904Y-142197619D01*
X122061904Y-141969047D02*
X121261904Y-141969047D01*
X121376190Y-142045238D01*
X121452380Y-142121428D01*
X121490476Y-142197619D01*
G04 #@! TO.C,D42*
X141201904Y-139471428D02*
X140401904Y-139471428D01*
X140401904Y-139280952D01*
X140440000Y-139166666D01*
X140516190Y-139090476D01*
X140592380Y-139052380D01*
X140744761Y-139014285D01*
X140859047Y-139014285D01*
X141011428Y-139052380D01*
X141087619Y-139090476D01*
X141163809Y-139166666D01*
X141201904Y-139280952D01*
X141201904Y-139471428D01*
X140668571Y-138328571D02*
X141201904Y-138328571D01*
X140363809Y-138519047D02*
X140935238Y-138709523D01*
X140935238Y-138214285D01*
X140478095Y-137947619D02*
X140440000Y-137909523D01*
X140401904Y-137833333D01*
X140401904Y-137642857D01*
X140440000Y-137566666D01*
X140478095Y-137528571D01*
X140554285Y-137490476D01*
X140630476Y-137490476D01*
X140744761Y-137528571D01*
X141201904Y-137985714D01*
X141201904Y-137490476D01*
G04 #@! TO.C,D43*
X160759904Y-136963028D02*
X159959904Y-136963028D01*
X159959904Y-136772552D01*
X159998000Y-136658266D01*
X160074190Y-136582076D01*
X160150380Y-136543980D01*
X160302761Y-136505885D01*
X160417047Y-136505885D01*
X160569428Y-136543980D01*
X160645619Y-136582076D01*
X160721809Y-136658266D01*
X160759904Y-136772552D01*
X160759904Y-136963028D01*
X160226571Y-135820171D02*
X160759904Y-135820171D01*
X159921809Y-136010647D02*
X160493238Y-136201123D01*
X160493238Y-135705885D01*
X159959904Y-135477314D02*
X159959904Y-134982076D01*
X160264666Y-135248742D01*
X160264666Y-135134457D01*
X160302761Y-135058266D01*
X160340857Y-135020171D01*
X160417047Y-134982076D01*
X160607523Y-134982076D01*
X160683714Y-135020171D01*
X160721809Y-135058266D01*
X160759904Y-135134457D01*
X160759904Y-135363028D01*
X160721809Y-135439219D01*
X160683714Y-135477314D01*
G04 #@! TO.C,D44*
X186077426Y-144917114D02*
X185304686Y-144710059D01*
X185353985Y-144526073D01*
X185420361Y-144425541D01*
X185513675Y-144371667D01*
X185597129Y-144354589D01*
X185754178Y-144357231D01*
X185864569Y-144386810D01*
X186001898Y-144463047D01*
X186065633Y-144519563D01*
X186119507Y-144612877D01*
X186126725Y-144733128D01*
X186077426Y-144917114D01*
X185858059Y-143675162D02*
X186373220Y-143813199D01*
X185514383Y-143780270D02*
X186017042Y-144112152D01*
X186145219Y-143633789D01*
X186055255Y-142939219D02*
X186570415Y-143077256D01*
X185711578Y-143044326D02*
X186214237Y-143376209D01*
X186342414Y-142897846D01*
G04 #@! TO.C,D45*
X195025762Y-154583968D02*
X195425762Y-153891148D01*
X195590720Y-153986386D01*
X195670646Y-154076520D01*
X195698534Y-154180598D01*
X195693430Y-154265629D01*
X195650231Y-154416642D01*
X195593088Y-154515616D01*
X195483906Y-154628535D01*
X195412820Y-154675470D01*
X195308741Y-154703357D01*
X195190720Y-154679206D01*
X195025762Y-154583968D01*
X196282172Y-154693516D02*
X196015506Y-155155397D01*
X196269596Y-154334347D02*
X195818925Y-154733980D01*
X196247813Y-154981599D01*
X197108326Y-154862576D02*
X196778412Y-154672100D01*
X196554944Y-154982967D01*
X196606983Y-154969023D01*
X196692013Y-154974127D01*
X196856971Y-155069365D01*
X196903906Y-155140452D01*
X196917850Y-155192491D01*
X196912746Y-155277521D01*
X196817508Y-155442478D01*
X196746421Y-155489414D01*
X196694382Y-155503357D01*
X196609352Y-155498254D01*
X196444394Y-155403016D01*
X196397459Y-155331929D01*
X196383515Y-155279890D01*
G04 #@! TO.C,D46*
X211789762Y-164235968D02*
X212189762Y-163543148D01*
X212354720Y-163638386D01*
X212434646Y-163728520D01*
X212462534Y-163832598D01*
X212457430Y-163917629D01*
X212414231Y-164068642D01*
X212357088Y-164167616D01*
X212247906Y-164280535D01*
X212176820Y-164327470D01*
X212072741Y-164355357D01*
X211954720Y-164331206D01*
X211789762Y-164235968D01*
X213046172Y-164345516D02*
X212779506Y-164807397D01*
X213033596Y-163986347D02*
X212582925Y-164385980D01*
X213011813Y-164633599D01*
X213839334Y-164495529D02*
X213707369Y-164419338D01*
X213622338Y-164414234D01*
X213570299Y-164428178D01*
X213447173Y-164489057D01*
X213337991Y-164601975D01*
X213185611Y-164865907D01*
X213180507Y-164950937D01*
X213194451Y-165002976D01*
X213241386Y-165074063D01*
X213373352Y-165150254D01*
X213458382Y-165155357D01*
X213510421Y-165141414D01*
X213581508Y-165094478D01*
X213676746Y-164929521D01*
X213681850Y-164844491D01*
X213667906Y-164792452D01*
X213620971Y-164721365D01*
X213489005Y-164645174D01*
X213403974Y-164640071D01*
X213351935Y-164654014D01*
X213280849Y-164700950D01*
G04 #@! TD*
M02*
