G04 #@! TF.GenerationSoftware,KiCad,Pcbnew,(5.0.0)*
G04 #@! TF.CreationDate,2020-07-01T14:19:43-04:00*
G04 #@! TF.ProjectId,redox_rev1,7265646F785F726576312E6B69636164,1.0*
G04 #@! TF.SameCoordinates,Original*
G04 #@! TF.FileFunction,Profile,NP*
%FSLAX46Y46*%
G04 Gerber Fmt 4.6, Leading zero omitted, Abs format (unit mm)*
G04 Created by KiCad (PCBNEW (5.0.0)) date 07/01/20 14:19:43*
%MOMM*%
%LPD*%
G01*
G04 APERTURE LIST*
%ADD10C,0.100000*%
G04 APERTURE END LIST*
D10*
X215450000Y-174050000D02*
X219550000Y-173050000D01*
X239550000Y-132400000D02*
X240600000Y-136550000D01*
X84328000Y-150368000D02*
X86360000Y-152400000D01*
X82804000Y-136652000D02*
X84328000Y-138176000D01*
X82804000Y-59436000D02*
X82804000Y-136652000D01*
X86360000Y-55880000D02*
X82804000Y-59436000D01*
X119380000Y-55880000D02*
X86360000Y-55880000D01*
X120650000Y-54610000D02*
X119380000Y-55880000D01*
X140208000Y-54610000D02*
X142748000Y-52070000D01*
X140208000Y-54610000D02*
X120650000Y-54610000D01*
X211023200Y-52070000D02*
X142748000Y-52070000D01*
X218313000Y-59436000D02*
X218313000Y-64008000D01*
X218313000Y-59436000D02*
X211023200Y-52070000D01*
X154178000Y-145542000D02*
X144018000Y-145542000D01*
X218313000Y-120142000D02*
X239550000Y-132400000D01*
X218313000Y-64008000D02*
X218313000Y-120142000D01*
X219550000Y-173050000D02*
X240600000Y-136550000D01*
X176149000Y-151384000D02*
X154178000Y-145542000D01*
X215450000Y-174050000D02*
X176149000Y-151384000D01*
X141478000Y-148082000D02*
X144018000Y-145542000D01*
X126746000Y-148082000D02*
X141478000Y-148082000D01*
X122428000Y-152400000D02*
X126746000Y-148082000D01*
X86360000Y-152400000D02*
X122428000Y-152400000D01*
X84328000Y-138176000D02*
X84328000Y-150368000D01*
M02*
