M48
;DRILL file {KiCad (5.0.0)} date 07/01/20 14:19:46
;FORMAT={-:-/ absolute / inch / decimal}
FMAT,2
INCH,TZ
T1C0.0670
T2C0.0866
T3C0.1181
T4C0.1570
%
G90
G05
M72
T1
X7.25Y-2.525
X7.65Y-2.525
X5.75Y-2.35
X6.15Y-2.35
X3.4Y-3.375
X3.8Y-3.375
X5.Y-4.7
X5.4Y-4.7
X8.8268Y-5.3
X9.1732Y-5.5
X4.25Y-3.375
X4.65Y-3.375
X7.25Y-3.275
X7.65Y-3.275
X5.75Y-4.6
X6.15Y-4.6
X8.3518Y-6.125
X8.6982Y-6.325
X5.Y-2.45
X5.4Y-2.45
X5.Y-3.2
X5.4Y-3.2
X4.25Y-4.125
X4.65Y-4.125
X6.7568Y-5.5232
X7.1432Y-5.6268
X3.5Y-5.625
X3.9Y-5.625
X7.25Y-4.025
X7.65Y-4.025
X6.5Y-2.45
X6.9Y-2.45
X5.75Y-3.1
X6.15Y-3.1
X8.Y-3.85
X8.4Y-3.85
X4.25Y-5.625
X4.65Y-5.625
X4.25Y-2.625
X4.65Y-2.625
X8.1768Y-4.925
X8.5232Y-5.125
X3.4Y-4.125
X3.8Y-4.125
X5.Y-3.95
X5.4Y-3.95
X7.25Y-4.775
X7.65Y-4.775
X5.Y-5.45
X5.4Y-5.45
X4.25Y-4.875
X4.65Y-4.875
X3.4Y-4.875
X3.8Y-4.875
X5.75Y-3.85
X6.15Y-3.85
X5.75Y-5.35
X6.15Y-5.35
X3.4Y-2.625
X3.8Y-2.625
X8.Y-2.9
X8.4Y-2.9
X6.5Y-3.2
X6.9Y-3.2
X6.5Y-3.95
X6.9Y-3.95
X6.5Y-4.7
X6.9Y-4.7
X7.7018Y-5.75
X8.0482Y-5.95
T2
X4.025Y-3.
X8.2Y-3.375
X4.025Y-5.1106
X8.4377Y-5.6251
X6.325Y-2.775
X6.3Y-4.975
T3
X7.35Y-2.325
X7.35Y-2.725
X7.6Y-2.425
X7.6Y-2.625
X5.85Y-2.15
X5.85Y-2.55
X6.1Y-2.25
X6.1Y-2.45
X3.5Y-3.175
X3.5Y-3.575
X3.75Y-3.275
X3.75Y-3.475
X5.1Y-4.5
X5.1Y-4.9
X5.35Y-4.6
X5.35Y-4.8
X8.8134Y-5.5232
X9.0134Y-5.1768
X9.0799Y-5.5616
X9.1799Y-5.3884
X4.35Y-3.175
X4.35Y-3.575
X4.6Y-3.275
X4.6Y-3.475
X7.35Y-3.075
X7.35Y-3.475
X7.6Y-3.175
X7.6Y-3.375
X5.85Y-4.4
X5.85Y-4.8
X6.1Y-4.5
X6.1Y-4.7
X8.3384Y-6.3482
X8.5384Y-6.0018
X8.6049Y-6.3866
X8.7049Y-6.2134
X5.1Y-2.25
X5.1Y-2.65
X5.35Y-2.35
X5.35Y-2.55
X5.1Y-3.
X5.1Y-3.4
X5.35Y-3.1
X5.35Y-3.3
X4.35Y-3.925
X4.35Y-4.325
X4.6Y-4.025
X4.6Y-4.225
X6.8016Y-5.7423
X6.9052Y-5.3559
X7.069Y-5.7104
X7.1208Y-5.5172
X3.6Y-5.425
X3.6Y-5.825
X3.85Y-5.525
X3.85Y-5.725
X7.35Y-3.825
X7.35Y-4.225
X7.6Y-3.925
X7.6Y-4.125
X6.6Y-2.25
X6.6Y-2.65
X6.85Y-2.35
X6.85Y-2.55
X5.85Y-2.9
X5.85Y-3.3
X6.1Y-3.
X6.1Y-3.2
X8.1Y-3.65
X8.1Y-4.05
X8.35Y-3.75
X8.35Y-3.95
X4.35Y-5.425
X4.35Y-5.825
X4.6Y-5.525
X4.6Y-5.725
X4.35Y-2.425
X4.35Y-2.825
X4.6Y-2.525
X4.6Y-2.725
X8.1634Y-5.1482
X8.3634Y-4.8018
X8.4299Y-5.1866
X8.5299Y-5.0134
X3.5Y-3.925
X3.5Y-4.325
X3.75Y-4.025
X3.75Y-4.225
X5.1Y-3.75
X5.1Y-4.15
X5.35Y-3.85
X5.35Y-4.05
X7.35Y-4.575
X7.35Y-4.975
X7.6Y-4.675
X7.6Y-4.875
X5.1Y-5.25
X5.1Y-5.65
X5.35Y-5.35
X5.35Y-5.55
X4.35Y-4.675
X4.35Y-5.075
X4.6Y-4.775
X4.6Y-4.975
X3.5Y-4.675
X3.5Y-5.075
X3.75Y-4.775
X3.75Y-4.975
X5.85Y-3.65
X5.85Y-4.05
X6.1Y-3.75
X6.1Y-3.95
X5.85Y-5.15
X5.85Y-5.55
X6.1Y-5.25
X6.1Y-5.45
X3.5Y-2.425
X3.5Y-2.825
X3.75Y-2.525
X3.75Y-2.725
X8.1Y-2.7
X8.1Y-3.1
X8.35Y-2.8
X8.35Y-3.
X6.6Y-3.
X6.6Y-3.4
X6.85Y-3.1
X6.85Y-3.3
X6.6Y-3.75
X6.6Y-4.15
X6.85Y-3.85
X6.85Y-4.05
X6.6Y-4.5
X6.6Y-4.9
X6.85Y-4.6
X6.85Y-4.8
X7.6884Y-5.9732
X7.8884Y-5.6268
X7.9549Y-6.0116
X8.0549Y-5.8384
T4
X4.45Y-4.875
X3.6Y-4.875
X5.95Y-3.85
X5.95Y-5.35
X3.6Y-2.625
X8.2Y-2.9
X6.7Y-3.2
X6.7Y-3.95
X6.7Y-4.7
X7.875Y-5.85
X7.45Y-2.525
X5.95Y-2.35
X3.6Y-3.375
X5.2Y-4.7
X9.Y-5.4
X4.45Y-3.375
X7.45Y-3.275
X5.95Y-4.6
X8.525Y-6.225
X5.2Y-2.45
X5.2Y-3.2
X4.45Y-4.125
X6.95Y-5.575
X3.7Y-5.625
X7.45Y-4.025
X6.7Y-2.45
X5.95Y-3.1
X8.2Y-3.85
X4.45Y-5.625
X4.45Y-2.625
X8.35Y-5.025
X3.6Y-4.125
X5.2Y-3.95
X7.45Y-4.775
X5.2Y-5.45
T0
M30
