M48
;DRILL file {KiCad (5.0.0)} date 07/01/20 14:19:46
;FORMAT={-:-/ absolute / inch / decimal}
FMAT,2
INCH,TZ
T1C0.0157
T2C0.0374
T3C0.0394
T4C0.0430
T5C0.0590
%
G90
G05
M72
T1
X4.07Y-3.67
X4.86Y-2.81
X5.025Y-3.66
X5.185Y-3.66
X5.455Y-2.94
X5.485Y-2.82
X5.5Y-2.99
X5.52Y-3.47
X5.53Y-2.935
X5.55Y-2.765
X5.565Y-2.835
X5.59Y-2.56
X5.62Y-2.455
X5.635Y-2.325
X5.65Y-4.9
X5.73Y-3.425
X5.85Y-3.9
X6.165Y-3.295
X6.255Y-3.52
X6.39Y-4.24
X6.405Y-3.575
X6.995Y-3.705
X7.Y-3.51
X7.01Y-4.23
X7.015Y-2.955
X7.075Y-3.425
X7.1Y-2.975
X7.125Y-3.285
X7.135Y-3.205
X7.15Y-3.955
X7.18Y-2.967
X7.785Y-2.855
X7.8Y-2.8
X7.84Y-2.865
X7.85Y-2.93
X7.85Y-4.1
X7.87Y-2.835
T2
X8.47Y-4.25
X8.47Y-4.3484
X8.47Y-4.4469
X8.47Y-4.5453
X7.89Y-2.2247
X7.89Y-2.3231
X7.89Y-2.4216
X7.89Y-2.52
X8.03Y-4.3
X8.03Y-4.3984
X8.03Y-4.4969
T3
X7.2965Y-2.85
X7.6035Y-2.85
X5.0465Y-4.275
X5.3535Y-4.275
X8.0465Y-3.225
X8.3535Y-3.225
X7.3353Y-5.8283
X7.4147Y-5.5317
X6.5465Y-5.025
X6.8535Y-5.025
X3.4465Y-2.95
X3.7535Y-2.95
X3.4465Y-5.2
X3.7535Y-5.2
X8.0465Y-3.52
X8.3535Y-3.52
X8.042Y-5.2232
X8.308Y-5.3768
X8.692Y-5.5982
X8.958Y-5.7518
X5.6Y-5.2515
X5.6Y-5.5585
X5.7965Y-4.925
X6.1035Y-4.925
X5.0465Y-2.775
X5.3535Y-2.775
X6.5465Y-3.525
X6.8535Y-3.525
X7.2965Y-3.6
X7.6035Y-3.6
X5.0465Y-5.025
X5.3535Y-5.025
X5.7965Y-2.675
X6.1035Y-2.675
X5.7965Y-3.425
X6.1035Y-3.425
X3.4465Y-3.7
X3.7535Y-3.7
X7.0215Y-2.15
X7.3285Y-2.15
X4.85Y-5.4294
X4.85Y-5.7365
X7.4465Y-2.15
X7.7535Y-2.15
X4.2965Y-2.95
X4.6035Y-2.95
X7.2965Y-4.35
X7.6035Y-4.35
X5.0465Y-3.525
X5.3535Y-3.525
X7.557Y-6.0632
X7.823Y-6.2168
X4.2965Y-5.2
X4.6035Y-5.2
X6.5465Y-2.775
X6.8535Y-2.775
X6.5465Y-4.275
X6.8535Y-4.275
X4.2965Y-3.7
X4.6035Y-3.7
X8.217Y-6.4432
X8.483Y-6.5968
X4.1Y-5.4615
X4.1Y-5.7685
X3.9566Y-4.66
X4.055Y-4.66
X7.84Y-3.5065
X7.84Y-3.8135
X3.4465Y-4.45
X3.7535Y-4.45
X5.7965Y-4.175
X6.1035Y-4.175
X4.2965Y-4.45
X4.6035Y-4.45
X6.37Y-5.2015
X6.37Y-5.5085
X7.2965Y-5.1
X7.6035Y-5.1
T4
X5.6Y-3.025
X5.6Y-3.125
X5.6Y-3.225
X5.6Y-3.325
X5.6Y-3.425
X5.6Y-3.525
X5.6Y-3.625
X5.6Y-3.725
X5.6Y-3.825
X5.6Y-3.925
X5.6Y-4.025
X5.6Y-4.125
X6.35Y-3.025
X6.35Y-3.125
X6.35Y-3.225
X6.35Y-3.325
X6.35Y-3.425
X6.35Y-3.525
X6.35Y-3.625
X6.35Y-3.725
X6.35Y-3.825
X6.35Y-3.925
X6.35Y-4.025
X6.35Y-4.125
T5
X5.05Y-2.35
X5.05Y-2.55
X5.3Y-2.25
X5.3Y-2.65
X5.05Y-3.1
X5.05Y-3.3
X5.3Y-3.
X5.3Y-3.4
X4.3Y-4.025
X4.3Y-4.225
X4.55Y-3.925
X4.55Y-4.325
X6.7792Y-5.6328
X6.831Y-5.4396
X6.9948Y-5.7941
X7.0984Y-5.4077
X3.55Y-5.525
X3.55Y-5.725
X3.8Y-5.425
X3.8Y-5.825
X7.3Y-3.925
X7.3Y-4.125
X7.55Y-3.825
X7.55Y-4.225
X6.55Y-2.35
X6.55Y-2.55
X6.8Y-2.25
X6.8Y-2.65
X5.8Y-3.
X5.8Y-3.2
X6.05Y-2.9
X6.05Y-3.3
X8.05Y-3.75
X8.05Y-3.95
X8.3Y-3.65
X8.3Y-4.05
X4.3Y-5.525
X4.3Y-5.725
X4.55Y-5.425
X4.55Y-5.825
X4.3Y-2.525
X4.3Y-2.725
X4.55Y-2.425
X4.55Y-2.825
X8.1701Y-5.0366
X8.2701Y-4.8634
X8.3366Y-5.2482
X8.5366Y-4.9018
X3.45Y-4.025
X3.45Y-4.225
X3.7Y-3.925
X3.7Y-4.325
X5.05Y-3.85
X5.05Y-4.05
X5.3Y-3.75
X5.3Y-4.15
X7.3Y-4.675
X7.3Y-4.875
X7.55Y-4.575
X7.55Y-4.975
X5.05Y-5.35
X5.05Y-5.55
X5.3Y-5.25
X5.3Y-5.65
X4.3Y-4.775
X4.3Y-4.975
X4.55Y-4.675
X4.55Y-5.075
X3.45Y-4.775
X3.45Y-4.975
X3.7Y-4.675
X3.7Y-5.075
X5.8Y-3.75
X5.8Y-3.95
X6.05Y-3.65
X6.05Y-4.05
X5.8Y-5.25
X5.8Y-5.45
X6.05Y-5.15
X6.05Y-5.55
X3.45Y-2.525
X3.45Y-2.725
X3.7Y-2.425
X3.7Y-2.825
X8.05Y-2.8
X8.05Y-3.
X8.3Y-2.7
X8.3Y-3.1
X6.55Y-3.1
X6.55Y-3.3
X6.8Y-3.
X6.8Y-3.4
X6.55Y-3.85
X6.55Y-4.05
X6.8Y-3.75
X6.8Y-4.15
X6.55Y-4.6
X6.55Y-4.8
X6.8Y-4.5
X6.8Y-4.9
X7.6951Y-5.8616
X7.7951Y-5.6884
X7.8616Y-6.0732
X8.0616Y-5.7268
X7.3Y-2.425
X7.3Y-2.625
X7.55Y-2.325
X7.55Y-2.725
X5.8Y-2.25
X5.8Y-2.45
X6.05Y-2.15
X6.05Y-2.55
X3.45Y-3.275
X3.45Y-3.475
X3.7Y-3.175
X3.7Y-3.575
X5.05Y-4.6
X5.05Y-4.8
X5.3Y-4.5
X5.3Y-4.9
X8.8201Y-5.4116
X8.9201Y-5.2384
X8.9866Y-5.6232
X9.1866Y-5.2768
X4.3Y-3.275
X4.3Y-3.475
X4.55Y-3.175
X4.55Y-3.575
X7.3Y-3.175
X7.3Y-3.375
X7.55Y-3.075
X7.55Y-3.475
X5.8Y-4.5
X5.8Y-4.7
X6.05Y-4.4
X6.05Y-4.8
X8.3451Y-6.2366
X8.4451Y-6.0634
X8.5116Y-6.4482
X8.7116Y-6.1018
T0
M30
