G04 #@! TF.GenerationSoftware,KiCad,Pcbnew,(5.0.0)*
G04 #@! TF.CreationDate,2020-07-01T14:31:39-04:00*
G04 #@! TF.ProjectId,status_leds,7374617475735F6C6564732E6B696361,rev?*
G04 #@! TF.SameCoordinates,Original*
G04 #@! TF.FileFunction,Legend,Bot*
G04 #@! TF.FilePolarity,Positive*
%FSLAX46Y46*%
G04 Gerber Fmt 4.6, Leading zero omitted, Abs format (unit mm)*
G04 Created by KiCad (PCBNEW (5.0.0)) date 07/01/20 14:31:39*
%MOMM*%
%LPD*%
G01*
G04 APERTURE LIST*
%ADD10C,0.300000*%
%ADD11C,0.120000*%
%ADD12C,0.150000*%
G04 APERTURE END LIST*
D10*
X104263000Y-72052571D02*
X104763000Y-71338285D01*
X105120142Y-72052571D02*
X105120142Y-70552571D01*
X104548714Y-70552571D01*
X104405857Y-70624000D01*
X104334428Y-70695428D01*
X104263000Y-70838285D01*
X104263000Y-71052571D01*
X104334428Y-71195428D01*
X104405857Y-71266857D01*
X104548714Y-71338285D01*
X105120142Y-71338285D01*
X102834428Y-72052571D02*
X103691571Y-72052571D01*
X103263000Y-72052571D02*
X103263000Y-70552571D01*
X103405857Y-70766857D01*
X103548714Y-70909714D01*
X103691571Y-70981142D01*
D11*
G04 #@! TO.C,J1*
X110310000Y-62790000D02*
X110310000Y-68760000D01*
X110310000Y-68760000D02*
X97690000Y-68760000D01*
X97690000Y-68760000D02*
X97690000Y-62790000D01*
X97690000Y-62790000D02*
X110310000Y-62790000D01*
X107000000Y-62800000D02*
X107000000Y-63550000D01*
X107000000Y-63550000D02*
X101000000Y-63550000D01*
X101000000Y-63550000D02*
X101000000Y-62800000D01*
X101000000Y-62800000D02*
X107000000Y-62800000D01*
X110300000Y-62800000D02*
X110300000Y-63550000D01*
X110300000Y-63550000D02*
X108500000Y-63550000D01*
X108500000Y-63550000D02*
X108500000Y-62800000D01*
X108500000Y-62800000D02*
X110300000Y-62800000D01*
X99500000Y-62800000D02*
X99500000Y-63550000D01*
X99500000Y-63550000D02*
X97700000Y-63550000D01*
X97700000Y-63550000D02*
X97700000Y-62800000D01*
X97700000Y-62800000D02*
X99500000Y-62800000D01*
X110300000Y-65050000D02*
X109550000Y-65050000D01*
X109550000Y-65050000D02*
X109550000Y-68000000D01*
X109550000Y-68000000D02*
X104000000Y-68000000D01*
X97700000Y-65050000D02*
X98450000Y-65050000D01*
X98450000Y-65050000D02*
X98450000Y-68000000D01*
X98450000Y-68000000D02*
X104000000Y-68000000D01*
X109350000Y-62500000D02*
X110600000Y-62500000D01*
X110600000Y-62500000D02*
X110600000Y-63750000D01*
G04 #@! TD*
G04 #@! TO.C,J1*
D12*
X104333333Y-61152380D02*
X104333333Y-61866666D01*
X104380952Y-62009523D01*
X104476190Y-62104761D01*
X104619047Y-62152380D01*
X104714285Y-62152380D01*
X103333333Y-62152380D02*
X103904761Y-62152380D01*
X103619047Y-62152380D02*
X103619047Y-61152380D01*
X103714285Y-61295238D01*
X103809523Y-61390476D01*
X103904761Y-61438095D01*
G04 #@! TD*
M02*
