G04 #@! TF.GenerationSoftware,KiCad,Pcbnew,(5.0.0)*
G04 #@! TF.CreationDate,2020-07-01T14:31:39-04:00*
G04 #@! TF.ProjectId,status_leds,7374617475735F6C6564732E6B696361,rev?*
G04 #@! TF.SameCoordinates,Original*
G04 #@! TF.FileFunction,Copper,L2,Bot,Signal*
G04 #@! TF.FilePolarity,Positive*
%FSLAX46Y46*%
G04 Gerber Fmt 4.6, Leading zero omitted, Abs format (unit mm)*
G04 Created by KiCad (PCBNEW (5.0.0)) date 07/01/20 14:31:39*
%MOMM*%
%LPD*%
G01*
G04 APERTURE LIST*
G04 #@! TA.AperFunction,ComponentPad*
%ADD10O,1.700000X1.950000*%
G04 #@! TD*
G04 #@! TA.AperFunction,Conductor*
%ADD11C,0.100000*%
G04 #@! TD*
G04 #@! TA.AperFunction,ComponentPad*
%ADD12C,1.700000*%
G04 #@! TD*
G04 #@! TA.AperFunction,ViaPad*
%ADD13C,0.800000*%
G04 #@! TD*
G04 #@! TA.AperFunction,Conductor*
%ADD14C,0.250000*%
G04 #@! TD*
G04 APERTURE END LIST*
D10*
G04 #@! TO.P,J1,4*
G04 #@! TO.N,GND*
X100250000Y-65250000D03*
G04 #@! TO.P,J1,3*
G04 #@! TO.N,DIN*
X102750000Y-65250000D03*
G04 #@! TO.P,J1,2*
G04 #@! TO.N,DOUT*
X105250000Y-65250000D03*
D11*
G04 #@! TD*
G04 #@! TO.N,+5V*
G04 #@! TO.C,J1*
G36*
X108374504Y-64276204D02*
X108398773Y-64279804D01*
X108422571Y-64285765D01*
X108445671Y-64294030D01*
X108467849Y-64304520D01*
X108488893Y-64317133D01*
X108508598Y-64331747D01*
X108526777Y-64348223D01*
X108543253Y-64366402D01*
X108557867Y-64386107D01*
X108570480Y-64407151D01*
X108580970Y-64429329D01*
X108589235Y-64452429D01*
X108595196Y-64476227D01*
X108598796Y-64500496D01*
X108600000Y-64525000D01*
X108600000Y-65975000D01*
X108598796Y-65999504D01*
X108595196Y-66023773D01*
X108589235Y-66047571D01*
X108580970Y-66070671D01*
X108570480Y-66092849D01*
X108557867Y-66113893D01*
X108543253Y-66133598D01*
X108526777Y-66151777D01*
X108508598Y-66168253D01*
X108488893Y-66182867D01*
X108467849Y-66195480D01*
X108445671Y-66205970D01*
X108422571Y-66214235D01*
X108398773Y-66220196D01*
X108374504Y-66223796D01*
X108350000Y-66225000D01*
X107150000Y-66225000D01*
X107125496Y-66223796D01*
X107101227Y-66220196D01*
X107077429Y-66214235D01*
X107054329Y-66205970D01*
X107032151Y-66195480D01*
X107011107Y-66182867D01*
X106991402Y-66168253D01*
X106973223Y-66151777D01*
X106956747Y-66133598D01*
X106942133Y-66113893D01*
X106929520Y-66092849D01*
X106919030Y-66070671D01*
X106910765Y-66047571D01*
X106904804Y-66023773D01*
X106901204Y-65999504D01*
X106900000Y-65975000D01*
X106900000Y-64525000D01*
X106901204Y-64500496D01*
X106904804Y-64476227D01*
X106910765Y-64452429D01*
X106919030Y-64429329D01*
X106929520Y-64407151D01*
X106942133Y-64386107D01*
X106956747Y-64366402D01*
X106973223Y-64348223D01*
X106991402Y-64331747D01*
X107011107Y-64317133D01*
X107032151Y-64304520D01*
X107054329Y-64294030D01*
X107077429Y-64285765D01*
X107101227Y-64279804D01*
X107125496Y-64276204D01*
X107150000Y-64275000D01*
X108350000Y-64275000D01*
X108374504Y-64276204D01*
X108374504Y-64276204D01*
G37*
D12*
G04 #@! TO.P,J1,1*
G04 #@! TO.N,+5V*
X107750000Y-65250000D03*
G04 #@! TD*
D13*
G04 #@! TO.N,DIN*
X98250000Y-60750000D03*
G04 #@! TO.N,DOUT*
X109000000Y-76375000D03*
G04 #@! TD*
D14*
G04 #@! TO.N,DIN*
X102750000Y-65250000D02*
X98250000Y-60750000D01*
G04 #@! TO.N,DOUT*
X105250000Y-65250000D02*
X105250000Y-72625000D01*
X105250000Y-72625000D02*
X109000000Y-76375000D01*
G04 #@! TD*
M02*
