G04 #@! TF.GenerationSoftware,KiCad,Pcbnew,(5.0.0)*
G04 #@! TF.CreationDate,2020-07-01T14:31:39-04:00*
G04 #@! TF.ProjectId,status_leds,7374617475735F6C6564732E6B696361,rev?*
G04 #@! TF.SameCoordinates,Original*
G04 #@! TF.FileFunction,Soldermask,Bot*
G04 #@! TF.FilePolarity,Negative*
%FSLAX46Y46*%
G04 Gerber Fmt 4.6, Leading zero omitted, Abs format (unit mm)*
G04 Created by KiCad (PCBNEW (5.0.0)) date 07/01/20 14:31:39*
%MOMM*%
%LPD*%
G01*
G04 APERTURE LIST*
%ADD10O,1.800000X2.050000*%
%ADD11C,0.100000*%
%ADD12C,1.800000*%
G04 APERTURE END LIST*
D10*
G04 #@! TO.C,J1*
X100250000Y-65250000D03*
X102750000Y-65250000D03*
X105250000Y-65250000D03*
D11*
G36*
X108411240Y-64226275D02*
X108436936Y-64230086D01*
X108462134Y-64236398D01*
X108486593Y-64245150D01*
X108510076Y-64256256D01*
X108532357Y-64269611D01*
X108553222Y-64285085D01*
X108572469Y-64302531D01*
X108589915Y-64321778D01*
X108605389Y-64342643D01*
X108618744Y-64364924D01*
X108629850Y-64388407D01*
X108638602Y-64412866D01*
X108644914Y-64438064D01*
X108648725Y-64463760D01*
X108650000Y-64489706D01*
X108650000Y-66010294D01*
X108648725Y-66036240D01*
X108644914Y-66061936D01*
X108638602Y-66087134D01*
X108629850Y-66111593D01*
X108618744Y-66135076D01*
X108605389Y-66157357D01*
X108589915Y-66178222D01*
X108572469Y-66197469D01*
X108553222Y-66214915D01*
X108532357Y-66230389D01*
X108510076Y-66243744D01*
X108486593Y-66254850D01*
X108462134Y-66263602D01*
X108436936Y-66269914D01*
X108411240Y-66273725D01*
X108385294Y-66275000D01*
X107114706Y-66275000D01*
X107088760Y-66273725D01*
X107063064Y-66269914D01*
X107037866Y-66263602D01*
X107013407Y-66254850D01*
X106989924Y-66243744D01*
X106967643Y-66230389D01*
X106946778Y-66214915D01*
X106927531Y-66197469D01*
X106910085Y-66178222D01*
X106894611Y-66157357D01*
X106881256Y-66135076D01*
X106870150Y-66111593D01*
X106861398Y-66087134D01*
X106855086Y-66061936D01*
X106851275Y-66036240D01*
X106850000Y-66010294D01*
X106850000Y-64489706D01*
X106851275Y-64463760D01*
X106855086Y-64438064D01*
X106861398Y-64412866D01*
X106870150Y-64388407D01*
X106881256Y-64364924D01*
X106894611Y-64342643D01*
X106910085Y-64321778D01*
X106927531Y-64302531D01*
X106946778Y-64285085D01*
X106967643Y-64269611D01*
X106989924Y-64256256D01*
X107013407Y-64245150D01*
X107037866Y-64236398D01*
X107063064Y-64230086D01*
X107088760Y-64226275D01*
X107114706Y-64225000D01*
X108385294Y-64225000D01*
X108411240Y-64226275D01*
X108411240Y-64226275D01*
G37*
D12*
X107750000Y-65250000D03*
G04 #@! TD*
M02*
